<?xml version="1.0" standalone="no"?>
<!DOCTYPE svg PUBLIC "-//W3C//DTD SVG 1.1//EN" "http://www.w3.org/Graphics/SVG/1.1/DTD/svg11.dtd" >
<svg>
<metadata>
Created by FontForge 20120731 at Sun Jan  1 15:39:58 2017
 By www
Linux Libertine by Philipp H. Poll,
Open Font under Terms of following Free Software Licenses:
GPL (General Public License) with font-exception and OFL (Open Font License).
Created with FontForge (http://fontforge.sf.net)
Sept 2003, 2004, 2005, 2006, 2007, 2008, 2009, 2010, 2011
</metadata>
<defs>
<font id="LinBiolinumI" horiz-adv-x="0" >
  <font-face 
    font-family="Linux Biolinum"
    font-weight="400"
    font-style="italic"
    font-stretch="normal"
    units-per-em="2048"
    panose-1="2 0 5 3 0 0 0 0 0 0"
    ascent="1638"
    descent="-410"
    x-height="885"
    cap-height="1327"
    bbox="-2112.56 -506 12901 1835"
    underline-thickness="81"
    underline-position="-201"
    slope="-12"
    unicode-range="U+0020-FFFD"
  />
<missing-glyph horiz-adv-x="1024" 
d="M365 1235l-221 -1040l459 520zM186 102h696l-238 521zM725 715l238 -520l221 1040zM683 807l459 518h-697zM0 0l304 1430h1024l-304 -1430h-1024z" />
    <glyph glyph-name="ellipsis" unicode="&#x2e;&#x2e;&#x2e;" horiz-adv-x="1533" 
d="M130 90l1 8q43 77 135 111h8q78 -31 87 -111l-2 -8q-48 -90 -134 -110h-8q-31 7 -49 19.5t-27 34t-11 56.5zM673 90l1 8q43 77 134 111h9q78 -31 87 -111l-2 -8q-48 -90 -134 -110h-8q-46 11 -65.5 35t-21.5 75zM1213 90l2 8q43 77 134 111h8q78 -31 87 -111l-1 -8
q-48 -90 -135 -110h-8q-46 11 -65.5 35t-21.5 75z" />
    <glyph glyph-name="exclamdbl" unicode="&#x21;&#x21;" horiz-adv-x="841" 
d="M896 1352q46 0 72 -39t11 -111q-16 -75 -66.5 -204t-71.5 -191q-32 -97 -57.5 -183.5t-38.5 -133.5t-16 -56q-12 -41 -37 -41q-24 0 -23 27q1 10 4 33t7.5 51t9.5 66t10 75t10.5 80.5t9.5 81.5q8 71 12 193t21 202q11 52 37.5 87.5t53.5 49t52 13.5zM514 94l1 8
q43 77 134 111h9q78 -31 87 -111l-2 -8q-48 -90 -134 -110h-8q-31 7 -49.5 19.5t-27 34t-10.5 56.5zM518 1348q46 0 72 -39t11 -111q-16 -76 -66.5 -204.5t-71.5 -190.5q-25 -75 -46.5 -146.5t-33 -113t-20.5 -73.5t-12 -40q-12 -41 -37 -41q-24 0 -23 27q2 13 11.5 78.5
t21 152t19.5 156.5q8 71 11.5 193t20.5 202q16 75 59 112.5t84 37.5zM136 90l2 8q43 77 134 111h8q78 -31 87 -111l-2 -8q-48 -90 -134 -110h-8q-46 11 -65.5 35t-21.5 75z" />
    <glyph glyph-name="question_question" unicode="&#x3f;&#x3f;" horiz-adv-x="1599" 
d="M1439 1268q-141 0 -293 -193l-26 2l-4 137l8 9q179 127 351 127q156 0 229 -84.5t43 -225.5q-12 -57 -41 -106.5t-75.5 -90.5t-80 -65t-89.5 -59q-49 -31 -79.5 -55t-48.5 -48q-52 -71 -68 -149l-20 -90q-2 -10 -10 -15.5t-20.5 -5.5t-18.5 5t-4 16l20 94q9 43 19 73.5
t31.5 77t61 91.5t95.5 88q52 40 84.5 72.5t55 72t33.5 86.5q21 100 -22.5 168t-130.5 68zM1043 90l2 8q43 77 134 111h8q78 -31 87 -111l-1 -8q-48 -90 -135 -110h-8q-46 11 -65.5 35t-21.5 75zM669 1268q-141 0 -293 -193l-26 2l-4 137l8 9q179 127 351 127
q156 0 229 -84.5t43 -225.5q-12 -57 -41 -106.5t-75.5 -90.5t-80 -65t-89.5 -59q-99 -64 -128 -103q-52 -71 -68 -149l-20 -90q-4 -20 -31 -21q-13 0 -18.5 5t-3.5 16l20 94q9 43 19 73.5t31.5 77t61 91.5t95.5 88q78 60 118 111t54 120q21 100 -22 168t-130 68zM273 90l2 8
q43 77 134 111h8q78 -31 87 -111l-1 -8q-48 -90 -135 -110h-8q-46 11 -65.5 35t-21.5 75z" />
    <glyph glyph-name="question_exclam" unicode="&#x3f;&#x21;" horiz-adv-x="1216" 
d="M1270 1352q46 0 72.5 -39t10.5 -111q-16 -75 -66.5 -204t-70.5 -191q-25 -75 -47 -146.5t-33 -113t-20 -73.5t-12 -40q-12 -41 -37 -41q-24 0 -23 27q2 13 11 78.5t20.5 152t19.5 156.5q8 71 12 193t21 202q16 75 58.5 112.5t83.5 37.5zM888 94l2 8q43 77 134 111h8
q78 -31 87 -111l-1 -8q-26 -49 -57 -74.5t-77 -35.5h-9q-23 5 -38.5 13t-26 21.5t-16 31.5t-6.5 44zM669 1268q-141 0 -293 -193l-26 2l-4 137l8 9q179 127 351 127q156 0 229 -84.5t43 -225.5q-12 -57 -41 -106.5t-75.5 -90.5t-80 -65t-89.5 -59q-99 -64 -128 -103
q-52 -71 -68 -149l-20 -90q-4 -20 -31 -21q-13 0 -18.5 5t-3.5 16l20 94q9 43 19 73.5t31.5 77t61 91.5t95.5 88q78 60 118 111t54 120q21 100 -22 168t-130 68zM273 90l2 8q43 77 134 111h8q78 -31 87 -111l-1 -8q-48 -90 -135 -110h-8q-46 11 -65.5 35t-21.5 75z" />
    <glyph glyph-name="exclam_question" unicode="&#x21;&#x3f;" horiz-adv-x="1202" 
d="M518 1348q46 0 72 -39t11 -111q-16 -76 -66.5 -204.5t-71.5 -190.5q-25 -75 -46.5 -146.5t-33 -113t-20.5 -73.5t-12 -40q-12 -41 -37 -41q-24 0 -23 27q2 13 11.5 78.5t21 152t19.5 156.5q8 71 11.5 193t20.5 202q16 75 59 112.5t84 37.5zM136 90l2 8q43 77 134 111h8
q78 -31 87 -111l-2 -8q-48 -90 -134 -110h-8q-46 11 -65.5 35t-21.5 75zM1041 1264q-41 0 -83 -16.5t-80 -46t-69 -61t-61 -69.5l-26 2l-4 137l8 9q179 127 350 127q156 0 229.5 -84.5t43.5 -225.5q-12 -57 -41 -106.5t-75.5 -90.5t-80 -65t-89.5 -59q-99 -64 -128 -103
q-52 -71 -69 -149l-19 -90q-1 -4 -2.5 -7.5t-4.5 -6t-6.5 -4t-8 -2.5t-9.5 -1q-8 0 -13.5 2t-7.5 7t-1 12l20 94q7 34 13.5 57t22 61.5t35.5 69t55.5 69t80.5 73.5q78 60 118 111t54 120q14 66 -0.5 120t-54.5 85t-97 31zM645 86l2 8q43 77 134 111h8q78 -31 87 -111l-2 -8
q-48 -90 -134 -111h-8q-46 11 -65.5 35.5t-21.5 75.5z" />
    <glyph glyph-name="centigrade" unicode="&#xb0;C" horiz-adv-x="1626" 
d="M1335 1184q97 0 190.5 -20.5t138.5 -41.5l45 -20l3 -4q-8 -18 -20.5 -45.5t-18 -39.5t-13.5 -32.5t-14.5 -40.5t-13.5 -47l-19 -2q-62 205 -323 205q-33 0 -69.5 -8t-77 -26.5t-80 -45.5t-78.5 -67.5t-72 -90t-60 -116t-43 -142.5q-25 -98 -19 -192t33.5 -167.5t96 -118
t169.5 -44.5q89 0 158.5 14.5t143.5 54.5t151 109l37 -31q-239 -244 -509 -243q-113 0 -202.5 33t-144.5 89t-89.5 131.5t-37 159.5t12.5 172q22 104 74.5 200t125.5 170.5t159.5 130.5t180.5 86t185 30zM673 1141q12 57 -14 103t-90 46q-32 0 -61 -13t-50.5 -34
t-36.5 -47.5t-21 -54.5q-12 -57 16.5 -100.5t90.5 -43.5q40 0 76.5 21.5t59 54t30.5 68.5zM333 1143q18 86 91 145.5t157 59.5q55 0 96.5 -27.5t58.5 -74.5t5 -103q-7 -33 -24 -64t-41 -56t-53 -44t-62 -29t-66 -10q-85 0 -132.5 59.5t-29.5 143.5z" />
    <glyph glyph-name="fahrenheit" unicode="&#xb0;F" horiz-adv-x="1581" 
d="M1549 1161h33.5t28.5 0.5t30 1.5t24 2l1 -4q-3 -9 -5 -18t-4.5 -18t-3 -13t-2.5 -12q-6 -29 -8 -47l-3 -6q-27 3 -74.5 6.5t-175.5 9.5t-235 6q-6 -13 -15 -42.5t-17.5 -62t-17 -69t-14 -59t-7.5 -35.5l-32 -148q210 0 406 19l2 -6q-8 -16 -15 -52q-8 -37 -7 -53l-5 -6
q-84 8 -203.5 13t-194.5 5l-45 -213q-52 -244 -60 -360l-3 -6q-34 6 -96 6l-99 -6l-1 6q45 124 95 360l94 441q48 227 58 360l5 4q34 -4 95 -4h471zM673 1141q12 57 -14 103t-90 46q-32 0 -61 -13t-50.5 -34t-36.5 -47.5t-21 -54.5q-12 -57 16.5 -100.5t90.5 -43.5
q40 0 76.5 21.5t59 54t30.5 68.5zM333 1143q18 86 91 145.5t157 59.5q55 0 96.5 -27.5t58.5 -74.5t5 -103q-7 -33 -24 -64t-41 -56t-53 -44t-62 -29t-66 -10q-85 0 -132.5 59.5t-29.5 143.5z" />
    <glyph glyph-name="f_t" unicode="ft" horiz-adv-x="1208" 
d="M957 879q9 42 25 125t27 129l6 6q38 3 61 8t55 19t42 18q18 0 14 -21q-38 -132 -70 -284h221q8 0 11.5 -3.5t1.5 -9.5l-10 -51q-6 -27 -55 -27h-189l-62 -292q-15 -69 -35.5 -156.5t-25.5 -110.5q-14 -63 -4 -100t45 -37q89 0 148 30l14 -56q-54 -40 -126.5 -63
t-139.5 -23q-68 0 -97.5 52.5t-15.5 129.5q6 34 32.5 146.5t38.5 164.5l69 315h-209h-25h-174l-144 -651q-30 -135 -87.5 -258.5t-119.5 -195.5q-133 -156 -309 -156q-24 0 -53.5 10t-40.5 19v6q41 58 83 157l21 2q10 -33 37.5 -55t65.5 -22q60 0 102.5 56.5t78.5 160.5
q17 49 38.5 144.5t51.5 248.5t47 229l65 305h-143q-10 0 -8 13l8 37q9 41 56 41h106l22 82q29 110 65.5 170.5t113.5 142.5q147 156 349 156q27 0 57 -10t43 -19l1 -6q-36 -46 -89 -158l-23 -2q-10 31 -43 51.5t-77 20.5q-84 0 -140 -60t-75 -151q-4 -17 -15 -81t-18 -104
l-7 -32h172h58h178z" />
    <glyph glyph-name="t_t" unicode="tt" horiz-adv-x="1216" 
d="M963 879q34 162 38 247l6 7q17 1 33 3.5t29 5.5t24.5 6.5t23.5 8.5t21.5 9t22 9t23.5 9q18 0 13 -21q-38 -132 -70 -284h219q8 0 11.5 -3.5t2.5 -9.5l-11 -51q-6 -27 -55 -27h-186l-63 -292q-7 -34 -15 -68.5t-14.5 -61.5t-12.5 -51t-11.5 -46.5t-8.5 -39.5
q-15 -63 -7 -95t47 -32q77 0 148 37l14 -57q-132 -102 -260 -102q-71 0 -105.5 44.5t-19.5 116.5q5 23 33.5 143t43.5 189l67 315h-248h-66h-120l-63 -292q-11 -53 -24 -106.5t-23 -95t-15 -65.5q-4 -19 -6.5 -33.5t-3.5 -28t0.5 -23.5t5 -18t9.5 -13t14.5 -8t20.5 -3
q77 0 148 37l14 -57q-70 -54 -132 -78t-128 -24q-71 0 -105.5 44.5t-19.5 116.5q5 23 33.5 143t43.5 189l67 315h-129q-8 0 -7 9l16 73q2 8 8 9h131q21 100 28.5 144t9.5 103l6 7q38 3 64.5 9t66.5 23t46 19q18 0 13 -21q-38 -132 -70 -284h119h100h215z" />
    <glyph glyph-name="Q_u" unicode="Qu" horiz-adv-x="2455" 
d="M2141 131q-174 -152 -325 -151q-68 0 -113 24t-62 63.5t-21 89.5t10 101l53 252q51 239 58 369l6 6q28 -6 97 -6l101 6l1 -6q-15 -40 -28 -81t-25 -88.5t-22 -91t-24 -108.5l-43 -203q-14 -68 -15 -110.5t13.5 -65.5t38 -31t63.5 -8q101 0 261 152l57 266
q28 130 40.5 208.5t17.5 160.5l5 6q28 -6 97 -6l102 6l1 -6q-47 -121 -99 -369l-25 -117q-44 -208 -49 -393l-5 -6q-39 6 -90 6q-22 0 -72 -6q-18 0 -17 6l17 131h-4zM943 1257q-77 0 -149.5 -32t-141 -99t-124.5 -184t-89 -272q-30 -147 -19.5 -259.5t56.5 -188t118.5 -114
t165.5 -38.5q117 0 214 64.5t169 191.5t110 309q132 622 -310 622zM1074 79q77 -65 195 -128.5t295 -122t361 -82.5l-2 -12q-65 -31 -125 -63t-93 -54q-264 78 -446 166.5t-361 221.5q-95 -26 -198 -25q-269 0 -405.5 179t-73.5 476q65 305 280.5 509t487.5 204
q278 0 413 -186t70 -488q-42 -199 -145 -353t-253 -242z" />
    <glyph glyph-name="f_f" unicode="ff" horiz-adv-x="1193" 
d="M301 483l57 305h-135q-10 0 -8 13l8 37q9 41 56 41h98l18 82q24 110 59 162.5t122 129.5q151 135 367 136q63 0 88 -19l1 -6q-35 -44 -93 -168l-23 -2q-5 16 -13.5 28.5t-21 22.5t-30 15.5t-39.5 5.5q-58 0 -107 -24t-81.5 -67.5t-44.5 -99.5q-4 -17 -15 -78.5t-19 -97.5
l-4 -20h303h62h36l18 82q16 77 43 132.5t52.5 87t83.5 93.5q147 156 349 156q19 0 36.5 -2.5t31 -7t20.5 -9.5l1 -6q-11 -14 -23.5 -34.5t-25.5 -44.5t-23 -44.5t-21 -44.5l-23 -2q-24 72 -104 72q-84 0 -140 -60t-75 -151q-3 -14 -7.5 -48t-11 -75t-12.5 -74l-5 -20h222
q8 0 11.5 -3.5t1.5 -9.5l-11 -51q-2 -9 -11 -15t-20 -9t-21 -3h-191l-120 -589q-29 -138 -83 -261t-115 -194q-133 -156 -293 -156q-57 0 -79 19l-1 6q18 26 39.5 69.5t44.5 98.5l20 2q10 -33 33 -52.5t61 -19.5q21 0 38 6.5t32 22.5t25.5 30t23.5 44t20 49t21 59
q13 38 31 116t30 141.5t35 190t32 175.5l41 243h-67h-68h-266l-136 -651q-29 -138 -83.5 -261t-114.5 -193q-133 -156 -293 -156q-17 0 -33.5 2.5t-28.5 6.5t-18 9l-1 6q31 43 84 168l21 2q22 -72 93 -71q25 0 46 11.5t35 26t30 47.5t24.5 55.5t25.5 70.5q11 31 23 81
t26 120t25 129t27.5 150t26.5 142z" />
    <glyph glyph-name=".notdef" horiz-adv-x="1024" 
d="M365 1235l-221 -1040l459 520zM186 102h696l-238 521zM725 715l238 -520l221 1040zM683 807l459 518h-697zM0 0l304 1430h1024l-304 -1430h-1024z" />
    <glyph glyph-name=".null" 
 />
    <glyph glyph-name="nonmarkingreturn" horiz-adv-x="682" 
 />
    <glyph glyph-name="space" unicode=" " horiz-adv-x="512" 
 />
    <glyph glyph-name="exclam" unicode="!" horiz-adv-x="466" 
d="M518 1348q46 0 72 -39t11 -111q-16 -76 -66.5 -204.5t-71.5 -190.5q-25 -75 -46.5 -146.5t-33 -113t-20.5 -73.5t-12 -40q-12 -41 -37 -41q-24 0 -23 27q2 13 11.5 78.5t21 152t19.5 156.5q8 71 11.5 193t20.5 202q16 75 59 112.5t84 37.5zM136 90l2 8q43 77 134 111h8
q78 -31 87 -111l-2 -8q-48 -90 -134 -110h-8q-46 11 -65.5 35t-21.5 75z" />
    <glyph glyph-name="quotedbl" unicode="&#x22;" horiz-adv-x="688" 
d="M626 874q16 326 20 345q8 36 45.5 69t80.5 33q37 0 50.5 -20t7.5 -48q-3 -15 -40 -107.5t-72 -177.5l-35 -85zM368 872q16 326 20 345q8 36 45 69t81 33q37 0 50 -20t7 -48q-3 -15 -39.5 -107.5t-71.5 -177.5l-35 -85z" />
    <glyph glyph-name="numbersign" unicode="#" horiz-adv-x="901" 
d="M647 473l83 225h-225l-85 -225h227zM798 698l-85 -225h184l-35 -98h-182l-132 -348h-67l127 348h-223l-131 -348h-68l129 348h-184l35 98h186l83 225h-184l38 101h184l129 348h70l-132 -348h228l127 348h68l-130 -348h187l-38 -101h-184z" />
    <glyph glyph-name="dollar" unicode="$" horiz-adv-x="901" 
d="M418 57l100 470q-60 27 -102.5 54t-82.5 67t-53.5 94.5t0.5 121.5q18 84 79.5 154t139 107.5t155.5 44.5l25 114h69l-24 -114q82 -4 140 -23.5t76 -37.5l17 -17l3 -7q-46 -88 -71 -170l-19 -2q-36 154 -162 181l-91 -424q61 -24 104.5 -48t87.5 -64t59.5 -97t0.5 -129
q-25 -116 -141.5 -215t-254.5 -128l-33 -155h-70l31 146h-14q-96 0 -172.5 20t-103.5 41l-28 20l-3 7q50 104 74 174l17 2q21 -84 87 -135t160 -52zM554 698l85 402q-82 -4 -141.5 -56.5t-76.5 -132.5q-28 -133 133 -213zM581 499l-92 -434q79 17 138 68.5t77 134.5
q20 95 -13.5 145.5t-109.5 85.5z" />
    <glyph glyph-name="percent" unicode="%" horiz-adv-x="1304" 
d="M921 170q-15 -72 6 -103.5t57 -31.5q40 0 83 30.5t76 77t57.5 98t34.5 95.5q5 22 5 40.5t-3.5 31t-9.5 22.5t-13 15.5t-15.5 9t-15.5 5t-14 1.5q-71 0 -149.5 -97.5t-98.5 -193.5zM821 201q25 120 127 221.5t212 101.5q74 0 116 -42t21 -144q-16 -74 -61.5 -155
t-121 -144.5t-155.5 -63.5q-88 0 -122.5 68.5t-15.5 157.5zM972 1067q83 0 179.5 26.5t151.5 84.5l59 -33l-1089 -1170l-63 31l953 1024q-107 -39 -227 -39q-35 0 -82 13t-73 30q1 -11 -0.5 -24t-4.5 -27q-7 -33 -23 -72t-39 -80t-53.5 -78.5t-65 -67t-76 -47t-82.5 -17.5
q-89 0 -122 67.5t-15 155.5q17 79 68.5 153.5t125 123t144.5 48.5q41 0 77.5 -15.5t48.5 -35.5q100 -51 208 -51zM399 815q-15 -72 6.5 -103.5t56.5 -31.5q40 0 82.5 30t75.5 76t58 98t34 97q6 38 4 62.5t-14.5 38.5t-26 19t-28.5 5q-24 0 -51.5 -13.5t-52.5 -35.5
t-48.5 -52t-42.5 -62t-33 -65.5t-20 -62.5z" />
    <glyph glyph-name="ampersand" unicode="&#x26;" horiz-adv-x="1443" 
d="M659 692q-167 -83 -240.5 -169t-98.5 -204q-30 -139 29 -201.5t169 -62.5q51 0 90.5 11.5t82 43t70 58.5t83.5 86q4 4 6 6.5t5 6t6 5.5q-59 108 -125 246.5t-77 173.5zM769 842q111 64 183 135t83 127q15 69 -12 106t-90 37q-31 0 -68 -16.5t-75.5 -61t-51.5 -106.5
q-9 -30 -2 -92.5t33 -128.5zM968 393q246 277 318 492q19 -6 78 -6q68 0 90 6q-40 -50 -225.5 -291t-219.5 -281l49 -94q31 -63 67 -96t64 -33q99 0 179 111l29 -17q-55 -102 -120.5 -153t-123.5 -51q-24 0 -40 1t-40.5 8.5t-43 21.5t-41 40.5t-42.5 65.5l-43 76
q-100 -106 -196.5 -159.5t-219.5 -53.5q-179 0 -271.5 87.5t-53.5 272.5q24 112 134 214t334 214q-69 159 -40 291q6 31 22 62t39.5 61t56 56.5t70.5 46t85 31t97 11.5q109 0 171 -63.5t42 -159.5q-17 -81 -122 -174t-255 -170l5 -17q41 -112 167 -350z" />
    <glyph glyph-name="quotesingle" unicode="'" horiz-adv-x="389" 
d="M347 872q16 326 20 345q8 36 45.5 69t80.5 33q37 0 50.5 -20t7.5 -48q-3 -15 -40 -107.5t-72 -177.5l-35 -85z" />
    <glyph glyph-name="parenleft" unicode="(" horiz-adv-x="614" 
d="M200 516q58 274 231 520.5t401 411.5l39 -37q-386 -350 -501 -895q-115 -540 120 -899l-55 -35q-83 88 -139.5 189t-80 198.5t-35 181.5t-5.5 166t11.5 121.5t13.5 77.5z" />
    <glyph glyph-name="parenright" unicode=")" horiz-adv-x="614" 
d="M634 516q-58 -274 -231 -520.5t-401 -411.5l-39 37q17 16 30.5 29t41 40.5t51 55t55.5 67t60 82.5t60 94.5t60 110t54.5 123t49 140t39.5 153.5q115 540 -120 899l54 35q98 -104 159 -231.5t81 -228.5t20.5 -213t-7 -162.5t-17.5 -98.5z" />
    <glyph glyph-name="asterisk" unicode="*" horiz-adv-x="886" 
d="M652 1161q-35 8 -84 8q-82 0 -120.5 16.5t-29.5 59.5q3 15 12.5 28.5t27.5 23.5t41 10q39 0 90 -45t84 -60q4 41 -4 101.5t-3 87.5q5 22 16.5 39.5t28 28.5t34.5 11q29 0 44.5 -18t7.5 -53q-6 -29 -39.5 -99.5t-41.5 -99.5q43 17 111.5 62t105.5 45t49 -20.5t8 -41.5
q-4 -18 -15 -31.5t-26 -21.5t-35 -13.5t-39.5 -7.5t-42.5 -2q-64 0 -114 -8q19 -28 59.5 -58.5t60.5 -57t12 -62.5q-6 -26 -27.5 -42.5t-44.5 -16.5q-36 0 -52 33t-26.5 93t-21.5 87q-21 -27 -59 -91t-66.5 -93t-63.5 -29q-26 0 -39 16.5t-8 40.5q8 39 40.5 66t85.5 56.5
t84 57.5z" />
    <glyph glyph-name="plus" unicode="+" horiz-adv-x="1079" 
d="M704 526h352l-21 -100h-353l-75 -356h-105l76 356h-352l21 100h352l76 357h104z" />
    <glyph glyph-name="comma" unicode="," horiz-adv-x="450" 
d="M118 90l1 8q43 77 134 111h9q121 -47 85 -215q-22 -102 -111 -175t-192 -91q-17 19 1 51q77 18 140 71t71 91q5 23 -3 35.5t-18.5 15t-26.5 2.5q-34 8 -51 16.5t-27 27t-12 52.5z" />
    <glyph glyph-name="hyphen" unicode="-" horiz-adv-x="681" 
d="M664 483h-463q-13 0 -19.5 10.5t-3.5 24.5q5 25 27 50.5t40 25.5h469q29 0 21 -37q-4 -19 -28 -46.5t-43 -27.5z" />
    <glyph glyph-name="period" unicode="." horiz-adv-x="450" 
d="M130 90l1 8q43 77 135 111h8q78 -31 87 -111l-2 -8q-48 -90 -134 -110h-8q-31 7 -49 19.5t-27 34t-11 56.5z" />
    <glyph glyph-name="slash" unicode="/" horiz-adv-x="661" 
d="M881 1323l-792 -1444h-84l792 1444h84z" />
    <glyph glyph-name="zero" unicode="0" horiz-adv-x="909" 
d="M684 1169q-213 0 -326 -581q-32 -162 -31 -283q0 -246 134 -246q25 0 54.5 10.5t75.5 56.5t81 124q57 127 110 399q31 161 32 281q0 52 -6.5 93.5t-17.5 69.5t-26 44q-29 32 -80 32zM442 -20q-136 0 -204.5 108t-68.5 288q0 51 5.5 105t15.5 111q55 291 205 474t303 183
q115 0 174 -71q98 -115 98 -331q0 -48 -5 -101.5t-17 -112.5q-63 -326 -215 -489.5t-291 -163.5z" />
    <glyph glyph-name="one" unicode="1" horiz-adv-x="909" 
d="M713 387q-49 -254 -60 -387l-4 -6q-55 6 -94 6l-90 -6l-2 6q45 143 92 387l98 508q31 156 -6 156q-20 0 -104 -14.5t-125 -18.5v59q88 27 245.5 90.5t217.5 81.5q12 0 12 -6v-4q-33 -94 -80 -332z" />
    <glyph glyph-name="two" unicode="2" horiz-adv-x="909" 
d="M630 1122q-98 0 -165 -55q-16 -14 -29.5 -27t-25 -26.5t-23 -28.5t-21.5 -30.5t-21 -34.5l-25 2l-24 141q60 69 153 127.5t211 58.5q143 0 223 -80.5t80 -199.5q0 -50 -12 -99t-24.5 -81t-44.5 -79.5t-48 -68t-58 -72.5q-24 -30 -49 -58t-57 -61t-50 -51.5t-59 -56.5
t-50.5 -47t-57.5 -52t-50 -44q-42 -38 -42 -59q0 -4 1 -7q54 4 160 4q69 0 118 1t95 4l69 4.5t80 7.5q-4 -12 -7.5 -24.5t-7 -31.5t-5.5 -24q-3 -12 -4 -28.5t-1 -27v-28.5q-233 10 -341 10q-9 0 -372 -10q-10 24 -11 59q0 14 2 26t7 21q15 13 78 66.5t109 94.5t111 102
t124 127t108 130q108 145 108 335q0 38 -14 71t-36.5 54.5t-49 33.5t-52.5 12z" />
    <glyph glyph-name="three" unicode="3" horiz-adv-x="909" 
d="M426 59q46 0 105 24t106 81q87 104 88 249q0 42 -12 76.5t-35 59.5q-63 66 -176 65q-57 0 -82 -4l16 90q41 -6 70 -6q166 0 233 144q39 83 39 165q0 50 -17.5 88.5t-45.5 58t-62 19.5q-84 0 -143 -43t-111 -131l-28 2l-19 131l8 7q141 115 324 114q25 0 48.5 -2.5
t44.5 -8t39.5 -13t34.5 -17.5t30 -21.5t25 -25t19 -29t14 -32t8.5 -34.5t2.5 -36q0 -28 -4.5 -56t-12 -51t-19 -46t-24 -41.5t-27.5 -36.5q-85 -104 -189 -129v-11q48 -5 88 -23.5t69 -48.5t45 -72t16 -91q0 -100 -44.5 -180.5t-114.5 -138.5q-137 -115 -305 -125
q-11 -1 -20 0q-176 0 -271 98l-4 6l70 154l28 2q14 -57 22.5 -80t29 -52.5t54.5 -39t89 -9.5z" />
    <glyph glyph-name="four" unicode="4" horiz-adv-x="909" 
d="M621 303h-406q-57 0 -85 9.5t-24 31.5q6 33 41 80q100 133 322.5 403.5t341.5 401.5l8 8q35 -8 66 -8q16 0 42.5 4t35.5 4q2 0 2 -8q-37 -119 -70 -303l-100 -520h125q31 0 22 -33q-4 -18 -27.5 -44t-42.5 -26h-98q-29 -152 -47 -303q0 -6 -6 -6q-8 0 -36 3t-44 3l-94 -6
l-2 6q45 141 76 303zM766 1049l-524 -643h399z" />
    <glyph glyph-name="five" unicode="5" horiz-adv-x="909" 
d="M391 -20q-170 0 -274 114l-6 6l73 164l29 2q2 -8 13.5 -43t14.5 -42t14 -32.5t18.5 -31.5t21.5 -21.5t29.5 -19.5t38 -9.5t49.5 -5.5q100 0 178 83t104 223q4 21 7 40.5t4 37.5t1 35q0 71 -22 120.5t-60.5 72.5t-91.5 23q-94 0 -256 -63l-12 6l180 602q131 -12 222 -12
q162 0 325 20l13 -6l-58 -139q-98 -12 -209 -12q-117 0 -245 18l-113 -362q88 31 221 30q136 0 209.5 -81.5t73.5 -208.5q0 -42 -9 -87q-35 -182 -172 -301.5t-311 -119.5z" />
    <glyph glyph-name="six" unicode="6" horiz-adv-x="909" 
d="M358 567q-4 -12 -16 -75q-20 -102 -20 -182q0 -141 55 -198t133 -57q176 0 233 299q10 49 10 96q0 86 -40 143.5t-140 57.5q-121 0 -215 -84zM1016 1194q-223 -23 -375 -152q-186 -160 -268 -415q43 45 119.5 75.5t138.5 30.5q59 0 107 -13t79.5 -36t53.5 -51t33.5 -62.5
t16.5 -65t5 -62.5q0 -40 -6 -74q-12 -61 -43 -124t-82.5 -124.5t-134 -100t-185.5 -38.5q-42 0 -81.5 8t-82.5 31.5t-74 60.5t-51 100t-20 144q0 79 18 172q63 322 318 542q119 104 241.5 152.5t278.5 58.5z" />
    <glyph glyph-name="seven" unicode="7" horiz-adv-x="909" 
d="M885 1075q-344 10 -557 -18q20 66 28 100q0 2 6 86q96 -14 549 -14q68 0 129 20l29 -20q-297 -504 -682 -1247l-145 -9l-4 13q233 374 647 1089z" />
    <glyph glyph-name="eight" unicode="8" horiz-adv-x="909" 
d="M670 1182q-84 0 -133.5 -49.5t-63.5 -126.5q-6 -29 -6 -53q0 -94 100 -171l54 -37q61 39 120.5 108t73.5 142q1 8 2.5 15.5t2 15t0.5 14.5q0 63 -37 102.5t-113 39.5zM961 993q-27 -143 -277 -297l104 -88q39 -33 66 -68.5t42 -77.5t15 -87q0 -28 -6 -58
q-25 -127 -154.5 -231t-312.5 -104q-140 0 -221 62.5t-81 180.5q0 17 2 35.5t5 38.5q29 137 168 246q115 90 166 125l-35 28q-39 32 -66 68t-42.5 77t-15.5 86q0 27 6 54q23 121 123 193.5t247 72.5q85 0 147 -26.5t93 -73t31 -107.5q1 -24 -4 -49zM457 49q231 0 276 225
q5 26 5 54q0 143 -126 227l-80 53q-199 -121 -235 -309q-7 -37 -7 -68q0 -92 50 -137t117 -45z" />
    <glyph glyph-name="nine" unicode="9" horiz-adv-x="909" 
d="M823 662q4 12 17 75q10 52 15 97.5t5 84.5q0 141 -55.5 198t-132.5 57q-176 0 -234 -300q-2 -10 -3.5 -21t-3 -23t-2.5 -25t-1 -26q0 -39 8 -72.5t27 -64t56 -47.5t89 -17q121 0 215 84zM166 35q223 23 375 151q186 160 268 416q-43 -45 -121 -75.5t-137 -30.5
q-88 0 -149.5 27.5t-91.5 74t-42 92t-12 96.5q0 40 6 74q12 61 43 124t82 124t134 100t186 39q54 0 103 -15t98 -50t78.5 -107t29.5 -172q0 -79 -19 -172q-63 -322 -317 -543q-119 -104 -242 -152t-278 -59z" />
    <glyph glyph-name="colon" unicode=":" horiz-adv-x="450" 
d="M280 729l2 8q43 77 134 111h8q78 -31 87 -111l-2 -8q-48 -90 -134 -111h-8q-46 11 -65.5 35.5t-21.5 75.5zM165 190l2 9q43 77 134 110h8q78 -31 87 -110l-1 -9q-48 -90 -134 -110h-8q-31 7 -49.5 20t-27.5 34t-11 56z" />
    <glyph glyph-name="semicolon" unicode=";" horiz-adv-x="450" 
d="M259 729l2 8q43 77 134 111h8q78 -31 87 -111l-1 -8q-48 -90 -134 -111h-8q-31 7 -49.5 20t-27.5 34.5t-11 56.5zM118 90l1 8q43 77 134 111h9q121 -47 85 -215q-22 -102 -111 -175t-192 -91q-17 19 1 51q77 18 140 71t71 91q5 23 -3 35.5t-18.5 15t-26.5 2.5
q-34 8 -51 16.5t-27 27t-12 52.5z" />
    <glyph glyph-name="less" unicode="&#x3c;" horiz-adv-x="997" 
d="M354 489l599 -237l-22 -102l-737 290l21 99l860 288l-22 -102z" />
    <glyph glyph-name="equal" unicode="=" horiz-adv-x="1079" 
d="M1083 651l-22 -100h-809l22 100h809zM1028 395l-21 -100h-809l21 100h809z" />
    <glyph glyph-name="greater" unicode="&#x3e;" horiz-adv-x="997" 
d="M852 483l-598 238l21 102l737 -291l-21 -98l-860 -289l22 103z" />
    <glyph glyph-name="question" unicode="?" horiz-adv-x="829" 
d="M669 1268q-141 0 -293 -193l-26 2l-4 137l8 9q179 127 351 127q156 0 229 -84.5t43 -225.5q-12 -57 -41 -106.5t-75.5 -90.5t-80 -65t-89.5 -59q-99 -64 -128 -103q-52 -71 -68 -149l-20 -90q-4 -20 -31 -21q-13 0 -18.5 5t-3.5 16l20 94q9 43 19 73.5t31.5 77t61 91.5
t95.5 88q78 60 118 111t54 120q21 100 -22 168t-130 68zM273 90l2 8q43 77 134 111h8q78 -31 87 -111l-1 -8q-48 -90 -135 -110h-8q-46 11 -65.5 35t-21.5 75z" />
    <glyph glyph-name="at" unicode="@" horiz-adv-x="1832" 
d="M1303 647q12 57 -18.5 93t-87.5 36q-21 0 -51 -6.5t-73 -26.5t-77 -49q-169 -139 -217 -362q-40 -188 120 -189q35 0 85.5 35.5t105 96t101.5 135.5q93 146 112 237zM1226 152q-3 -13 4 -19t14 -6q168 0 274.5 97t157.5 339q21 105 13 193t-41.5 157.5t-83.5 121.5
t-112 86.5t-128 51.5t-131 17q-79 0 -160.5 -18.5t-163 -54t-156.5 -94t-138.5 -133.5t-111.5 -177t-73 -219q-21 -99 -22.5 -197t27 -199.5t87 -178.5t169.5 -126t263 -49q128 0 234.5 33.5t206.5 101.5l18 -37q-125 -83 -239 -124.5t-273 -41.5q-239 0 -403 104.5
t-225 281.5t-15 395q46 216 198 399t368 289t443 106q329 0 502 -192.5t112 -480.5q-16 -74 -48.5 -144.5t-91.5 -140.5t-135.5 -121.5t-186.5 -84t-239 -32.5q-40 0 -51 26t-5 58q7 34 58 129l-3 2q-85 -106 -171 -158.5t-146 -52.5q-49 0 -87 13t-59.5 35t-35 48.5
t-17.5 56t-3 54.5t6 47q30 140 130.5 264.5t225 193.5t233.5 69q34 0 63.5 -11t50 -31t25.5 -46l20 49l115 26l28 -10l-235 -528q-52 -121 -56 -137z" />
    <glyph glyph-name="A" unicode="A" horiz-adv-x="1296" 
d="M470 468q-191 -308 -271 -474q-23 6 -90 6q-47 0 -73 -6q508 759 892 1354h57q34 -166 94.5 -483.5t107 -548.5t71.5 -322q-34 6 -121 6q-68 0 -104 -6q-12 183 -59 474q-145 3 -239 3q-117 0 -265 -3zM958 564q-41 236 -100 505h-4q-263 -409 -323 -504q24 0 102 -2
t111 -2q87 0 214 3z" />
    <glyph glyph-name="B" unicode="B" horiz-adv-x="1212" 
d="M630 1145l-81 -385h147q273 0 308 225q12 63 3 107.5t-24.5 72.5t-45.5 44t-60 22t-67 6q-36 0 -62 -2t-44 -3.5t-30.5 -10t-18.5 -11t-11.5 -18t-7 -20.5t-6.5 -27zM529 670l-104 -490q-11 -52 27.5 -74t144.5 -22q61 0 110 6.5t85 18t63.5 29.5t45.5 38t30.5 47.5
t19.5 54t12 60.5q13 70 5 130.5t-33 105t-82.5 70.5t-144.5 26h-179zM580 1321q48 0 124.5 3t109.5 3q92 0 161.5 -14t109 -37.5t66 -55t32.5 -66.5t9 -72.5t-5 -71.5q-11 -93 -90 -167t-178 -106l5 -10q283 -86 250 -350q-10 -79 -43.5 -144.5t-96.5 -121t-169.5 -86.5
t-247.5 -31q-98 0 -180.5 3t-137.5 3l-108 -6l-1 6q50 139 108 410l107 501q56 265 66 410l6 6q34 -6 103 -6z" />
    <glyph glyph-name="C" unicode="C" horiz-adv-x="1331" 
d="M1014 1348q111 0 212.5 -23t147.5 -47l46 -23l3 -6q-8 -19 -23 -51t-20.5 -43.5t-14.5 -35t-16 -45t-16 -52.5l-25 -2q-35 123 -118.5 177t-225.5 54q-67 0 -142 -31.5t-152.5 -94.5t-141.5 -178t-96 -263q-20 -92 -22 -177.5t17 -163t58.5 -134.5t108.5 -91t161 -34
q144 0 244 42t233 161l45 -39q-262 -268 -562 -268q-128 0 -228 38t-159 103.5t-95.5 152t-36.5 183t17 196.5q42 196 167 357t293 249.5t341 88.5z" />
    <glyph glyph-name="D" unicode="D" horiz-adv-x="1396" 
d="M419 168q-4 -25 -4 -40.5t20 -25t60 -13t117 -3.5t140 8t126.5 28t114 56.5t95.5 90.5t78.5 132.5t55 180t25.5 190t-16 176.5t-67.5 150t-138.5 100.5t-219 38.5q-84 0 -125.5 -16t-51.5 -66zM576 1321q64 0 163.5 3t163.5 3q192 0 330.5 -94t194 -254t15.5 -348
q-31 -145 -96 -259t-144 -183t-176.5 -114t-187 -62t-182.5 -17q-114 0 -207 2t-155 2l-108 -6l-1 6q50 139 108 410l107 501q56 265 66 410l5 6q35 -6 104 -6z" />
    <glyph glyph-name="E" unicode="E" horiz-adv-x="1069" 
d="M460 410q-52 -243 -47 -299q122 0 267 6t230 12l85 6l3 -8q-11 -33 -19 -68q0 -2 -8 -59l-6 -6q-48 6 -121 6h-559l-108 -6l-1 6q50 139 108 410l106 501q56 265 67 410l5 6q34 -6 103 -6h539q33 0 66.5 1.5t57.5 4.5l3 -6q-2 -7 -4.5 -16t-4 -14.5t-3.5 -11.5
t-3.5 -11.5t-2.5 -10.5q-4 -20 -7 -53l-6 -8q-278 25 -551 25q-11 -22 -31 -96t-32.5 -127.5t-19.5 -86.5l-35 -168q215 0 461 21l5 -6q-6 -14 -11 -28.5t-8 -29.5q-6 -31 -6 -57l-7 -6q-94 10 -228.5 15t-224.5 5z" />
    <glyph glyph-name="F" unicode="F" horiz-adv-x="976" 
d="M1102 1321q38 0 72 1.5t58 4.5l3 -6q-2 -5 -3.5 -11.5t-3 -11t-3 -9.5t-2.5 -9l-2 -8t-2 -7.5t-1 -7.5q-4 -20 -8 -53l-6 -8q-278 25 -551 25q-11 -22 -31 -96t-32.5 -127.5t-18.5 -86.5l-36 -168q215 0 461 21l5 -6q-6 -14 -11 -28.5t-8 -29.5q-6 -31 -6 -57l-7 -6
q-94 10 -228.5 15t-223.5 5l-53 -247q-56 -265 -67 -410l-5 -6q-4 1 -11.5 2t-34 2.5t-57.5 1.5l-108 -6l-1 6q50 139 108 410l106 501q56 265 67 410l5 6q34 -6 104 -6h532z" />
    <glyph glyph-name="G" unicode="G" horiz-adv-x="1394" 
d="M1128 240q55 282 63 389l5 6q34 -6 103 -6l108 6l1 -6q-50 -137 -95 -348l-3 -13q-15 -73 0 -98l-1 -6q-130 -93 -261.5 -138.5t-302.5 -45.5q-199 0 -334 94t-182 245t-9 330q70 330 297.5 514.5t528.5 184.5q111 0 213 -23t148 -47l46 -23l3 -6q-8 -19 -23.5 -51
t-20.5 -43.5t-14 -35t-16 -45t-16 -52.5l-21 -2q-36 125 -112 178t-215 53q-210 0 -366 -148t-213 -413q-9 -41 -13.5 -83t-4.5 -85t5 -84.5t15 -81t27 -75.5t39 -68t53 -57.5t68 -43.5t84 -28t100 -10q198 0 297 78z" />
    <glyph glyph-name="H" unicode="H" horiz-adv-x="1413" 
d="M1220 911q56 265 66 410l6 6q1 0 3.5 -0.5t12.5 -1.5t20.5 -2t28.5 -1.5t38 -0.5q32 0 59 1.5t38 3.5l11 1v-6q-50 -136 -107 -410l-107 -501q-56 -265 -66 -410l-6 -6q-34 6 -103 6l-108 -6v6q50 139 107 410l53 247h-639l-53 -247q-56 -265 -66 -410l-6 -6
q-4 1 -11.5 2t-34 2.5t-57.5 1.5l-108 -6l-1 6q50 139 108 410l107 501q56 265 66 410l6 6q34 -6 103 -6l108 6v-6q-50 -136 -107 -410l-36 -168h639z" />
    <glyph glyph-name="I" unicode="I" horiz-adv-x="600" 
d="M411 911q56 265 66 410l6 6q34 -6 103 -6q32 0 59 1.5t38 3.5l11 1v-6q-50 -136 -107 -410l-107 -501q-56 -265 -66 -410l-6 -6q-4 1 -11 2t-34 2.5t-58 1.5l-108 -6v6q50 139 107 410z" />
    <glyph glyph-name="J" unicode="J" horiz-adv-x="636" 
d="M325 195l139 716q52 265 60 410l5 6h1t4 -0.5t6.5 -1t9 -1t11.5 -1t14 -1t16.5 -1t19 -0.5h21.5q32 0 59 1.5t38 3.5l11 1l1 -6q-47 -137 -100 -410l-131 -671q-34 -174 -72.5 -251.5t-141.5 -185.5q-151 -156 -355 -155q-63 0 -88 18l-1 6q33 43 90 168l23 2
q25 -72 105 -71q46 0 85 28t64 67.5t47 102.5t34 111t25 115z" />
    <glyph glyph-name="K" unicode="K" horiz-adv-x="1243" 
d="M411 911q56 265 66 410l6 6q34 -6 103 -6l108 6v-6q-50 -136 -107 -410l-44 -206h4q28 0 53 18l82 62q115 90 318 292t255 250q17 -4 42 -5t57 -1h35t34 1.5t37 4.5q-225 -166 -694 -602v-4l451 -727q-38 6 -125 6q-92 0 -129 -6q-53 89 -139 245.5t-150.5 270
t-93.5 149.5q-14 14 -42 15h-2l-56 -264q-56 -265 -66 -410l-6 -6q-4 1 -11 2t-34 2.5t-58 1.5l-108 -6v6q50 139 107 410z" />
    <glyph glyph-name="L" unicode="L" horiz-adv-x="1036" 
d="M474 410q-52 -243 -47 -299q122 0 257 11t210 22l75 12l2 -9q-11 -33 -18 -67q-2 -11 -4.5 -39t-4.5 -41l-5 -6q-48 6 -122 6h-518l-108 -6l-1 6q50 139 108 410l107 501q53 250 64 410l6 6q36 -6 105 -6l108 6v-6q-50 -136 -107 -410z" />
    <glyph glyph-name="M" unicode="M" horiz-adv-x="1705" 
d="M581 1356h53q18 -68 114 -457t165 -599l753 1056h46q-15 -151 -46 -446t-50.5 -506t-33.5 -410q-29 6 -101 6q-70 0 -102 -6q33 250 45 346.5t33.5 282t35.5 335.5q-260 -345 -659 -958h-39q-24 91 -74.5 293.5t-91.5 358.5t-84 303q-9 -28 -53.5 -162.5t-61.5 -186.5
t-53.5 -166.5t-55 -177.5t-40 -140t-32.5 -128q-21 6 -67 6q-55 0 -79 -6q325 878 478 1362z" />
    <glyph glyph-name="N" unicode="N" horiz-adv-x="1331" 
d="M401 911q52 242 66 410l5 6q34 -6 63 -6l50 4l447 -909q65 -131 88 -79q5 10 8 28l96 444q78 361 136 512l5 6q1 0 3 -0.5t8 -1.5t13.5 -2t20 -1.5t26.5 -0.5q20 0 38.5 1.5t26.5 3.5l8 1l1 -6q-116 -226 -178 -512l-164 -766q-14 -63 -56 -63q-52 0 -78 49l-461 903
q-4 8 -11 21q-18 36 -24 42.5t-10 -1t-11 -44.5q-6 -31 -11 -51l-91 -428q-35 -162 -64 -277.5t-56 -193.5l-5 -6q-21 6 -71 6l-73 -6l-1 6q101 193 161 471z" />
    <glyph glyph-name="O" unicode="O" horiz-adv-x="1415" 
d="M943 1257q-77 0 -149.5 -32t-141 -99t-124.5 -184t-89 -272q-30 -147 -19.5 -259.5t56.5 -188t118.5 -114t165.5 -38.5q117 0 214 64.5t169 191.5t110 309q132 622 -310 622zM1472 674q-66 -312 -274 -503t-498 -191q-269 0 -405.5 179t-73.5 476q65 305 280.5 509
t487.5 204q278 0 412.5 -185.5t70.5 -488.5z" />
    <glyph glyph-name="P" unicode="P" horiz-adv-x="1069" 
d="M637 1176l-114 -529q34 -20 137 -20q154 0 246.5 75t118.5 236q29 183 -28 255.5t-177 72.5q-103 0 -137.5 -20t-45.5 -70zM405 911q56 265 66 410l6 6q34 -6 103 -6q32 0 138 7t131 7q91 0 161.5 -18t110.5 -48t68.5 -68t35.5 -78.5t11 -79t-5 -68.5q-11 -70 -50.5 -141
t-107 -136.5t-177.5 -106t-243 -40.5q-87 0 -147 20l-32 -161q-58 -294 -66 -410l-6 -6q-4 1 -11.5 2t-34 2.5t-57.5 1.5l-108 -6l-1 6q50 139 108 410z" />
    <glyph glyph-name="Q" unicode="Q" horiz-adv-x="1435" 
d="M943 1257q-77 0 -149.5 -32t-141 -99t-124.5 -184t-89 -272q-30 -147 -19.5 -259.5t56.5 -188t118.5 -114t165.5 -38.5q117 0 214 64.5t169 191.5t110 309q132 622 -310 622zM1108 101q24 -15 84.5 -56t106 -70.5t119 -67.5t146.5 -65l-3 -12q-25 -12 -49.5 -24t-49 -25
t-46 -24.5t-40.5 -23t-32 -20.5q-80 52 -135.5 100t-114.5 96t-158 108q-18 -6 -37 -11.5t-38.5 -9.5t-39 -7t-39.5 -5t-40.5 -3t-41.5 -1q-269 0 -405.5 179t-73.5 476q65 305 280.5 509t487.5 204q278 0 413 -186t70 -488q-40 -187 -134 -334.5t-230 -238.5z" />
    <glyph glyph-name="R" unicode="R" horiz-adv-x="1185" 
d="M814 1255q-102 0 -135.5 -20t-43.5 -70l-104 -489h88q81 0 139.5 11.5t113 43t91 93.5t56.5 155q9 60 11 104t-13.5 75t-34 50t-49 29.5t-57.5 14t-62 3.5zM512 586l-38 -176q-56 -265 -66 -410l-6 -6q-4 1 -11.5 2t-34 2.5t-57.5 1.5l-108 -6l-1 6q50 139 108 410
l107 501q56 265 66 410l6 6q34 -6 103 -6q32 0 128 7t121 7q122 0 202 -18t133 -80q87 -102 54 -256q-25 -118 -99.5 -201t-175.5 -129q-52 -24 -106 -37q13 -23 64.5 -116.5t83 -148.5t78 -133.5t85 -132t69.5 -83.5l-6 -6q-40 6 -105 6q-92 0 -132 -6q-6 11 -83.5 145
t-119.5 221q-74 151 -127 229q-29 -2 -62 -2.5t-70 -0.5z" />
    <glyph glyph-name="S" unicode="S" horiz-adv-x="993" 
d="M483 68q90 0 187 64t121 177q8 38 8.5 70t-4 56.5t-16.5 45.5t-25.5 36t-35.5 29t-41.5 24t-46.5 22q-32 13 -57.5 25t-57 28t-54 31.5t-49.5 36.5t-42.5 42t-33 48.5t-21 55t-7.5 63t8 71.5q25 116 105.5 199.5t175 119.5t189.5 36q70 0 127 -9.5t88.5 -23t53 -27.5
t28.5 -23l7 -10l3 -6l-15.5 -31t-14.5 -30.5t-14 -31.5t-13.5 -33t-13 -34.5t-12.5 -35.5l-21 -2q-16 68 -42.5 113t-76 73.5t-120.5 28.5q-53 0 -109 -28t-99.5 -78.5t-56.5 -110.5q-9 -27 -4.5 -53.5t8 -46.5t18.5 -40t26.5 -34t32 -28.5t35 -24t35.5 -19.5t34 -15t30 -12
q71 -27 120.5 -55.5t99 -74.5t67 -113t-0.5 -152q-38 -179 -196.5 -290t-343.5 -111q-111 0 -198.5 23t-120.5 46l-32 23l-3 6q57 118 84 201l21 2q15 -63 54.5 -111.5t99 -75t132.5 -26.5z" />
    <glyph glyph-name="T" unicode="T" horiz-adv-x="1105" 
d="M659 911q49 233 45 289q-122 0 -227 -6t-149 -12l-43 -6l-3 8q16 47 30 137l5 6q48 -6 121 -6h791q22 0 44 0.5t43 2t37 3.5l3 -6q-25 -88 -29 -137l-6 -8q-15 3 -45 6.5t-135.5 10.5t-227.5 7q-29 -57 -78 -289l-107 -501q-56 -265 -66 -410l-6 -6q-34 6 -103 6h-23
t-20 -0.5t-17 -1t-14.5 -1t-12 -1t-9.5 -1t-6.5 -1t-3.5 -0.5h-2l-1 6q50 139 108 410z" />
    <glyph glyph-name="U" unicode="U" horiz-adv-x="1333" 
d="M1240 911q56 265 67 410l5 6q1 0 2.5 -0.5t8 -1.5t14 -2t20 -1.5t26.5 -0.5q20 0 38 1.5t26 3.5l9 1v-6q-50 -136 -107 -410l-66 -307q-31 -146 -76 -253t-119.5 -194.5t-188 -132t-266.5 -44.5q-50 0 -96.5 8t-97.5 29t-86 57.5t-63 92.5t-28.5 134t17.5 182l91 428
q56 265 66 410l6 6q34 -6 103 -6l108 6l1 -6q-50 -136 -108 -410l-77 -360q-1 -4 -3 -15q-9 -40 -13.5 -65t-9.5 -77.5t-1.5 -88.5t18 -81t42.5 -73t78 -47.5t118 -19.5q100 0 177 30t123.5 72.5t82 113.5t52 127.5t34.5 139.5z" />
    <glyph glyph-name="V" unicode="V" horiz-adv-x="1230" 
d="M721 271q290 450 581 1056q5 -1 12 -2t14 -1.5t16.5 -1t16.5 -1t16.5 -0.5h14h11.5h24t23 1.5t26 4.5q-164 -245 -432 -696t-397 -651h-57q-34 162 -95.5 480.5t-107.5 547t-72 319.5q34 -6 121 -6q78 0 114 6q32 -442 167 -1056h4z" />
    <glyph glyph-name="W" unicode="W" horiz-adv-x="1849" 
d="M1360 281q77 120 156 259t162 303.5t122.5 246t113.5 237.5q5 -1 12 -2t14.5 -1.5t16.5 -1t16 -1t16.5 -0.5h14h11.5h26t26 1.5t27 4.5q-129 -192 -267.5 -430.5t-280 -485.5t-260.5 -431h-57q-40 195 -130 704l-448 -704h-57q-34 162 -95.5 480.5t-107.5 547t-72 319.5
q34 -6 122 -6q74 0 109 6q35 -472 169 -1075h4q68 105 350 577q-34 190 -57.5 312.5t-41.5 185.5q34 -6 122 -6h40t39 1.5t41 4.5q0 -1 3 -72.5t10 -151.5t20.5 -201.5t41 -283.5t65.5 -337h4z" />
    <glyph glyph-name="X" unicode="X" horiz-adv-x="1169" 
d="M1133 -6q-36 6 -117.5 6t-119.5 -6q-101 328 -200 585q-269 -308 -478 -585q-21 6 -84.5 6t-87.5 -6q330 372 611 683q-99 247 -277 650q34 -6 114 -6t118 6q23 -85 64.5 -198t117.5 -301q161 178 236 267.5t182 231.5q10 -3 27.5 -4.5t29 -1.5h28.5h28t29.5 1.5
t29.5 4.5q-35 -37 -131.5 -139t-206.5 -220.5t-214 -234.5q25 -61 79 -192.5t110 -269.5t112 -277z" />
    <glyph glyph-name="Y" unicode="Y" horiz-adv-x="1210" 
d="M809 585q-92 -451 -110 -591q-32 6 -105 6h-25.5t-25 -0.5t-29.5 -2t-26 -3.5q41 131 135 569q-40 108 -154.5 392.5t-153.5 371.5q34 -6 115.5 -6t117.5 6q22 -76 52 -162t52.5 -147t61.5 -163.5t59 -157.5q299 352 492 630q6 -1 12.5 -2.5t14.5 -2t14 -1t15.5 -0.5
h14.5h14h28.5t28 1.5t30.5 4.5q-72 -83 -176.5 -202.5t-155.5 -178.5t-114.5 -134t-105.5 -127t-76 -100z" />
    <glyph glyph-name="Z" unicode="Z" horiz-adv-x="1236" 
d="M407 111q43 0 97 0.5t109.5 2t115 3t115 3.5t107.5 4t95 3.5t75.5 3t50.5 1.5l17 1l3 -6q-11 -33 -18 -68q0 -2 -9 -59l-5 -6q-48 6 -144 6h-744l-216 -6l-4 8q5 5 9.5 10t8.5 9.5t8.5 9.5t8.5 9.5t8 8.5t7.5 8t6.5 8t6.5 7t5.5 6l991 1108q6 7 8 12.5t-1 8.5t-8 3
q-112 0 -225 -3.5t-262 -9.5t-249 -9l-2 6q11 33 18 68q0 2 9 59l5 6q48 -6 124 -6h663q166 0 261 12q12 0 9 -12q-4 -21 -85 -111l-952 -1063q-13 -14 -18 -36z" />
    <glyph glyph-name="bracketleft" unicode="[" horiz-adv-x="739" 
d="M142 -393l389 1833h441l-13 -62q-75 -5 -122.5 -11t-86.5 -18.5t-59.5 -25.5t-37.5 -40.5t-25.5 -55.5t-18.5 -78l-266 -1251q-11 -50 -14.5 -78t1.5 -56t20 -41t48 -26t78.5 -19t118.5 -12l-13 -59h-440z" />
    <glyph glyph-name="backslash" unicode="\" horiz-adv-x="598" 
d="M427 1430l146 -1528h-100l-147 1528h101z" />
    <glyph glyph-name="bracketright" unicode="]" horiz-adv-x="739" 
d="M820 1440l-390 -1833h-440l13 61q90 6 143 15.5t91.5 22t59 41t32 60t24.5 91.5l266 1251q11 50 14.5 78t-1.5 55.5t-20 41t-48 26t-78.5 18.5t-118.5 12l13 60h440z" />
    <glyph glyph-name="asciicircum" unicode="^" horiz-adv-x="1060" 
d="M788 1214l-316 -505h-92l393 622h86l125 -622h-92z" />
    <glyph glyph-name="underscore" unicode="_" horiz-adv-x="995" 
d="M939 -225l-19 -90h-977l19 90h977z" />
    <glyph glyph-name="grave" unicode="`" horiz-adv-x="802" 
d="M669 1432l88 -258q7 -25 2 -50q-2 -8 -12.5 -15t-22.5 -7q-16 0 -51 41l-186 223l9 23q73 47 143 47q14 0 30 -4z" />
    <glyph glyph-name="a" unicode="a" horiz-adv-x="970" 
d="M723 449q23 57 41 142t24 141l7 56q-51 20 -127 21q-88 0 -178.5 -89t-144.5 -214t-54 -234q0 -174 96 -174q51 0 156.5 109t179.5 242zM836 283q-16 -70 -17 -131q0 -66 60 -66q45 0 98 14l4 -6v-53q-121 -61 -195 -61q-53 0 -90 26.5t-37 81.5q0 39 15 96l26 107l-4 4
q-111 -166 -188.5 -240.5t-175.5 -74.5q-117 0 -163 76.5t-46 183.5q0 152 94 308.5t220 250.5t225 94q109 0 163 -6q23 -4 86.5 1t69.5 5z" />
    <glyph glyph-name="b" unicode="b" horiz-adv-x="1005" 
d="M357 166q57 -96 143 -96q152 0 255 141.5t103 347.5q0 105 -49 167t-127 62q-109 0 -211 -86zM539 1024l-50 -238q67 59 126 86t131 27q121 0 207.5 -84.5t86.5 -223.5q0 -108 -36.5 -207t-95.5 -171t-131.5 -126t-146 -80.5t-137.5 -26.5q-116 0 -203 92
q-37 -56 -99 -95q-39 0 -61 23q3 4 11.5 19t11 20t9 19t10 24.5t8 27t9.5 35.5l179 842q62 290 65 397l5 7q104 8 190 39q18 0 13 -21q-55 -163 -102 -385z" />
    <glyph glyph-name="c" unicode="c" horiz-adv-x="808" 
d="M643 817q-55 0 -107.5 -35.5t-94.5 -101.5t-72 -162t-30 -192q0 -116 51 -180t134 -64q113 0 217 86h7l26 -43q-133 -145 -301 -145q-142 0 -229 91t-87 247q0 243 168 418q74 77 164 120t175 43q145 0 231 -57l4 -6l-80 -168l-22 -2q-48 151 -154 151z" />
    <glyph glyph-name="d" unicode="d" horiz-adv-x="1011" 
d="M749 236l95 450q-27 64 -64 94.5t-105 30.5q-134 0 -222 -113q-21 -27 -41.5 -69t-38 -93t-28.5 -110.5t-11 -113.5q0 -112 48.5 -167t131.5 -55q24 0 50.5 9.5t56 28t61 45t67.5 63.5zM726 131q-150 -152 -288 -151q-124 0 -206 91.5t-82 236.5q0 144 62.5 263
t162.5 202q73 61 160.5 93.5t181.5 32.5q33 0 83 -13t80 -32l28 133q62 290 66 397l5 7q96 7 183 39q18 0 14 -21q-44 -138 -96 -385l-134 -631q-50 -238 -51 -342q0 -14 1 -27t3 -24l-5 -6q-39 6 -90 6q-18 0 -68 -6q-14 0 -13 6q3 79 9 131h-6z" />
    <glyph glyph-name="e" unicode="e" horiz-adv-x="874" 
d="M756 745q0 81 -102 80q-215 0 -299 -329q401 17 401 249zM345 425q-2 -18 -4 -45.5t-2 -39.5q0 -87 24 -148t62 -87.5t85 -26.5q73 0 163.5 59.5t134.5 136.5l12 -2q1 -8 3.5 -24t4.5 -29.5t5.5 -28t6.5 -22.5q-61 -86 -169.5 -137t-236.5 -51q-83 0 -147 43.5t-96.5 114
t-32.5 154.5q0 79 21 162.5t66.5 163.5t108 142.5t153 100.5t194.5 38q107 0 157.5 -43t50.5 -114q0 -32 -7 -62t-40.5 -76.5t-89.5 -81t-166.5 -63t-260.5 -34.5z" />
    <glyph glyph-name="f" unicode="f" horiz-adv-x="651" 
d="M301 483l65 305h-143q-10 0 -8 13l8 37q9 41 56 41h106l22 82q29 110 65.5 170.5t113.5 142.5q147 156 349 156q27 0 57.5 -10t42.5 -19l1 -6q-36 -46 -89 -158l-23 -2q-10 31 -43 51.5t-77 20.5q-83 0 -137 -60t-74 -151q-4 -17 -14.5 -81t-18.5 -104l-7 -32h230
q8 0 11.5 -3.5t1.5 -9.5l-10 -51q-3 -13 -20 -20t-33 -7h-199l-144 -651q-30 -133 -89 -257t-122 -197q-133 -156 -309 -156q-24 0 -53.5 10t-40.5 19v6q41 58 83 157l21 2q10 -33 37.5 -55t65.5 -22q60 0 102.5 56.5t78.5 160.5q17 49 38.5 144.5t52 248t46.5 229.5z" />
    <glyph glyph-name="g" unicode="g" horiz-adv-x="937" 
d="M305 -10q-80 -57 -94 -76q-59 -72 -59 -162q0 -74 72.5 -112.5t137.5 -38.5q260 0 357 59q49 31 49 92q0 82 -68 127q-102 68 -356 109h-19.5t-19.5 2zM565 283q-123 0 -172 47q-98 -74 -98 -127q0 -61 129 -92q16 -4 85 -18.5t96.5 -22t76.5 -20.5t81 -27.5t54 -30.5
q86 -59 86 -187q0 -143 -135 -219q-133 -74 -453 -73q-127 0 -220 49t-93 131q0 123 80 215q41 47 143 104q-63 39 -63 131q0 68 50 125.5t126 93.5q-90 80 -90 220q0 143 106.5 230t251.5 87q33 0 94.5 -8t77.5 -8q57 0 95 24.5t38 75.5q0 29 -22 53l2 8q43 14 47 17
q37 18 51 31l8 -2q33 -49 33 -119q0 -57 -40 -96t-105 -39h-43l-6 -5q92 -92 92 -208q0 -158 -108 -249t-255 -91zM768 610q0 94 -47 151.5t-129 57.5q-88 0 -136 -67.5t-48 -161.5q0 -92 46 -160t130 -68q72 0 128 66.5t56 181.5z" />
    <glyph glyph-name="h" unicode="h" horiz-adv-x="1052" 
d="M799 369l46 215q21 81 12 125t-36 58.5t-87 14.5q-93 0 -278 -149l-56 -264q-49 -232 -58 -369l-5 -6q-3 1 -9.5 2t-31.5 2.5t-56 1.5l-102 -6l-1 6q20 53 37 112t31 116.5t31 140.5l131 616q62 293 66 399l5 7q96 7 183 39q19 0 14 -21q-49 -165 -96 -383l-61 -289
q196 162 373 162q225 0 157 -317l-45 -213q-27 -126 -40 -206t-18 -163l-5 -6q-27 6 -97 6l-102 -6l-1 6q48 130 99 369z" />
    <glyph glyph-name="i" unicode="i" horiz-adv-x="548" 
d="M295 481q55 261 58 371l5 6q98 7 189 41q19 0 15 -20q-49 -146 -96 -365l-31 -145q-47 -223 -58 -369l-5 -6q-3 1 -10 2t-32 2.5t-56 1.5l-101 -6l-1 6q50 139 99 369zM422 1229q0 41 31.5 72.5t72.5 31.5t73 -31.5t32 -72.5t-32 -73t-73 -32t-72.5 32t-31.5 73z" />
    <glyph glyph-name="j" unicode="j" horiz-adv-x="577" 
d="M208 -129q2 8 8 44.5t20 109.5t35 172l61 284q53 252 56 361l5 6q20 1 40 4.5t34 6.5t34 9.5t28.5 9.5t29.5 11t27 10q19 0 14 -20q-54 -156 -97 -365l-111 -518q-12 -58 -23.5 -95.5t-28.5 -71.5t-38 -60.5t-55 -63.5q-135 -141 -303 -141q-58 0 -82 16l-1 6
q16 21 36 77.5t29 74.5l21 2q8 -25 13 -35t21 -20.5t42 -10.5q143 0 185 197zM449 1229q0 41 31.5 72.5t72.5 31.5t72.5 -31.5t31.5 -72.5t-31.5 -73t-72.5 -32t-72.5 32t-31.5 73z" />
    <glyph glyph-name="k" unicode="k" horiz-adv-x="946" 
d="M426 492q22 3 45 10t41 20q63 45 171 150.5t191 206.5q158 0 195 6l2 -6q-66 -51 -148.5 -124t-177 -162t-110.5 -106q160 -285 297 -487l-4 -6q-25 6 -113 6q-82 0 -127 -6q-27 59 -57.5 129t-46 104.5t-41 82.5t-60.5 98q-16 19 -70 22l-13 -61q-49 -233 -58 -369
l-5 -6q-3 1 -9.5 2t-31.5 2.5t-56 1.5l-102 -6l-1 6q20 53 37 112t31 116.5t31 140.5l131 616q62 293 66 399l5 7q96 7 183 39q19 0 14 -21q-49 -164 -96 -383z" />
    <glyph glyph-name="l" unicode="l" horiz-adv-x="534" 
d="M360 168q0 -18 2.5 -31.5t9.5 -23t12 -15.5t17.5 -9t19.5 -4t25.5 1t26.5 3t30.5 5t33.5 6l4 -6v-53q-102 -61 -228 -61q-61 0 -94 37.5t-33 107.5q0 21 41 219l133 643q63 305 66 397l6 7q96 6 182 39q16 0 15 -21q-45 -147 -97 -385l-147 -700q-25 -117 -25 -156z" />
    <glyph glyph-name="m" unicode="m" horiz-adv-x="1540" 
d="M938 369q-51 -240 -59 -369l-5 -6q-37 6 -98 6l-100 -6v6q41 113 96 369l43 200q25 125 5.5 166t-93.5 41q-111 0 -276 -168l-52 -239q-51 -240 -59 -369l-6 -6q-33 6 -96 6l-101 -6l-2 6q49 141 98 369l23 112q49 233 29 365l4 6q84 8 168 43h8t5 -2t3 -6v-13
q4 -66 -4 -153l4 -6q180 184 334 184q172 0 192 -158q103 88 180 123t161 35q64 0 106 -17.5t61.5 -44t24 -72t-0.5 -87.5t-19 -105l-43 -204q-49 -232 -58 -369l-5 -6q-27 6 -97 6l-102 -6l-1 6q48 130 99 369l49 229q22 102 -3.5 142t-109.5 40q-13 0 -25 -1t-23.5 -3.5
t-23.5 -7t-23.5 -10.5t-24.5 -14t-26.5 -17t-29 -21.5t-31.5 -26t-35 -30.5q-2 -17 -5 -35.5t-7 -38.5q-8 -33 -24.5 -103t-24.5 -103zM996 739l-2 -2z" />
    <glyph glyph-name="n" unicode="n" horiz-adv-x="1032" 
d="M965 369q-51 -240 -60 -369l-4 -6q-37 6 -98 6l-101 -6v6q41 113 97 369l43 200q25 125 5 166t-93 41q-55 0 -137 -41t-166 -127l-52 -239q-51 -240 -59 -369l-6 -6q-33 6 -96 6l-101 -6l-2 6q49 141 98 369l23 112q49 233 29 365l4 6q84 8 168 43h8t5 -2t3 -6v-13
q4 -66 -4 -153l4 -6q180 184 361 184q248 0 180 -324q-8 -33 -25.5 -103t-23.5 -103z" />
    <glyph glyph-name="o" unicode="o" horiz-adv-x="1003" 
d="M299 709q74 86 177.5 138t220.5 52q91 0 158.5 -27.5t106 -76t56.5 -107t18 -126.5q0 -140 -67.5 -276t-180.5 -218q-121 -88 -291 -88q-166 0 -255.5 96t-89.5 243q0 221 147 390zM669 815q-111 0 -196 -102.5t-116 -245.5q-15 -70 -15 -139q0 -265 192 -265
q116 0 200 107q119 150 119 409q0 236 -184 236z" />
    <glyph glyph-name="p" unicode="p" horiz-adv-x="1036" 
d="M449 616l-98 -458q56 -88 151 -88q176 0 270 159q87 148 87 330q0 109 -45.5 170.5t-120.5 61.5q-55 0 -125 -48.5t-119 -126.5zM256 481q34 158 34 269q0 51 -7 96l4 6q84 8 168 43h8t4 -2t3 -6t1 -13q1 -18 1 -45q0 -50 -4 -93l8 1q141 162 289 162q125 0 205 -95
t80 -232q0 -145 -68 -270t-169 -207q-143 -116 -318 -115q-99 0 -172 45l-19 -91q-28 -132 -45 -230t-22 -179l-6 -6q-1 0 -3 0.5t-10.5 1.5t-18.5 2t-27.5 1.5t-36.5 0.5q-12 0 -23 -0.5t-19.5 -0.5t-16 -0.5t-13.5 -1t-11 -1t-8.5 -1t-6 -1t-3.5 -0.5h-1l-1 6
q48 129 108 409z" />
    <glyph glyph-name="q" unicode="q" horiz-adv-x="999" 
d="M840 668q-28 72 -70 108.5t-104 36.5q-137 0 -222 -127q-42 -63 -71.5 -164.5t-29.5 -197.5q0 -132 64 -189t153 -57q74 0 167 61zM684 -66l24 113q-95 -67 -221 -67q-234 0 -308 193q-25 69 -26 148q0 244 189 428q155 151 351 150q153 0 236 -90l44 57q29 39 55 39
q19 0 19 -24q0 -11 -3 -27l-196 -920q-58 -272 -66 -409l-6 -6q-27 6 -97 6l-101 -6l-1 6q47 128 107 409z" />
    <glyph glyph-name="r" unicode="r" horiz-adv-x="710" 
d="M480 725h4q59 67 142.5 120.5t150.5 53.5q35 0 81 -14l6 -8l-73 -162l-17 -4q-31 29 -113 28q-73 0 -135 -47q-16 -13 -29.5 -30.5t-23.5 -36.5t-17 -40l-46 -216q-49 -233 -60 -369l-6 -6q-33 6 -96 6l-101 -6l-2 6q49 141 99 369l22 112q49 233 29 365l4 6q84 8 168 43
h8t5 -2t3 -6v-13q6 -64 -3 -149z" />
    <glyph glyph-name="s" unicode="s" horiz-adv-x="749" 
d="M128 197l29 2q13 -42 47.5 -74.5t77 -48t84.5 -15.5q74 0 127 41t53 120q0 91 -134 175q-60 37 -99.5 70.5t-59.5 75.5q-17 32 -16 78q0 75 32 131.5t85.5 87t112 45t119.5 14.5q114 0 218 -65l3 -7l-58 -137l-27 -2q-13 51 -56 90t-112 39q-68 0 -113.5 -32.5
t-45.5 -94.5q0 -70 40.5 -115.5t118.5 -85.5q155 -79 155 -223q0 -61 -25 -113.5t-70.5 -91t-113 -60t-148.5 -21.5q-144 0 -281 55z" />
    <glyph glyph-name="t" unicode="t" horiz-adv-x="618" 
d="M367 879q9 42 25 125t28 129l5 6q30 2 53.5 7t35.5 9.5t33.5 14t35.5 14.5q18 0 14 -21q-38 -132 -70 -284h221q8 0 11.5 -3.5t2.5 -9.5l-11 -51q-6 -27 -55 -27h-189l-62 -292q-15 -69 -35.5 -156.5t-24.5 -110.5q-29 -137 40 -137q89 0 148 30l14 -56
q-36 -27 -82.5 -47t-93 -29.5t-90.5 -9.5q-68 0 -97.5 52.5t-15.5 129.5q6 34 32.5 146.5t38.5 164.5l69 315h-131q-8 0 -7 9l16 73q2 8 8 9h133z" />
    <glyph glyph-name="u" unicode="u" horiz-adv-x="1052" 
d="M739 131q-174 -152 -326 -151q-68 0 -113 24t-62 63.5t-21 89.5t10 101l53 252q28 130 41 208.5t17 160.5l6 6q28 -6 97 -6l101 6l1 -6q-47 -121 -99 -369l-43 -203q-23 -89 -13.5 -136.5t34.5 -63t79 -15.5q101 0 261 152l57 266q51 239 58 369l5 6q28 -6 97 -6l102 6
l1 -6q-47 -121 -99 -369l-25 -117q-23 -106 -35 -211.5t-14 -181.5l-5 -6q-39 6 -90 6q-22 0 -72 -6q-18 0 -17 6l18 131h-4z" />
    <glyph glyph-name="v" unicode="v" horiz-adv-x="847" 
d="M360 -6q-78 604 -135 891q29 -6 117 -6q68 0 92 6q2 -28 9 -131.5t10.5 -147.5t10.5 -125t16 -147t21 -132q54 88 114.5 203.5t132 258.5t112.5 221q14 -6 62 -6q61 0 79 6q-358 -592 -518 -891q-14 6 -51 6q-52 0 -72 -6z" />
    <glyph glyph-name="w" unicode="w" horiz-adv-x="1359" 
d="M365 -8q-72 543 -140 891q29 -6 115 -6q68 0 92 6q33 -479 74 -701h10q90 142 249 441q-13 138 -24 262q29 -6 111 -6q70 0 94 6q-8 -385 33 -701h14q188 319 377 701q14 -6 62 -6q61 0 79 6q-184 -295 -532 -891q-14 6 -66 6q-61 0 -82 -6q-28 237 -52 484
q-104 -178 -267 -486q-14 6 -63 6q-64 0 -84 -6z" />
    <glyph glyph-name="x" unicode="x" horiz-adv-x="931" 
d="M468 424l-251 461q32 -6 117 -6q76 0 112 6q55 -139 157 -335q222 225 320 335q21 -6 75 -6q70 0 93 6l-444 -413q88 -185 253 -478q-29 6 -103 6q-86 0 -118 -6q-41 96 -165 344q-243 -263 -315 -344q-19 6 -88 6q-53 0 -75 -6z" />
    <glyph glyph-name="y" unicode="y" horiz-adv-x="995" 
d="M225 885q27 -6 105 -6q74 0 102 6q24 -207 124 -706h4q199 292 419 706q19 -6 78 -6q68 0 89 6q-126 -180 -462.5 -692.5t-422.5 -677.5q-32 10 -98 10q-38 0 -74 -10q179 221 324 446q-15 91 -52.5 281t-75.5 370t-60 273z" />
    <glyph glyph-name="z" unicode="z" horiz-adv-x="851" 
d="M300 102q111 1 240 6.5t203 11.5l74 5l3 -6q-11 -33 -18 -64q-2 -8 -3 -15.5t-2 -18.5t-2 -21l-6 -6q-45 6 -113 6h-463q-58 0 -167 -6l-4 9q16 15 58 63l632 710q-235 -3 -471 -22l-3 6q11 32 17 63q2 8 3 15.5t2.5 19t2.5 21.5l5 6q45 -6 114 -6h418q20 0 49.5 2t53 4
t43 4t22.5 2q6 0 7.5 -3t0.5 -9q-17 -16 -80 -86z" />
    <glyph glyph-name="braceleft" unicode="{" horiz-adv-x="569" 
d="M611 1151l-76 -360q-29 -138 -68 -195t-122 -90q76 -36 86 -109.5t-23 -201.5l-69 -326q-25 -111 -1.5 -184.5t89.5 -73.5l-9 -45q-82 2 -130.5 16.5t-80 52t-30.5 101.5t19 164l74 348q44 206 -96 241l6 31q85 23 132.5 87t65.5 151l80 377q37 173 118.5 240.5
t241.5 72.5l-10 -45q-74 -20 -122 -72.5t-75 -179.5z" />
    <glyph glyph-name="bar" unicode="|" horiz-adv-x="430" 
d="M165 -475h-100l405 1905h100z" />
    <glyph glyph-name="braceright" unicode="}" horiz-adv-x="569" 
d="M173 -139l77 360q29 138 67.5 195t121.5 90q-76 36 -86 109.5t23 201.5l70 326q25 111 1 184.5t-90 73.5l10 45q82 -2 130.5 -16.5t79.5 -52t30 -101.5t-18 -164l-74 -348q-44 -206 96 -242l-7 -30q-58 -16 -100 -54.5t-64 -83t-34 -100.5l-80 -377q-37 -173 -118 -240.5
t-241 -72.5l9 45q74 20 122 72.5t75 179.5z" />
    <glyph glyph-name="asciitilde" unicode="~" horiz-adv-x="919" 
d="M144 428q43 104 135 183t183 79q22 0 48.5 -11t41.5 -21t48 -33q91 -68 135 -68q53 0 120 34t112 103l32 -12q-38 -77 -84.5 -130t-89 -76t-71.5 -31.5t-53 -8.5q-58 0 -139 68q-41 32 -72 48.5t-66 16.5q-22 0 -47.5 -6.5t-54 -19.5t-55.5 -30.5t-52.5 -41t-44.5 -49.5z
" />
    <glyph glyph-name="uni00A0" unicode="&#xa0;" horiz-adv-x="512" 
 />
    <glyph glyph-name="exclamdown" unicode="&#xa1;" horiz-adv-x="466" 
d="M136 -469q-46 0 -72 39t-11 111q16 75 66.5 203.5t70.5 191.5q32 97 58 183.5t38.5 133.5t15.5 56q12 41 38 40q24 0 22 -26q-2 -13 -11 -78.5t-20.5 -152t-19.5 -156.5q-8 -71 -12 -193.5t-21 -201.5q-11 -52 -37.5 -87.5t-53 -49t-51.5 -13.5zM518 788l-2 -8
q-43 -77 -134 -110h-8q-78 31 -87 110l1 8q48 90 135 111h8q31 -7 49 -20t27 -34.5t11 -56.5z" />
    <glyph glyph-name="cent" unicode="&#xa2;" horiz-adv-x="901" 
d="M712 1184h70l-40 -187q11 0 17 1q133 0 234 -59l3 -6l-75 -151l-24 -2q-50 135 -158 135q-5 0 -14 -1l-137 -642q4 -1 8.5 -1.5t8.5 -0.5h8.5h8.5q123 0 228 116h7l31 -30q-62 -89 -148.5 -136.5t-173.5 -49.5l-41 -195h-70l43 199q-144 21 -211.5 129t-33.5 269
q34 160 154.5 272t263.5 144zM523 293l129 606q-81 -29 -145.5 -102.5t-87.5 -184.5q-25 -116 5 -199t99 -120z" />
    <glyph glyph-name="sterling" unicode="&#xa3;" horiz-adv-x="901" 
d="M595 795l-29 -138h241q15 0 12 -12l-9 -43q-5 -25 -52 -24h-209q-60 -271 -227 -402h10q75 0 125.5 -14t71 -31t52.5 -31t74 -14q139 0 219 84l30 -20q-53 -78 -133.5 -124t-172.5 -46q-58 0 -100 17.5t-63 39t-61.5 39.5t-97.5 18q-82 0 -92 -47q-7 -32 -32.5 -49.5
t-59.5 -17.5q-27 0 -41 15t-9 38q9 43 119 96q92 58 142.5 161.5t82.5 254.5l7 33h-123q-12 0 -9 12l5 26q3 15 17.5 28t38.5 13h88l8 39q26 121 68.5 190t133.5 144q166 137 372 137q53 0 78 -16l1 -6q-34 -42 -83 -148l-21 -2q-24 63 -91 64q-52 0 -111.5 -36.5
t-107.5 -98.5t-62 -129z" />
    <glyph glyph-name="currency" unicode="&#xa4;" horiz-adv-x="901" 
d="M335 592q-16 -75 -0.5 -137.5t63 -100t118.5 -37.5q105 0 188.5 80t106.5 193q24 114 -27.5 193t-147.5 79q-52 0 -103 -22t-90.5 -58.5t-67.5 -86t-40 -103.5zM498 231q-123 0 -206 74l-111 -108l-67 82l130 88q-60 95 -33 223q28 133 128 225l-89 84l94 82l72 -104
q114 72 234 71q126 0 207 -76l118 113l62 -84l-131 -90q58 -93 30 -221q-26 -121 -122 -219l87 -90l-90 -78l-72 104q-116 -76 -241 -76z" />
    <glyph glyph-name="yen" unicode="&#xa5;" horiz-adv-x="901" 
d="M196 469q-7 0 -8.5 2.5t0.5 9.5l6 29q1 7 5 13.5t10.5 13t16.5 10.5t22 4h205q-21 64 -96 314.5t-99 312.5q29 -6 104 -7q72 0 103 7q59 -340 138 -560q25 30 50.5 63t47.5 63t47 67t44.5 67t45.5 71.5t45 72.5t47.5 77t48.5 79q19 -6 75 -7q16 0 25.5 0.5t25 2t26.5 4.5
q-210 -268 -473 -627h264q14 0 12 -12l-10 -43q-1 -5 -4.5 -10t-9 -8t-12.5 -5t-13.5 -3t-12.5 -1h-247q-2 -9 -4 -20.5t-4 -21.5t-4.5 -21.5t-4.5 -22t-4.5 -22t-4.5 -21.5h278q14 0 12 -12l-9 -41q-2 -9 -11 -15.5t-20 -9t-22 -2.5h-243q-17 -91 -29.5 -161t-17.5 -105
q-27 6 -93 6h-30.5t-30 -1.5t-32.5 -4.5q13 41 30 109.5t37 156.5h-266q-7 0 -8.5 2.5t0.5 9.5l6 27q1 7 4.5 13.5t10 13t16.5 10.5t22 4h233q5 23 28 129h-268z" />
    <glyph glyph-name="brokenbar" unicode="&#xa6;" horiz-adv-x="419" 
d="M558 1380l-158 -741h-98l157 741h99zM334 330l-157 -742h-99l158 742h98z" />
    <glyph glyph-name="section" unicode="&#xa7;" horiz-adv-x="989" 
d="M471 793q-100 -82 -119 -168q-11 -50 2 -96.5t34.5 -78t67.5 -67.5t75.5 -54t85.5 -49l13.5 -7.5t11.5 -7t13 -7.5q43 -25 75 -55q100 82 119 168q11 50 -2 96.5t-34.5 78t-68 67.5t-76 54t-84.5 49q-26 15 -38 21q-43 26 -75 56zM434 834q-70 95 -43 223
q23 109 136.5 200t258.5 91q50 0 91 -11.5t76.5 -38t48 -38t41.5 -41.5l4 -11l-66 -149l-30 -4q-36 98 -80.5 154.5t-120.5 56.5q-73 0 -133.5 -47.5t-76.5 -120.5q-29 -135 121 -203q32 -14 59.5 -28t62.5 -35t60.5 -42t55 -49.5t45.5 -58t31.5 -67.5t14 -78t-7.5 -88
q-37 -173 -215 -288q70 -95 43 -222q-15 -69 -68.5 -135t-141.5 -111t-185 -45q-40 0 -78 10t-60 20t-51.5 34.5t-36.5 31.5t-32 33l-4 10l67 150l29 4q36 -98 81 -154.5t120 -56.5q73 0 134 47.5t76 120.5q29 135 -121 202q-32 14 -59 28.5t-62 35t-61 41.5t-55 49.5
t-45 58t-32 67.5t-14.5 78t8.5 89q37 172 215 287z" />
    <glyph glyph-name="dieresis" unicode="&#xa8;" horiz-adv-x="768" 
d="M361 1177.5q8 38.5 42 66.5t72.5 28t60 -28t13.5 -66.5t-42 -66.5t-72 -28t-60 28t-14 66.5zM688.5 1177.5q8.5 38.5 42 66.5t72 28t60.5 -28t14 -66.5t-42 -66.5t-72.5 -28t-60.5 28t-13.5 66.5z" />
    <glyph glyph-name="copyright" unicode="&#xa9;" horiz-adv-x="1296" 
d="M993 442q-46 -54 -118.5 -92.5t-150.5 -38.5q-135 0 -208 91t-47 214q18 85 76.5 158.5t142.5 117.5t172 44q82 0 130 -15.5t67 -15.5l-6 -160l-42 -8q-6 38 -16.5 64t-29 47t-48.5 31t-73 10q-76 0 -144.5 -58t-97.5 -194q-25 -117 14.5 -191.5t140.5 -74.5
q114 0 206 102zM659 47q-158 0 -275 78t-165.5 211.5t-15.5 290.5q51 240 257 408.5t445.5 168.5t372.5 -169t82 -408.5t-256.5 -409.5t-444.5 -170zM892 1141q-215 0 -397.5 -150.5t-228.5 -363.5q-45 -212 74 -363t333 -151q212 0 395 150.5t228 363.5q25 107 2.5 200.5
t-75.5 163t-139.5 110t-191.5 40.5z" />
    <glyph glyph-name="ordfeminine" unicode="&#xaa;" horiz-adv-x="608" 
d="M604 1028q-69 -17 -115.5 -32.5t-76 -33t-43.5 -36.5t-20 -43q-8 -36 9 -60t66 -24q55 0 145 67zM629 733q-24 0 -40.5 12.5t-23 30t-5.5 37.5q-63 -47 -102 -63.5t-89 -16.5q-66 0 -103.5 39.5t-23.5 104.5q26 123 248 176l125 30q22 102 -2.5 136t-71.5 34
q-50 0 -83.5 -15t-39.5 -40q-4 -18 -1.5 -26.5t-0.5 -24.5q-1 -7 -6 -14t-12 -13.5t-19 -11t-26 -4.5q-23 0 -35 14t-7 37q8 39 51 74.5t96.5 55.5t97.5 20q42 0 74.5 -9.5t62.5 -35.5t36 -71.5t-6 -117.5l-32 -153q-25 -117 3 -117q15 0 27 10l14 -33q-50 -45 -106 -45z
" />
    <glyph glyph-name="guillemotleft" unicode="&#xab;" horiz-adv-x="1097" 
d="M354 440q94 -117 195 -344l-70 -49q-143 231 -260 344q-23 23 -35 33l6 33l50 32q176 123 407 345l47 -50q-207 -238 -340 -344zM688 440q94 -117 195 -344l-68 -49q-143 231 -260 344q-23 23 -35 33l6 33l49 32q176 123 408 345l45 -50q-207 -238 -340 -344z" />
    <glyph glyph-name="logicalnot" unicode="&#xac;" horiz-adv-x="1146" 
d="M1047 272l98 459h-940l19 90h1050l-116 -549h-111z" />
    <glyph glyph-name="uni00AD" unicode="&#xad;" horiz-adv-x="681" 
d="M664 483h-463q-13 0 -19.5 10.5t-3.5 24.5q5 25 27 50.5t40 25.5h469q29 0 21 -37q-4 -19 -28 -46.5t-43 -27.5z" />
    <glyph glyph-name="registered" unicode="&#xae;" horiz-adv-x="1296" 
d="M1044 758q-12 -57 -54 -96t-97 -56l62 -168q20 -54 79 -43l1 -35q-38 -14 -77 -14q-83 0 -109 72l-64 164q-1 1 -4.5 2t-8.5 1.5t-10.5 1.5t-12 1t-12.5 0.5t-11 1t-9 0.5h-6l-31 -148q-9 -40 15 -43l28 -4h3q8 -1 11 -2t5 -3t1 -7l-7 -33l-5 -4q-83 4 -120 4l-126 -4
l-3 4l7 35q2 8 23 10l36 4q27 3 35 43l79 369q5 25 -5.5 38t-30.5 13h-23q-10 0 -12.5 2.5t-1.5 7.5l7 35l5 4h279q103 0 139.5 -47.5t24.5 -105.5zM931 758q22 104 -80 104q-82 0 -93 -51l-36 -172h65q56 0 92.5 24t51.5 95zM659 47q-158 0 -275 78t-165.5 211.5
t-15.5 290.5q51 240 257 408.5t445.5 168.5t372.5 -169t82 -408.5t-256.5 -409.5t-444.5 -170zM892 1141q-215 0 -397.5 -150.5t-228.5 -363.5q-45 -212 74 -363t333 -151q212 0 395 150.5t228 363.5q25 107 2.5 200.5t-75.5 163t-139.5 110t-191.5 40.5z" />
    <glyph glyph-name="macron" unicode="&#xaf;" horiz-adv-x="813" 
d="M875 1083h-499q-25 0 -18 31q3 12 11.5 26t21.5 24t24 10h500q29 0 23 -29q-3 -12 -12.5 -26.5t-23.5 -25t-27 -10.5z" />
    <glyph glyph-name="degree" unicode="&#xb0;" horiz-adv-x="546" 
d="M638 1073q12 57 -14 103.5t-90 46.5q-26 0 -50 -8.5t-43 -23t-34.5 -33.5t-26 -41t-15.5 -44q-4 -22 -3 -42.5t9.5 -39t21.5 -32t33.5 -21.5t45.5 -8q40 0 76.5 21.5t59 53.5t30.5 68zM298 1075q18 86 91 145.5t157 59.5q56 0 97 -27t58 -74t5 -104q-18 -84 -90 -143.5
t-156.5 -59.5t-132 59.5t-29.5 143.5z" />
    <glyph glyph-name="plusminus" unicode="&#xb1;" horiz-adv-x="1079" 
d="M741 700h352l-21 -100h-353l-75 -356h-105l76 356h-352l21 100h352l76 357h105zM974 139l-22 -100h-809l22 100h809z" />
    <glyph glyph-name="two.superior" unicode="&#xb2;" horiz-adv-x="628" 
d="M538 815q68 0 180 8q-2 -6 -5 -13t-5 -14.5t-3 -13t-2 -13.5t-1.5 -14.5t-1.5 -13.5q-71 4 -165 4h-284q25 117 241 261q90 61 130 107t57 124q14 64 -15.5 93.5t-67.5 29.5q-110 0 -123 -60q-2 -9 0 -25t0 -24q-5 -22 -27 -35.5t-41 -13.5t-33 15t-10 34q11 52 78 105
t175 53q91 0 147.5 -40t37.5 -130q-4 -20 -12.5 -39t-19.5 -36t-27 -34.5t-34 -33.5t-41 -33t-46.5 -33t-53.5 -35q-78 -48 -121 -91t-53 -89h146z" />
    <glyph glyph-name="three.superior" unicode="&#xb3;" horiz-adv-x="628" 
d="M657 1278q9 44 -11 63t-54 19q-38 0 -78.5 -18.5t-49.5 -53.5q-5 -17 -10 -27t-19.5 -21t-36.5 -11q-18 0 -27.5 8.5t-11 16t-0.5 12.5q9 41 80.5 92t187.5 51q53 0 89.5 -14.5t52 -41.5t7.5 -65q-17 -82 -135 -139q59 -5 101 -52t25 -128q-22 -104 -122.5 -170
t-226.5 -66q-62 0 -117.5 23t-48.5 53q2 10 11.5 19.5t22.5 15.5t24 6q29 0 47 -29q11 -18 30.5 -27.5t63.5 -9.5q11 0 26 3t34.5 9.5t39 19t37.5 30t32.5 45.5t22.5 61q7 25 3 44t-10 33t-19 24t-25.5 16t-28.5 9t-28 4t-24 1h-12t-16.5 -1.5t-13.5 -2.5l6 49
q71 9 120 48.5t62 101.5z" />
    <glyph glyph-name="acute" unicode="&#xb4;" horiz-adv-x="698" 
d="M664 1440q13 4 30 4q63 0 103 -47l1 -23l-283 -223q-27 -22 -42.5 -30.5t-27.5 -8.5q-11 0 -18 8t-5 19q4 21 36 57z" />
    <glyph glyph-name="uni00B5" unicode="&#xb5;" horiz-adv-x="995" 
d="M105 -479q-31 0 -62.5 38t-19.5 95q10 49 49 155.5t54 174.5q6 27 11.5 75t13 106.5t18.5 108.5l82 385q5 25 11.5 80.5t10.5 97.5l4 42q27 0 92 9t80 11q-22 -131 -36 -197l-85 -401q-49 -229 93 -229q79 0 158.5 38.5t127.5 92.5l143 676q29 0 88 9.5t70 10.5
l-137 -645q-23 -97 -22 -137.5t38 -40.5q13 0 27 10t28.5 28.5t31.5 47.5l45 -23q-50 -84 -97.5 -121.5t-122.5 -37.5q-58 0 -90 41.5t-19 101.5q-161 -143 -328 -143q-34 0 -64 13t-42 34q-9 0 -18 -5.5t-11 -13.5q-15 -72 -9.5 -199t-2.5 -165q-13 -60 -43 -91.5
t-67 -31.5z" />
    <glyph glyph-name="paragraph" unicode="&#xb6;" horiz-adv-x="1232" 
d="M1001 1176l-319 -1506q-16 -78 65 -78q84 0 100 78l320 1506q9 44 -9 60.5t-58 16.5q-38 0 -64.5 -18.5t-34.5 -58.5zM1116 1321q32 0 83 1.5t86 3.5l35 1l1 -6q-50 -136 -107 -410l-208 -977q-56 -265 -67 -409l-5 -6q-132 6 -201 6l-203 -6l-2 6q52 147 107 409
l138 650q-29 -6 -67 -6q-227 0 -325 102t-55 305q29 136 151 238t310 102q89 0 201.5 -2t127.5 -2z" />
    <glyph glyph-name="periodcentered" unicode="&#xb7;" horiz-adv-x="512" 
d="M345 418q-49 0 -73 33t-14 77q6 28 26.5 54t49.5 41.5t58 15.5q28 0 50 -14.5t32.5 -40.5t4.5 -55.5t-26 -55t-48.5 -40.5t-59.5 -15z" />
    <glyph glyph-name="cedilla" unicode="&#xb8;" horiz-adv-x="1107" 
d="M577 -197q-53 0 -95 -12l-10 12l124 197h70l-81 -137q6 2 13 3t14 1.5l14 1t14 0.5q63 0 96.5 -35t21.5 -92q-14 -66 -85.5 -109t-165.5 -43q-72 0 -144 35q7 33 31 53q71 -29 113 -28q31 0 56.5 9t43 28t22.5 45q4 16 2.5 29t-7.5 22.5t-18 14.5t-29 5z" />
    <glyph glyph-name="one.superior" unicode="&#xb9;" horiz-adv-x="628" 
d="M515 1008l37 174q12 49 11.5 67.5t-17.5 18.5q-19 0 -72 -15t-78 -26l-8 59q8 3 38 13l40.5 13.5t37.5 13t41 14.5t37.5 14.5t40 17t37 17.5t39.5 20h12q6 0 4 -12q-21 -70 -34 -131l-55 -258q-35 -164 -42 -263l-3 -4q-1 0 -2 0.5t-7 1.5t-13 1.5t-19.5 0.5h-26.5
l-71 -4l-1 4q39 100 74 263z" />
    <glyph glyph-name="ordmasculine" unicode="&#xba;" horiz-adv-x="714" 
d="M267 879q28 131 119 205.5t223 74.5q140 0 191 -77t26 -191q-24 -113 -114.5 -191.5t-227.5 -78.5q-114 0 -177 74t-40 184zM586 1108q-73 0 -125 -60t-71 -149q-8 -53 -3.5 -102t39.5 -84t93 -35q55 0 109 41t75 139q26 120 -6.5 185t-110.5 65z" />
    <glyph glyph-name="guillemotright" unicode="&#xbb;" horiz-adv-x="1097" 
d="M799 440q-94 117 -195 344l70 50q143 -231 260 -345q23 -23 35 -32l-6 -33l-50 -33q-176 -123 -407 -344l-47 49q207 238 340 344zM465 440q-94 117 -195 344l68 50q143 -231 260 -345q23 -23 35 -32l-6 -33l-49 -33q-176 -123 -408 -344l-45 49q207 238 340 344z" />
    <glyph glyph-name="onequarter" unicode="&#xbc;" horiz-adv-x="1351" 
d="M1402 1231l81 -17l-1223 -1341l-83 16zM1030 -166q34 87 61 203h-295l-3 24q191 211 411 447l59 -21q-68 -79 -196 -216t-151 -165h190l34 158q2 8 8 17.5t13 17.5q43 43 63 43q43 0 38 -20l-45 -216h100l-27 -69h-87q-25 -126 -30 -203l-3 -4q-1 0 -2 0.5t-7 1t-13 1
t-19.5 1t-27.5 0.5q-23 0 -40.5 -1t-23.5 -2l-6 -1zM488 907l37 174q12 49 11.5 67.5t-17.5 18.5q-19 0 -72 -14.5t-79 -26.5l-7 60q221 74 310 123h13q6 0 3 -13q-21 -70 -34 -131l-55 -258q-35 -164 -41 -262l-3 -4q-18 4 -69 4l-70 -4l-1 4q39 99 74 262z" />
    <glyph glyph-name="onehalf" unicode="&#xbd;" horiz-adv-x="1351" 
d="M1351 1231l83 -17l-1226 -1341l-80 16zM1078 -92q68 0 180 8q-9 -24 -13 -41q-3 -15 -4 -41q-71 4 -165 4h-285q25 117 242 260q90 61 129.5 107.5t56.5 124.5q6 36 1 59.5t-20.5 37.5t-31.5 20t-31 6q-41 0 -69.5 -10t-39.5 -22.5t-15 -27.5q-2 -9 0 -25t0 -24
q-5 -22 -27 -35.5t-41 -13.5q-12 0 -23 6.5t-16.5 18t-2.5 24.5q7 31 33.5 65t85.5 63.5t133 29.5q91 0 147.5 -40t37.5 -130q-14 -67 -70 -122t-164 -122q-156 -96 -173 -180h145zM492 907l37 174q12 49 11.5 67.5t-17.5 18.5q-13 0 -43.5 -7t-61 -16.5t-45.5 -17.5l-8 60
q221 74 310 123h13q6 0 3 -13q-21 -70 -34 -131l-54 -258q-35 -164 -42 -262l-3 -4q-18 4 -69 4l-70 -4l-1 4q39 99 74 262z" />
    <glyph glyph-name="threequarters" unicode="&#xbe;" horiz-adv-x="1351" 
d="M1413 1231l80 -17l-1223 -1341l-83 16zM630 1174q6 30 -2.5 49t-24.5 25.5t-37 6.5q-38 0 -78.5 -18.5t-49.5 -52.5q-5 -17 -10 -27.5t-19.5 -21.5t-36.5 -11q-18 0 -27.5 8.5t-11 16t-0.5 12.5q9 41 80 92.5t188 51.5q53 0 89 -14.5t51.5 -42t7.5 -64.5
q-17 -82 -134 -140q59 -5 101 -52t25 -128q-22 -104 -123 -169.5t-226 -65.5q-62 0 -117.5 22.5t-49.5 53.5q3 15 22 27.5t36 12.5q29 0 48 -28q22 -37 94 -37q14 0 32 3.5t43.5 15t47 29t41 49t27.5 71.5q9 41 -2 69t-36.5 40.5t-47.5 17t-45 4.5q-7 0 -12.5 -0.5t-16.5 -2
t-13 -1.5l6 49q20 3 38.5 8t35 12.5t31 17t27 21.5t22.5 26t16.5 30.5t10.5 34.5zM1039 -162q35 88 61 203h-295l-3 25q191 211 411 446l59 -20q-68 -79 -196 -216.5t-151 -164.5h190l34 157q3 13 21 35q16 16 34.5 29.5t28.5 13.5q43 0 38 -20l-45 -215h100l-27 -70h-87
q-25 -128 -30 -203l-3 -4q-18 4 -69 4q-14 0 -26.5 -0.5t-20 -1t-13 -1t-8.5 -0.5l-2 -1z" />
    <glyph glyph-name="questiondown" unicode="&#xbf;" horiz-adv-x="829" 
d="M349 -389q141 0 293 192l26 -2l4 -137l-8 -8q-179 -127 -350 -127q-103 0 -172 38.5t-94.5 108t-6.5 162.5q12 57 41 106.5t75.5 91t80 65.5t89.5 59q99 64 128 102q52 71 69 150l19 90q4 20 31 20q8 0 13.5 -2t8 -6.5t0.5 -11.5l-20 -94q-9 -43 -18.5 -74t-31.5 -77
t-61.5 -91t-95.5 -88q-78 -60 -118 -111.5t-54 -120.5q-21 -100 22 -167.5t130 -67.5zM745 788l-2 -8q-43 -77 -134 -110h-8q-78 31 -87 110l2 8q48 90 134 111h8q46 -11 65.5 -35.5t21.5 -75.5z" />
    <glyph glyph-name="Agrave" unicode="&#xc0;" horiz-adv-x="1296" 
d="M880 1675l212 -172q26 -22 21 -43q-3 -12 -14 -21t-23 -9q-31 0 -83 24l-288 129q36 29 78.5 52t96.5 40zM470 468q-191 -308 -271 -474q-23 6 -90 6q-47 0 -73 -6q508 759 892 1354h57q34 -166 94.5 -483.5t107 -548.5t71.5 -322q-34 6 -121 6q-68 0 -104 -6
q-12 183 -59 474q-145 3 -239 3q-117 0 -265 -3zM958 564q-41 236 -100 505h-4q-263 -409 -323 -504q24 0 102 -2t111 -2q87 0 214 3z" />
    <glyph glyph-name="Aacute" unicode="&#xc1;" horiz-adv-x="1296" 
d="M1154 1679q79 -41 104 -106l-320 -119q-63 -25 -91 -24q-13 0 -20 9t-5 21q5 22 40 43zM470 468q-191 -308 -271 -474q-23 6 -90 6q-47 0 -73 -6q508 759 892 1354h57q34 -166 94.5 -483.5t107 -548.5t71.5 -322q-34 6 -121 6q-68 0 -104 -6q-12 183 -59 474
q-145 3 -239 3q-117 0 -265 -3zM958 564q-41 236 -100 505h-4q-263 -409 -323 -504q24 0 102 -2t111 -2q87 0 214 3z" />
    <glyph glyph-name="Acircumflex" unicode="&#xc2;" horiz-adv-x="1296" 
d="M1069 1649q62 -100 166 -193l-42 -43q-57 29 -103 59.5t-87 67.5q-118 -75 -246 -127l-20 43q102 67 244 193h88zM470 468q-191 -308 -271 -474q-23 6 -90 6q-47 0 -73 -6q508 759 892 1354h57q34 -166 94.5 -483.5t107 -548.5t71.5 -322q-34 6 -121 6q-68 0 -104 -6
q-12 183 -59 474q-145 3 -239 3q-117 0 -265 -3zM958 564q-41 236 -100 505h-4q-263 -409 -323 -504q24 0 102 -2t111 -2q87 0 214 3z" />
    <glyph glyph-name="Atilde" unicode="&#xc3;" horiz-adv-x="1296" 
d="M1131 1524q36 0 63.5 22t61.5 84l46 -12q-38 -92 -92 -138t-125 -46q-31 0 -59 13.5t-61 39.5q-20 14 -33.5 22t-32 15.5t-35.5 7.5q-26 0 -47 -11t-38.5 -32t-35.5 -55l-47 10q42 93 90 137.5t113 44.5q66 0 135 -57q51 -45 97 -45zM470 468q-191 -308 -271 -474
q-23 6 -90 6q-47 0 -73 -6q508 759 892 1354h57q34 -166 94.5 -483.5t107 -548.5t71.5 -322q-34 6 -121 6q-68 0 -104 -6q-12 183 -59 474q-145 3 -239 3q-117 0 -265 -3zM958 564q-41 236 -100 505h-4q-263 -409 -323 -504q24 0 102 -2t111 -2q87 0 214 3z" />
    <glyph glyph-name="Adieresis" unicode="&#xc4;" horiz-adv-x="1296" 
d="M636 1452q5 25 22.5 46.5t42 33.5t49.5 12q38 0 59.5 -27t13.5 -65q-5 -25 -22 -46.5t-41 -33.5t-49 -12q-39 0 -61 27t-14 65zM1128 1452q8 38 41.5 65t72 27t59.5 -27t13 -65q-5 -25 -22 -46.5t-40.5 -33.5t-49.5 -12q-39 0 -60.5 27t-13.5 65zM470 468
q-191 -308 -271 -474q-23 6 -90 6q-47 0 -73 -6q508 759 892 1354h57q34 -166 94.5 -483.5t107 -548.5t71.5 -322q-34 6 -121 6q-68 0 -104 -6q-12 183 -59 474q-145 3 -239 3q-117 0 -265 -3zM958 564q-41 236 -100 505h-4q-263 -409 -323 -504q24 0 102 -2t111 -2
q87 0 214 3z" />
    <glyph glyph-name="Aring" unicode="&#xc5;" horiz-adv-x="1296" 
d="M999 1577q-31 0 -58 -16t-44.5 -42t-24.5 -57q-10 -45 11 -79.5t67 -34.5t81.5 34.5t45.5 79.5q10 49 -11.5 82t-66.5 33zM796 1462q15 70 79 120t135.5 50t114.5 -49.5t28 -120.5q-8 -37 -31 -70t-56.5 -56.5t-70.5 -35.5q14 -70 31 -155.5t32.5 -167t32.5 -170.5
t32.5 -171t31.5 -162.5t30.5 -152t27.5 -133.5t24.5 -112t20.5 -82q-34 6 -121 6q-68 0 -104 -6q-12 183 -59 474q-145 3 -239 3q-117 0 -265 -3q-191 -308 -271 -474q-23 6 -90 6q-47 0 -73 -6q488 729 859 1304q-54 15 -82.5 60.5t-16.5 103.5zM958 564q-41 236 -100 505
h-4q-263 -409 -323 -504q24 0 102 -2t111 -2q87 0 214 3z" />
    <glyph glyph-name="AE" unicode="&#xc6;" horiz-adv-x="1642" 
d="M576 570q-235 -339 -377 -576q-23 6 -90 6q-47 0 -73 -6q80 109 224 309.5t242 335.5t243.5 325t285.5 358l5 5q34 -6 103 -6h436q33 0 66.5 1.5t57.5 4.5l3 -6q-2 -8 -5.5 -19.5t-5 -17.5t-3.5 -13.5t-4 -13.5q-4 -20 -7 -53l-6 -8q-154 21 -370 21q-115 0 -152 -19
t-42 -81q-2 -203 2 -435q224 0 464 20l5 -6q-12 -28 -19 -57q-6 -30 -6 -57l-7 -7q-168 17 -435 21q6 -261 18 -482q91 3 201 8.5t175 8.5l64 4l2 -8q-11 -33 -18 -68q0 -2 -9 -59l-5 -6q-48 6 -122 6h-280h-3h-110q-68 0 -104 -6q6 27 11 74t9 118.5t7 165.5t6 220
q-34 1 -68 1h-67q-98 0 -242 -3zM955 665q2 93 4 200t3 228h-4q-148 -190 -314 -426q17 0 46 -1t49.5 -1.5t45.5 -0.5h42.5h39t43 0.5t45.5 0.5z" />
    <glyph glyph-name="Ccedilla" unicode="&#xc7;" horiz-adv-x="1331" 
d="M1014 1348q111 0 212.5 -23t147.5 -47l46 -23l3 -6q-8 -19 -23 -51t-20.5 -43.5t-14.5 -35t-16 -45t-16 -52.5l-25 -2q-35 123 -118.5 177t-225.5 54q-67 0 -142 -31.5t-152.5 -94.5t-141.5 -178t-96 -263q-20 -92 -22 -177.5t17 -163t58.5 -134.5t108.5 -91t161 -34
q144 0 244 42t233 161l45 -39q-245 -249 -520 -267l-69 -118q13 3 26.5 4.5t27.5 1.5q63 0 97 -35t22 -92q-14 -66 -86 -109t-166 -43q-72 0 -144 35q7 33 32 53q71 -29 113 -28q31 0 56 9t42.5 28t23.5 45q7 34 -6 52.5t-47 18.5q-53 0 -95 -12l-9 12l111 177
q-121 4 -216 44.5t-150.5 106t-89.5 151t-34 179.5t17 192q42 196 167 357t293 249.5t341 88.5z" />
    <glyph glyph-name="Egrave" unicode="&#xc8;" horiz-adv-x="1069" 
d="M857 1673l212 -172q26 -22 21 -43q-3 -12 -14 -21.5t-23 -9.5q-31 0 -83 25l-288 129q75 60 175 92zM460 410q-52 -243 -47 -299q122 0 267 6t230 12l85 6l3 -8q-11 -33 -19 -68q0 -2 -8 -59l-6 -6q-48 6 -121 6h-559l-108 -6l-1 6q50 139 108 410l106 501q56 265 67 410
l5 6q34 -6 103 -6h539q33 0 66.5 1.5t57.5 4.5l3 -6q-2 -7 -4.5 -16t-4 -14.5t-3.5 -11.5t-3.5 -11.5t-2.5 -10.5q-4 -20 -7 -53l-6 -8q-278 25 -551 25q-11 -22 -31 -96t-32.5 -127.5t-19.5 -86.5l-35 -168q215 0 461 21l5 -6q-6 -14 -11 -28.5t-8 -29.5q-6 -31 -6 -57
l-7 -6q-94 10 -228.5 15t-224.5 5z" />
    <glyph glyph-name="Eacute" unicode="&#xc9;" horiz-adv-x="1069" 
d="M1074 1679q79 -41 104 -106l-320 -119q-63 -25 -91 -24q-13 0 -20 9t-4 21q5 22 39 43zM460 410q-52 -243 -47 -299q122 0 267 6t230 12l85 6l3 -8q-11 -33 -19 -68q0 -2 -8 -59l-6 -6q-48 6 -121 6h-559l-108 -6l-1 6q50 139 108 410l106 501q56 265 67 410l5 6
q34 -6 103 -6h539q33 0 66.5 1.5t57.5 4.5l3 -6q-2 -7 -4.5 -16t-4 -14.5t-3.5 -11.5t-3.5 -11.5t-2.5 -10.5q-4 -20 -7 -53l-6 -8q-278 25 -551 25q-11 -22 -31 -96t-32.5 -127.5t-19.5 -86.5l-35 -168q215 0 461 21l5 -6q-6 -14 -11 -28.5t-8 -29.5q-6 -31 -6 -57l-7 -6
q-94 10 -228.5 15t-224.5 5z" />
    <glyph glyph-name="Ecircumflex" unicode="&#xca;" horiz-adv-x="1069" 
d="M1000 1649q62 -100 166 -193l-42 -43q-57 29 -103.5 59.5t-87.5 67.5q-118 -75 -245 -127l-20 43q102 67 244 193h88zM460 410q-52 -243 -47 -299q122 0 267 6t230 12l85 6l3 -8q-11 -33 -19 -68q0 -2 -8 -59l-6 -6q-48 6 -121 6h-559l-108 -6l-1 6q50 139 108 410
l106 501q56 265 67 410l5 6q34 -6 103 -6h539q33 0 66.5 1.5t57.5 4.5l3 -6q-2 -7 -4.5 -16t-4 -14.5t-3.5 -11.5t-3.5 -11.5t-2.5 -10.5q-4 -20 -7 -53l-6 -8q-278 25 -551 25q-11 -22 -31 -96t-32.5 -127.5t-19.5 -86.5l-35 -168q215 0 461 21l5 -6q-6 -14 -11 -28.5
t-8 -29.5q-6 -31 -6 -57l-7 -6q-94 10 -228.5 15t-224.5 5z" />
    <glyph glyph-name="Edieresis" unicode="&#xcb;" horiz-adv-x="1069" 
d="M1010.5 1538q8.5 40 44 69t75.5 29t63 -29t15 -69q-3 -13 -9.5 -25.5t-15 -23.5t-19.5 -20t-23.5 -15.5t-26 -10t-26.5 -3.5q-40 0 -63 29t-14.5 69zM623.5 1538q8.5 40 44 69t75.5 29t63 -29t14 -69q-6 -26 -23.5 -49t-43.5 -36t-52 -13q-40 0 -63 29t-14.5 69zM460 410
q-52 -243 -47 -299q122 0 267 6t230 12l85 6l3 -8q-11 -33 -19 -68q0 -2 -8 -59l-6 -6q-48 6 -121 6h-559l-108 -6l-1 6q50 139 108 410l106 501q56 265 67 410l5 6q34 -6 103 -6h539q33 0 66.5 1.5t57.5 4.5l3 -6q-2 -7 -4.5 -16t-4 -14.5t-3.5 -11.5t-3.5 -11.5
t-2.5 -10.5q-4 -20 -7 -53l-6 -8q-278 25 -551 25q-11 -22 -31 -96t-32.5 -127.5t-19.5 -86.5l-35 -168q215 0 461 21l5 -6q-6 -14 -11 -28.5t-8 -29.5q-6 -31 -6 -57l-7 -6q-94 10 -228.5 15t-224.5 5z" />
    <glyph glyph-name="Igrave" unicode="&#xcc;" horiz-adv-x="600" 
d="M558 1673l212 -172q26 -22 21 -43q-1 -6 -4.5 -11.5t-8.5 -10t-11.5 -7t-12.5 -2.5q-31 0 -83 25l-288 129q75 60 175 92zM411 911q56 265 66 410l6 6q34 -6 103 -6l108 6v-6q-50 -136 -107 -410l-107 -501q-56 -265 -66 -410l-6 -6q-4 1 -11 2t-34 2.5t-58 1.5l-108 -6
v6q50 139 107 410z" />
    <glyph glyph-name="Iacute" unicode="&#xcd;" horiz-adv-x="600" 
d="M787 1677q79 -41 104 -106l-320 -119q-63 -25 -91 -25q-13 0 -20 9.5t-5 21.5q5 22 40 43zM411 911q56 265 66 410l6 6q34 -6 103 -6l108 6v-6q-50 -136 -107 -410l-107 -501q-56 -265 -66 -410l-6 -6q-4 1 -11 2t-34 2.5t-58 1.5l-108 -6v6q50 139 107 410z" />
    <glyph glyph-name="Icircumflex" unicode="&#xce;" horiz-adv-x="600" 
d="M692 1649q62 -99 167 -193l-42 -43q-114 58 -191 127q-118 -75 -246 -127l-19 43q102 67 243 193h88zM411 911q56 265 66 410l6 6q34 -6 103 -6l108 6v-6q-50 -136 -107 -410l-107 -501q-56 -265 -66 -410l-6 -6q-4 1 -11 2t-34 2.5t-58 1.5l-108 -6v6q50 139 107 410z
" />
    <glyph glyph-name="Idieresis" unicode="&#xcf;" horiz-adv-x="600" 
d="M721.5 1536q8.5 40 44 69t75.5 29t63 -29t14 -69q-6 -26 -24 -49t-43.5 -36t-51.5 -13q-40 0 -63 29t-14.5 69zM334.5 1536q8.5 40 44 69t75.5 29t63 -29t14.5 -69t-44 -69t-75.5 -29t-63 29t-14.5 69zM411 911q56 265 66 410l6 6q34 -6 103 -6l108 6v-6
q-50 -136 -107 -410l-107 -501q-56 -265 -66 -410l-6 -6q-4 1 -11 2t-34 2.5t-58 1.5l-108 -6v6q50 139 107 410z" />
    <glyph glyph-name="Eth" unicode="&#xd0;" horiz-adv-x="1396" 
d="M419 168q-4 -25 -4 -40.5t20 -25t60 -13t117 -3.5t140 8t126.5 28t114 56.5t95.5 90.5t78.5 132.5t55 180t25.5 190t-16 176.5t-67.5 150t-138.5 100.5t-219 38.5q-84 0 -125.5 -16t-51.5 -66l-104 -487h233l-17 -80h-233zM576 1321q64 0 163.5 3t163.5 3
q192 0 330.5 -94t194 -254t15.5 -348q-31 -145 -96 -259t-144 -183t-176.5 -114t-187 -62t-182.5 -17q-114 0 -207 2t-155 2l-108 -6l-1 6q50 139 108 410l38 178h-146l17 80h146l52 243q56 265 66 410l5 6q35 -6 104 -6z" />
    <glyph glyph-name="Ntilde" unicode="&#xd1;" horiz-adv-x="1331" 
d="M401 911q52 242 66 410l5 6q34 -6 63 -6l50 4l447 -909q65 -131 88 -79q5 10 8 28l96 444q78 361 136 512l5 6q1 0 3 -0.5t8 -1.5t13.5 -2t20 -1.5t26.5 -0.5q20 0 38.5 1.5t26.5 3.5l8 1l1 -6q-116 -226 -178 -512l-164 -766q-14 -63 -56 -63q-52 0 -78 49l-461 903
q-4 8 -11 21q-18 36 -24 42.5t-10 -1t-11 -44.5q-6 -31 -11 -51l-91 -428q-35 -162 -64 -277.5t-56 -193.5l-5 -6q-21 6 -71 6l-73 -6l-1 6q101 193 161 471zM1189 1518q36 0 63.5 22t61.5 84l46 -12q-38 -92 -92.5 -138.5t-124.5 -46.5q-51 0 -120 54q-64 45 -101 45
q-39 0 -66.5 -23.5t-54.5 -75.5l-47 11q28 62 57.5 101t65.5 60t79 21q66 0 136 -57q24 -21 47 -33t50 -12z" />
    <glyph glyph-name="Ograve" unicode="&#xd2;" horiz-adv-x="1415" 
d="M943 1257q-77 0 -149.5 -32t-141 -99t-124.5 -184t-89 -272q-30 -147 -19.5 -259.5t56.5 -188t118.5 -114t165.5 -38.5q117 0 214 64.5t169 191.5t110 309q132 622 -310 622zM1472 674q-66 -312 -274 -503t-498 -191q-269 0 -405.5 179t-73.5 476q65 305 280.5 509
t487.5 204q278 0 412.5 -185.5t70.5 -488.5zM940 1671l211 -172q26 -22 22 -43q-1 -5 -4 -9.5t-6.5 -8.5t-8 -6.5t-9.5 -4.5t-10 -2q-31 0 -83 25l-287 129q36 29 78.5 52t96.5 40z" />
    <glyph glyph-name="Oacute" unicode="&#xd3;" horiz-adv-x="1415" 
d="M943 1257q-77 0 -149.5 -32t-141 -99t-124.5 -184t-89 -272q-30 -147 -19.5 -259.5t56.5 -188t118.5 -114t165.5 -38.5q117 0 214 64.5t169 191.5t110 309q132 622 -310 622zM1472 674q-66 -312 -274 -503t-498 -191q-269 0 -405.5 179t-73.5 476q65 305 280.5 509
t487.5 204q278 0 412.5 -185.5t70.5 -488.5zM1068 1675q79 -41 104 -106l-320 -119q-63 -25 -91 -25q-13 0 -20 9t-5 22q5 22 40 43z" />
    <glyph glyph-name="Ocircumflex" unicode="&#xd4;" horiz-adv-x="1415" 
d="M943 1257q-77 0 -149.5 -32t-141 -99t-124.5 -184t-89 -272q-30 -147 -19.5 -259.5t56.5 -188t118.5 -114t165.5 -38.5q117 0 214 64.5t169 191.5t110 309q132 622 -310 622zM1472 674q-66 -312 -274 -503t-498 -191q-269 0 -405.5 179t-73.5 476q65 305 280.5 509
t487.5 204q278 0 412.5 -185.5t70.5 -488.5zM1042 1661q62 -100 166 -193l-42 -43q-114 58 -190 127q-118 -75 -246 -127l-20 43q102 67 244 193h88z" />
    <glyph glyph-name="Otilde" unicode="&#xd5;" horiz-adv-x="1415" 
d="M943 1257q-77 0 -149.5 -32t-141 -99t-124.5 -184t-89 -272q-30 -147 -19.5 -259.5t56.5 -188t118.5 -114t165.5 -38.5q117 0 214 64.5t169 191.5t110 309q132 622 -310 622zM1472 674q-66 -312 -274 -503t-498 -191q-269 0 -405.5 179t-73.5 476q65 305 280.5 509
t487.5 204q278 0 412.5 -185.5t70.5 -488.5zM1101 1518q36 0 63.5 22t61.5 84l46 -12q-38 -92 -92.5 -138.5t-124.5 -46.5q-51 0 -120 54q-64 45 -101 45q-39 0 -67 -23.5t-54 -75.5l-47 11q28 62 57 101t65.5 60t79.5 21q66 0 136 -57q24 -21 47 -33t50 -12z" />
    <glyph glyph-name="Odieresis" unicode="&#xd6;" horiz-adv-x="1415" 
d="M542 1452q5 25 22.5 46.5t42 33.5t49.5 12q38 0 59.5 -27t12.5 -65q-5 -25 -21.5 -46.5t-40.5 -33.5t-49 -12q-39 0 -61 27t-14 65zM1300 1452q5 25 22 46.5t40.5 33.5t49.5 12q38 0 59 -27t13 -65q-5 -25 -22 -46.5t-40.5 -33.5t-49.5 -12q-38 0 -59 27t-13 65z
M943 1257q-77 0 -149.5 -32t-141 -99t-124.5 -184t-89 -272q-30 -147 -19.5 -259.5t56.5 -188t118.5 -114t165.5 -38.5q117 0 214 64.5t169 191.5t110 309q132 622 -310 622zM1472 674q-66 -312 -274 -503t-498 -191q-269 0 -405.5 179t-73.5 476q65 305 280.5 509
t487.5 204q278 0 412.5 -185.5t70.5 -488.5z" />
    <glyph glyph-name="multiply" unicode="&#xd7;" horiz-adv-x="1079" 
d="M710 471l199 -250l-87 -71l-197 249l-302 -249l-59 71l305 250l-198 252l89 72l196 -252l303 252l57 -72z" />
    <glyph glyph-name="Oslash" unicode="&#xd8;" horiz-adv-x="1476" 
d="M165 -82l-59 53l199 193q-145 184 -84 471q64 301 294 507t505 206q75 0 142 -14.5t124 -42.5t104 -68l153 149l59 -49l-159 -155q155 -190 91 -494q-65 -308 -288 -501t-515 -193q-228 0 -372 128zM974 1257q-78 0 -155 -32t-151 -99t-135 -184.5t-94 -271.5
q-45 -212 11 -364l830 810q-46 71 -123 106t-183 35zM1315 1043l-829 -811q50 -79 129 -120.5t176 -41.5q58 0 114.5 16.5t108 48t98 80t85 110.5t68.5 141t50 169q53 254 0 408z" />
    <glyph glyph-name="Ugrave" unicode="&#xd9;" horiz-adv-x="1353" 
d="M921 1675l212 -172q26 -22 21 -43q-3 -12 -14 -21t-23 -9q-31 0 -83 24l-288 129q36 29 78.5 52t96.5 40zM1261 911q56 265 66 410l6 6q2 -1 5 -1.5t6.5 -1t10 -1l13 -1t16 -1t19.5 -0.5q20 0 38.5 1.5t26.5 3.5l8 1l1 -6q-50 -136 -108 -410l-65 -307
q-31 -146 -76.5 -253t-119.5 -194.5t-188 -132t-267 -44.5q-50 0 -97.5 8t-101 29t-91 57.5t-68 92.5t-32.5 134t16 182l91 428q56 265 66 410l6 6q34 -6 103 -6l108 6l1 -6q-50 -136 -108 -410l-77 -360q-99 -467 249 -467q100 0 177.5 30t123.5 72.5t82 113.5t52.5 127.5
t34.5 139.5z" />
    <glyph glyph-name="Uacute" unicode="&#xda;" horiz-adv-x="1353" 
d="M1186 1677q79 -41 104 -106l-320 -119q-63 -25 -91 -25q-13 0 -20 9.5t-4 21.5q5 22 40 43zM1261 911q56 265 66 410l6 6q2 -1 5 -1.5t6.5 -1t10 -1l13 -1t16 -1t19.5 -0.5q20 0 38.5 1.5t26.5 3.5l8 1l1 -6q-50 -136 -108 -410l-65 -307q-31 -146 -76.5 -253
t-119.5 -194.5t-188 -132t-267 -44.5q-50 0 -97.5 8t-101 29t-91 57.5t-68 92.5t-32.5 134t16 182l91 428q56 265 66 410l6 6q34 -6 103 -6l108 6l1 -6q-50 -136 -108 -410l-77 -360q-99 -467 249 -467q100 0 177.5 30t123.5 72.5t82 113.5t52.5 127.5t34.5 139.5z" />
    <glyph glyph-name="Ucircumflex" unicode="&#xdb;" horiz-adv-x="1353" 
d="M1108 1649q62 -100 166 -193l-42 -43q-115 60 -190 127q-118 -75 -246 -127l-20 43q102 67 244 193h88zM1261 911q56 265 66 410l6 6q2 -1 5 -1.5t6.5 -1t10 -1l13 -1t16 -1t19.5 -0.5q20 0 38.5 1.5t26.5 3.5l8 1l1 -6q-50 -136 -108 -410l-65 -307q-31 -146 -76.5 -253
t-119.5 -194.5t-188 -132t-267 -44.5q-50 0 -97.5 8t-101 29t-91 57.5t-68 92.5t-32.5 134t16 182l91 428q56 265 66 410l6 6q34 -6 103 -6l108 6l1 -6q-50 -136 -108 -410l-77 -360q-99 -467 249 -467q100 0 177.5 30t123.5 72.5t82 113.5t52.5 127.5t34.5 139.5z" />
    <glyph glyph-name="Udieresis" unicode="&#xdc;" horiz-adv-x="1353" 
d="M763 1452q4 19 15 36t26 29.5t33.5 19.5t37.5 7q38 0 59.5 -27t13.5 -65q-5 -25 -22 -46.5t-41 -33.5t-49 -12q-38 0 -59.5 27t-13.5 65zM1099 1452q8 38 41 65t71 27t59.5 -27t12.5 -65q-5 -25 -21.5 -46.5t-40.5 -33.5t-49 -12q-38 0 -59.5 27t-13.5 65zM1261 911
q56 265 66 410l6 6q2 -1 5 -1.5t6.5 -1t10 -1l13 -1t16 -1t19.5 -0.5q20 0 38.5 1.5t26.5 3.5l8 1l1 -6q-50 -136 -108 -410l-65 -307q-31 -146 -76.5 -253t-119.5 -194.5t-188 -132t-267 -44.5q-50 0 -97.5 8t-101 29t-91 57.5t-68 92.5t-32.5 134t16 182l91 428
q56 265 66 410l6 6q34 -6 103 -6l108 6l1 -6q-50 -136 -108 -410l-77 -360q-99 -467 249 -467q100 0 177.5 30t123.5 72.5t82 113.5t52.5 127.5t34.5 139.5z" />
    <glyph glyph-name="Yacute" unicode="&#xdd;" horiz-adv-x="1210" 
d="M1094 1679q79 -41 104 -106l-320 -119q-63 -25 -91 -24q-13 0 -20 9t-4 21q5 22 40 43zM809 585q-92 -451 -110 -591q-32 6 -105 6h-25.5t-25 -0.5t-29.5 -2t-26 -3.5q41 131 135 569q-40 108 -154.5 392.5t-153.5 371.5q34 -6 115.5 -6t117.5 6q22 -76 52 -162
t52.5 -147t61.5 -163.5t59 -157.5q299 352 492 630q6 -1 12.5 -2.5t14.5 -2t14 -1t15.5 -0.5h14.5h14h28.5t28 1.5t30.5 4.5q-72 -83 -176.5 -202.5t-155.5 -178.5t-114.5 -134t-105.5 -127t-76 -100z" />
    <glyph glyph-name="Thorn" unicode="&#xde;" horiz-adv-x="1081" 
d="M388 911q56 265 67 410l5 6q34 -6 103 -6l108 6l1 -6q-34 -94 -71 -247q25 1 51.5 1.5t52 1t40 0.5h35.5q79 0 142 -13t105 -35.5t71.5 -53.5t45 -64t21.5 -71t4.5 -71t-8.5 -67t-22.5 -70.5t-42 -76t-60.5 -75.5t-81 -69t-101 -57t-123 -38.5t-145 -14.5q-107 0 -148 13
q-12 -61 -21 -113t-16 -104.5t-10 -96.5l-5 -6q-4 1 -11.5 2t-34 2.5t-57.5 1.5l-108 -6l-1 6q50 139 108 410zM454 394q15 -4 51 -6.5t89 -2.5q299 0 366 317q62 291 -200 291q-96 0 -182 -21q-5 -20 -14 -61l-106 -501q-1 -3 -2 -8t-2 -8z" />
    <glyph glyph-name="germandbls" unicode="&#xdf;" horiz-adv-x="1089" 
d="M367 137q-30 -137 -87 -259.5t-119 -194.5q-133 -156 -307 -156q-17 0 -36.5 3.5t-34.5 8.5t-21 10l-1 7q31 43 84 168l20 2q10 -33 39 -55.5t67 -22.5q60 0 99 53.5t76 159.5q17 49 37.5 137.5t54.5 262t44 222.5l61 273q7 33 -18 32h-92q-5 0 -8 1t-4.5 3.5t-1.5 6.5
l10 51q6 29 42 29q54 0 89 16q18 29 30 82q38 178 169 309q143 143 302 144q118 0 173 -44q73 -57 73 -160q0 -191 -287 -378l-1 -4q56 -43 95 -79t82 -87.5t65.5 -112.5t22.5 -128q0 -201 -146 -359q-91 -98 -258 -98q-66 0 -121.5 20.5t-77.5 36.5l-1 6q11 14 20 28.5
t13.5 23t15 32t15.5 35.5l23 2q7 -22 25.5 -46.5t47 -43.5t56.5 -19q43 0 78.5 28t61.5 77q60 112 59 235q0 47 -11.5 94.5t-31.5 90.5t-49 85.5t-61.5 79.5t-71.5 72l6 27l18 11t34 21.5t42.5 31.5t48.5 42t46 52.5t40 63.5t27 73t11 84q0 135 -115 135q-28 0 -64.5 -18
t-72.5 -52.5t-58 -75.5q-43 -82 -94 -307z" />
    <glyph glyph-name="agrave" unicode="&#xe0;" horiz-adv-x="970" 
d="M723 449q23 57 41 142t24 141l7 56q-51 20 -127 21q-88 0 -178.5 -89t-144.5 -214t-54 -234q0 -174 96 -174q51 0 156.5 109t179.5 242zM836 283q-16 -70 -17 -131q0 -66 60 -66q45 0 98 14l4 -6v-53q-121 -61 -195 -61q-53 0 -90 26.5t-37 81.5q0 39 15 96l26 107l-4 4
q-111 -166 -188.5 -240.5t-175.5 -74.5q-117 0 -163 76.5t-46 183.5q0 152 94 308.5t220 250.5t225 94q109 0 163 -6q23 -4 86.5 1t69.5 5zM777 1374l89 -258q7 -25 2 -49q-2 -8 -13 -15.5t-23 -7.5q-9 0 -20 9t-31 32l-186 224l9 22q73 47 143 47q14 0 30 -4z" />
    <glyph glyph-name="aacute" unicode="&#xe1;" horiz-adv-x="970" 
d="M723 449q23 57 41 142t24 141l7 56q-51 20 -127 21q-88 0 -178.5 -89t-144.5 -214t-54 -234q0 -174 96 -174q51 0 156.5 109t179.5 242zM836 283q-16 -70 -17 -131q0 -66 60 -66q45 0 98 14l4 -6v-53q-121 -61 -195 -61q-53 0 -90 26.5t-37 81.5q0 39 15 96l26 107l-4 4
q-111 -166 -188.5 -240.5t-175.5 -74.5q-117 0 -163 76.5t-46 183.5q0 152 94 308.5t220 250.5t225 94q109 0 163 -6q23 -4 86.5 1t69.5 5zM767 1364q13 4 29 4q63 0 103 -47l2 -23l-284 -223q-47 -39 -69 -39q-11 0 -18.5 8t-4.5 19q4 21 35 57z" />
    <glyph glyph-name="acircumflex" unicode="&#xe2;" horiz-adv-x="970" 
d="M723 449q23 57 41 142t24 141l7 56q-51 20 -127 21q-88 0 -178.5 -89t-144.5 -214t-54 -234q0 -174 96 -174q51 0 156.5 109t179.5 242zM836 283q-16 -70 -17 -131q0 -66 60 -66q45 0 98 14l4 -6v-53q-121 -61 -195 -61q-53 0 -90 26.5t-37 81.5q0 39 15 96l26 107l-4 4
q-111 -166 -188.5 -240.5t-175.5 -74.5q-117 0 -163 76.5t-46 183.5q0 152 94 308.5t220 250.5t225 94q109 0 163 -6q23 -4 86.5 1t69.5 5zM795 1337q44 -110 151 -264l-49 -29q-122 108 -178 185q-110 -93 -259 -185l-35 29q184 165 268 264h102z" />
    <glyph glyph-name="atilde" unicode="&#xe3;" horiz-adv-x="970" 
d="M723 449q23 57 41 142t24 141l7 56q-51 20 -127 21q-88 0 -178.5 -89t-144.5 -214t-54 -234q0 -174 96 -174q51 0 156.5 109t179.5 242zM836 283q-16 -70 -17 -131q0 -66 60 -66q45 0 98 14l4 -6v-53q-121 -61 -195 -61q-53 0 -90 26.5t-37 81.5q0 39 15 96l26 107l-4 4
q-111 -166 -188.5 -240.5t-175.5 -74.5q-117 0 -163 76.5t-46 183.5q0 152 94 308.5t220 250.5t225 94q109 0 163 -6q23 -4 86.5 1t69.5 5zM822 1157q36 0 63.5 22.5t61.5 84.5l46 -13q-76 -184 -217 -184q-51 0 -120 53q-64 45 -101 45q-20 0 -36.5 -5.5t-31 -18t-27 -30.5
t-26.5 -44l-47 10q28 62 57.5 101.5t65.5 60.5t80 21q66 0 135 -58q50 -45 97 -45z" />
    <glyph glyph-name="adieresis" unicode="&#xe4;" horiz-adv-x="970" 
d="M723 449q23 57 41 142t24 141l7 56q-51 20 -127 21q-88 0 -178.5 -89t-144.5 -214t-54 -234q0 -174 96 -174q51 0 156.5 109t179.5 242zM836 283q-16 -70 -17 -131q0 -66 60 -66q45 0 98 14l4 -6v-53q-121 -61 -195 -61q-53 0 -90 26.5t-37 81.5q0 39 15 96l26 107l-4 4
q-111 -166 -188.5 -240.5t-175.5 -74.5q-117 0 -163 76.5t-46 183.5q0 152 94 308.5t220 250.5t225 94q109 0 163 -6q23 -4 86.5 1t69.5 5zM451 1177.5q8 38.5 42 66.5t72.5 28t60.5 -28t13.5 -66.5t-42 -66.5t-72 -28t-60.5 28t-14 66.5zM795 1187.5q8 38.5 42 66.5
t72.5 28t60.5 -28t13.5 -66.5t-42 -66t-72 -27.5t-60.5 27.5t-14 66z" />
    <glyph glyph-name="aring" unicode="&#xe5;" horiz-adv-x="970" 
d="M723 449q23 57 41 142t24 141l7 56q-51 20 -127 21q-88 0 -178.5 -89t-144.5 -214t-54 -234q0 -174 96 -174q51 0 156.5 109t179.5 242zM836 283q-16 -70 -17 -131q0 -66 60 -66q45 0 98 14l4 -6v-53q-121 -61 -195 -61q-53 0 -90 26.5t-37 81.5q0 39 15 96l26 107l-4 4
q-111 -166 -188.5 -240.5t-175.5 -74.5q-117 0 -163 76.5t-46 183.5q0 152 94 308.5t220 250.5t225 94q109 0 163 -6q23 -4 86.5 1t69.5 5zM737 1329q-31 0 -58 -16t-44.5 -42t-24.5 -57q-10 -45 11 -79.5t66.5 -34.5t81.5 34.5t46 79.5q6 24 2 45t-13.5 36.5t-26.5 24.5
t-40 9zM534 1214.5q15 69.5 79 119.5t135.5 50t114.5 -49t27 -121q-15 -69 -77.5 -119.5t-136.5 -50.5q-71 0 -114 50.5t-28 120z" />
    <glyph glyph-name="ae" unicode="&#xe6;" horiz-adv-x="1406" 
d="M700 440q-365 -32 -406 -223q-29 -135 117 -135q59 0 121.5 33t94.5 90q36 63 73 235zM880 528q61 3 128 4t101 1t70.5 3.5t53.5 13t30.5 28t20.5 49.5q13 59 -15.5 119.5t-95.5 60.5q-64 0 -121 -33.5t-101 -96.5t-71 -149zM585 807q-64 0 -136.5 -52.5t-133.5 -129.5
l-26 2l-4 137l8 8q179 127 330 127q21 0 41 -1.5t54.5 -9.5t61.5 -22t53.5 -42.5t39.5 -67.5q136 143 322 143q66 0 118 -21t79 -52.5t46.5 -68.5t20 -69.5t-0.5 -54.5q-11 -51 -30.5 -87t-54.5 -61q-29 -14 -78.5 -20.5t-100 -8t-150 -3.5t-183.5 -7q-34 -163 14.5 -259.5
t163.5 -96.5q133 0 282 139l28 -57q-63 -85 -162.5 -138.5t-199.5 -53.5q-66 0 -114.5 13t-78.5 40t-42.5 42.5t-29.5 45.5q-178 -141 -337 -141q-157 0 -220.5 59.5t-40.5 167.5q28 130 180.5 213.5t412.5 101.5q33 144 4.5 214.5t-136.5 70.5z" />
    <glyph glyph-name="ccedilla" unicode="&#xe7;" horiz-adv-x="808" 
d="M643 817q-55 0 -107.5 -35.5t-94.5 -101.5t-72 -162t-30 -192q0 -116 51 -180t134 -64q113 0 217 86h7l26 -43q-127 -138 -280 -145l-66 -113q6 2 13 3t13.5 1.5t13.5 1t14 0.5q63 0 97 -35t21 -92q-14 -66 -85.5 -109t-165.5 -43q-72 0 -144 35q7 33 32 54
q71 -29 113 -29q31 0 56 9t42.5 28t22.5 45q4 16 2.5 29t-7.5 22.5t-18 14.5t-29 5q-30 0 -49.5 -2t-45.5 -10l-9 12l110 176q-122 16 -195 104.5t-73 230.5q0 243 168 418q74 77 164 120t175 43q145 0 231 -57l4 -6l-80 -168l-22 -2q-48 151 -154 151z" />
    <glyph glyph-name="egrave" unicode="&#xe8;" horiz-adv-x="874" 
d="M756 745q0 81 -102 80q-215 0 -299 -329q401 17 401 249zM345 425q-2 -18 -4 -45.5t-2 -39.5q0 -87 24 -148t62 -87.5t85 -26.5q73 0 163.5 59.5t134.5 136.5l12 -2q1 -8 3.5 -24t4.5 -29.5t5.5 -28t6.5 -22.5q-61 -86 -169.5 -137t-236.5 -51q-83 0 -147 43.5t-96.5 114
t-32.5 154.5q0 79 21 162.5t66.5 163.5t108 142.5t153 100.5t194.5 38q108 0 158 -43t50 -114q0 -32 -7 -62t-40.5 -76.5t-89.5 -81t-166.5 -63t-260.5 -34.5zM701 1374l89 -258q7 -25 2 -49q-2 -8 -13 -15.5t-23 -7.5q-9 0 -20 9t-30 32l-186 224l8 22q73 47 144 47
q13 0 29 -4z" />
    <glyph glyph-name="eacute" unicode="&#xe9;" horiz-adv-x="874" 
d="M756 745q0 81 -102 80q-215 0 -299 -329q401 17 401 249zM345 425q-2 -18 -4 -45.5t-2 -39.5q0 -87 24 -148t62 -87.5t85 -26.5q73 0 163.5 59.5t134.5 136.5l12 -2q1 -8 3.5 -24t4.5 -29.5t5.5 -28t6.5 -22.5q-61 -86 -169.5 -137t-236.5 -51q-83 0 -147 43.5t-96.5 114
t-32.5 154.5q0 79 21 162.5t66.5 163.5t108 142.5t153 100.5t194.5 38q108 0 158 -43t50 -114q0 -32 -7 -62t-40.5 -76.5t-89.5 -81t-166.5 -63t-260.5 -34.5zM777 1364q13 4 30 4q63 0 102 -47l2 -23l-283 -223q-47 -39 -70 -39q-11 0 -18 8t-5 19q4 21 36 57z" />
    <glyph glyph-name="ecircumflex" unicode="&#xea;" horiz-adv-x="874" 
d="M756 745q0 81 -102 80q-215 0 -299 -329q401 17 401 249zM345 425q-2 -18 -4 -45.5t-2 -39.5q0 -87 24 -148t62 -87.5t85 -26.5q73 0 163.5 59.5t134.5 136.5l12 -2q1 -8 3.5 -24t4.5 -29.5t5.5 -28t6.5 -22.5q-61 -86 -169.5 -137t-236.5 -51q-83 0 -147 43.5t-96.5 114
t-32.5 154.5q0 79 21 162.5t66.5 163.5t108 142.5t153 100.5t194.5 38q108 0 158 -43t50 -114q0 -32 -7 -62t-40.5 -76.5t-89.5 -81t-166.5 -63t-260.5 -34.5zM729 1337q44 -110 151 -264l-49 -29q-122 108 -178 185q-110 -93 -258 -185l-35 29q184 165 267 264h102z" />
    <glyph glyph-name="edieresis" unicode="&#xeb;" horiz-adv-x="874" 
d="M756 745q0 81 -102 80q-215 0 -299 -329q401 17 401 249zM345 425q-2 -18 -4 -45.5t-2 -39.5q0 -87 24 -148t62 -87.5t85 -26.5q73 0 163.5 59.5t134.5 136.5l12 -2q1 -8 3.5 -24t4.5 -29.5t5.5 -28t6.5 -22.5q-61 -86 -169.5 -137t-236.5 -51q-83 0 -147 43.5t-96.5 114
t-32.5 154.5q0 79 21 162.5t66.5 163.5t108 142.5t153 100.5t194.5 38q108 0 158 -43t50 -114q0 -32 -7 -62t-40.5 -76.5t-89.5 -81t-166.5 -63t-260.5 -34.5zM400 1178q5 25 22.5 46.5t42 34.5t49.5 13q38 0 60 -28t14 -66q-4 -19 -15 -36.5t-26.5 -30t-34.5 -20.5t-38 -8
q-38 0 -60 28.5t-14 66.5zM744 1187.5q8 38.5 42 66.5t72.5 28t60 -28t13.5 -66.5t-42 -66t-72 -27.5t-60 27.5t-14 66z" />
    <glyph glyph-name="igrave" unicode="&#xec;" horiz-adv-x="548" 
d="M295 481q55 261 58 371l5 6q98 7 189 41q19 0 15 -20q-49 -146 -96 -365l-31 -145q-47 -223 -58 -369l-5 -6q-3 1 -10 2t-32 2.5t-56 1.5l-101 -6l-1 6q50 139 99 369zM450 1374l88 -258q7 -25 2 -49q-2 -8 -13 -15.5t-23 -7.5q-16 0 -50 41l-186 224l8 22q73 47 144 47
q14 0 30 -4z" />
    <glyph glyph-name="iacute" unicode="&#xed;" horiz-adv-x="548" 
d="M295 481q55 261 58 371l5 6q98 7 189 41q19 0 15 -20q-49 -146 -96 -365l-31 -145q-47 -223 -58 -369l-5 -6q-3 1 -10 2t-32 2.5t-56 1.5l-101 -6l-1 6q50 139 99 369zM638 1393q13 4 29 4q63 0 103 -47l1 -23l-283 -223q-47 -39 -69 -39q-11 0 -18.5 8t-4.5 19
q4 21 35 57z" />
    <glyph glyph-name="icircumflex" unicode="&#xee;" horiz-adv-x="548" 
d="M295 481q55 261 58 371l5 6q98 7 189 41q19 0 15 -20q-49 -146 -96 -365l-31 -145q-47 -223 -58 -369l-5 -6q-3 1 -10 2t-32 2.5t-56 1.5l-101 -6l-1 6q50 139 99 369zM588 1337q44 -110 151 -264l-49 -29q-122 108 -178 185q-110 -93 -258 -185l-35 29q184 165 267 264
h102z" />
    <glyph glyph-name="idieresis" unicode="&#xef;" horiz-adv-x="548" 
d="M295 481q55 261 58 371l5 6q98 7 189 41q19 0 15 -20q-49 -146 -96 -365l-31 -145q-47 -223 -58 -369l-5 -6q-3 1 -10 2t-32 2.5t-56 1.5l-101 -6l-1 6q50 139 99 369zM238 1177.5q8 38.5 42 66.5t72.5 28t60.5 -28t13 -66q-5 -25 -22.5 -47t-42 -35t-49.5 -13
q-38 0 -60 28t-14 66.5zM582 1187.5q8 38.5 42 66.5t72.5 28t60.5 -28t13.5 -66.5t-42 -66t-72 -27.5t-60.5 27.5t-14 66z" />
    <glyph glyph-name="eth" unicode="&#xf0;" horiz-adv-x="1013" 
d="M554 63q41 0 80 16t82.5 55t80 121t58.5 200q29 155 21 274q-25 44 -74 65t-117 21q-59 0 -108 -23t-80.5 -57t-56.5 -84.5t-38.5 -94t-25.5 -97.5q-37 -173 15 -284.5t163 -111.5zM185 424q22 102 67.5 185t100.5 135.5t119.5 88.5t123 51t111.5 15q86 0 152 -29
q-30 148 -120 301l-217 -124l-31 65l207 121l-25 33q-22 30 -51.5 57.5t-69.5 60.5l49 46q32 -20 63.5 -42.5t62.5 -48.5t60 -55l248 146l31 -66l-227 -133l29 -37q255 -324 173 -711q-52 -246 -203 -374.5t-336 -128.5q-121 0 -203.5 67t-109.5 167.5t-4 209.5z" />
    <glyph glyph-name="ntilde" unicode="&#xf1;" horiz-adv-x="1032" 
d="M965 369q-51 -240 -60 -369l-4 -6q-37 6 -98 6l-101 -6v6q41 113 97 369l43 200q25 125 5 166t-93 41q-55 0 -137 -41t-166 -127l-52 -239q-51 -240 -59 -369l-6 -6q-33 6 -96 6l-101 -6l-2 6q49 141 98 369l23 112q49 233 29 365l4 6q84 8 168 43h8t5 -2t3 -6v-13
q4 -66 -4 -153l4 -6q180 184 361 184q248 0 180 -324q-8 -33 -25.5 -103t-23.5 -103zM906 1167q36 0 63.5 22.5t61.5 84.5l46 -12q-76 -184 -217 -185q-51 0 -120 53q-64 45 -101 46q-39 0 -66.5 -23.5t-54.5 -75.5l-47 10q42 93 90 138t113 45q66 0 135 -58q50 -45 97 -45z
" />
    <glyph glyph-name="ograve" unicode="&#xf2;" horiz-adv-x="1003" 
d="M742 1374l89 -258q7 -25 2 -49q-2 -8 -13 -15.5t-23 -7.5q-9 0 -20 9t-31 32l-185 224l8 22q73 47 143 47q14 0 30 -4zM299 709q74 86 177.5 138t220.5 52q91 0 158.5 -27.5t106 -76t56.5 -107t18 -126.5q0 -140 -67.5 -276t-180.5 -218q-121 -88 -291 -88
q-166 0 -255.5 96t-89.5 243q0 221 147 390zM669 815q-111 0 -196 -102.5t-116 -245.5q-15 -71 -15 -139q0 -265 192 -265q116 0 200 107q119 150 119 409q0 236 -184 236z" />
    <glyph glyph-name="oacute" unicode="&#xf3;" horiz-adv-x="1003" 
d="M796 1364q13 4 29 4q63 0 103 -47l1 -23l-283 -223q-47 -39 -69 -39q-11 0 -18.5 8t-5.5 19q4 21 36 57zM299 709q74 86 177.5 138t220.5 52q91 0 158.5 -27.5t106 -76t56.5 -107t18 -126.5q0 -140 -67.5 -276t-180.5 -218q-121 -88 -291 -88q-166 0 -255.5 96t-89.5 243
q0 221 147 390zM669 815q-111 0 -196 -102.5t-116 -245.5q-15 -71 -15 -139q0 -265 192 -265q116 0 200 107q119 150 119 409q0 236 -184 236z" />
    <glyph glyph-name="ocircumflex" unicode="&#xf4;" horiz-adv-x="1003" 
d="M815 1337q44 -109 151 -264l-49 -29q-31 28 -50 45t-43.5 41t-45 48t-39.5 51q-44 -37 -89 -70.5t-82.5 -58.5t-87.5 -56l-34 29q183 164 267 264h102zM299 709q74 86 177.5 138t220.5 52q91 0 158.5 -27.5t106 -76t56.5 -107t18 -126.5q0 -140 -67.5 -276t-180.5 -218
q-121 -88 -291 -88q-166 0 -255.5 96t-89.5 243q0 221 147 390zM669 815q-111 0 -196 -102.5t-116 -245.5q-15 -71 -15 -139q0 -265 192 -265q116 0 200 107q119 150 119 409q0 236 -184 236z" />
    <glyph glyph-name="otilde" unicode="&#xf5;" horiz-adv-x="1003" 
d="M853 1167q36 0 63.5 22.5t61.5 84.5l46 -12q-76 -184 -217 -185q-51 0 -120 53q-64 45 -101 46q-26 0 -47.5 -11t-38.5 -32t-35 -56l-47 10q28 62 57.5 101.5t65.5 60.5t80 21q66 0 135 -58q50 -45 97 -45zM299 709q74 86 177.5 138t220.5 52q91 0 158.5 -27.5t106 -76
t56.5 -107t18 -126.5q0 -140 -67.5 -276t-180.5 -218q-121 -88 -291 -88q-166 0 -255.5 96t-89.5 243q0 221 147 390zM669 815q-111 0 -196 -102.5t-116 -245.5q-15 -71 -15 -139q0 -265 192 -265q116 0 200 107q119 150 119 409q0 236 -184 236z" />
    <glyph glyph-name="odieresis" unicode="&#xf6;" horiz-adv-x="1003" 
d="M299 709q74 86 177.5 138t220.5 52q91 0 158.5 -27.5t106 -76t56.5 -107t18 -126.5q0 -140 -67.5 -276t-180.5 -218q-121 -88 -291 -88q-166 0 -255.5 96t-89.5 243q0 221 147 390zM669 815q-111 0 -196 -102.5t-116 -245.5q-15 -71 -15 -139q0 -265 192 -265
q116 0 200 107q119 150 119 409q0 236 -184 236zM473.5 1177.5q8.5 38.5 42 66.5t72 28t60.5 -28t14 -66.5t-42 -66.5t-72.5 -28t-60.5 28t-13.5 66.5zM817.5 1187.5q8.5 38.5 42 66.5t72 28t60.5 -28t14 -66.5t-42 -66t-72.5 -27.5t-60.5 27.5t-13.5 66z" />
    <glyph glyph-name="divide" unicode="&#xf7;" horiz-adv-x="1079" 
d="M607 751l1 7q13 23 28 39.5t35.5 29.5t48.5 24h7q65 -26 73 -93l-1 -7q-22 -41 -48 -62t-65 -30h-6q-38 9 -54.5 29t-18.5 63zM490 203l2 6q36 64 112 93h7q23 -9 38 -21.5t23.5 -29.5t11.5 -42l-2 -6q-40 -76 -112 -93h-7q-38 9 -54.5 29.5t-18.5 63.5zM1056 526
l-21 -100h-809l21 100h809z" />
    <glyph glyph-name="oslash" unicode="&#xf8;" horiz-adv-x="1003" 
d="M963 977l67 -49l-89 -110q96 -89 95 -256q0 -140 -67.5 -276t-180.5 -218q-121 -88 -291 -88q-115 0 -197 49l-103 -127l-68 55l105 128q-40 45 -61 105t-21 129q0 221 147 390q74 86 177.5 138t220.5 52q101 0 174 -34zM669 815q-111 0 -196 -102.5t-116 -245.5
q-15 -71 -15 -139q0 -55 9 -100l443 543q-23 22 -54 33t-71 11zM839 692l-453 -557q48 -72 148 -72q116 0 200 107q119 150 119 409q0 65 -14 113z" />
    <glyph glyph-name="ugrave" unicode="&#xf9;" horiz-adv-x="1052" 
d="M757 1374l88 -258q7 -25 2 -49q-2 -8 -12.5 -15.5t-22.5 -7.5q-9 0 -20 9t-31 32l-186 224l9 22q73 47 143 47q14 0 30 -4zM739 131q-174 -152 -326 -151q-68 0 -113 24t-62 63.5t-21 89.5t10 101l53 252q28 130 41 208.5t17 160.5l6 6q28 -6 97 -6l101 6l1 -6
q-47 -121 -99 -369l-43 -203q-23 -89 -13.5 -136.5t34.5 -63t79 -15.5q101 0 261 152l57 266q51 239 58 369l5 6q28 -6 97 -6l102 6l1 -6q-47 -121 -99 -369l-25 -117q-23 -106 -35 -211.5t-14 -181.5l-5 -6q-39 6 -90 6q-22 0 -72 -6q-18 0 -17 6l18 131h-4z" />
    <glyph glyph-name="uacute" unicode="&#xfa;" horiz-adv-x="1052" 
d="M884 1364q13 4 29 4q63 0 103 -47l1 -23l-283 -223q-47 -39 -69 -39q-11 0 -18.5 8t-5.5 19q4 21 36 57zM739 131q-174 -152 -326 -151q-68 0 -113 24t-62 63.5t-21 89.5t10 101l53 252q28 130 41 208.5t17 160.5l6 6q28 -6 97 -6l101 6l1 -6q-47 -121 -99 -369l-43 -203
q-23 -89 -13.5 -136.5t34.5 -63t79 -15.5q101 0 261 152l57 266q51 239 58 369l5 6q28 -6 97 -6l102 6l1 -6q-47 -121 -99 -369l-25 -117q-23 -106 -35 -211.5t-14 -181.5l-5 -6q-39 6 -90 6q-22 0 -72 -6q-18 0 -17 6l18 131h-4z" />
    <glyph glyph-name="ucircumflex" unicode="&#xfb;" horiz-adv-x="1052" 
d="M852 1337q44 -109 151 -264l-49 -29q-31 28 -50 45t-43.5 41t-45 48t-39.5 51q-65 -54 -124.5 -96t-134.5 -89l-34 29q183 164 267 264h102zM739 131q-174 -152 -326 -151q-68 0 -113 24t-62 63.5t-21 89.5t10 101l53 252q28 130 41 208.5t17 160.5l6 6q28 -6 97 -6
l101 6l1 -6q-47 -121 -99 -369l-43 -203q-23 -89 -13.5 -136.5t34.5 -63t79 -15.5q101 0 261 152l57 266q51 239 58 369l5 6q28 -6 97 -6l102 6l1 -6q-47 -121 -99 -369l-25 -117q-23 -106 -35 -211.5t-14 -181.5l-5 -6q-39 6 -90 6q-22 0 -72 -6q-18 0 -17 6l18 131h-4z
" />
    <glyph glyph-name="udieresis" unicode="&#xfc;" horiz-adv-x="1052" 
d="M739 131q-174 -152 -326 -151q-68 0 -113 24t-62 63.5t-21 89.5t10 101l53 252q28 130 41 208.5t17 160.5l6 6q28 -6 97 -6l101 6l1 -6q-47 -121 -99 -369l-43 -203q-23 -89 -13.5 -136.5t34.5 -63t79 -15.5q101 0 261 152l57 266q51 239 58 369l5 6q28 -6 97 -6l102 6
l1 -6q-47 -121 -99 -369l-25 -117q-23 -106 -35 -211.5t-14 -181.5l-5 -6q-39 6 -90 6q-22 0 -72 -6q-18 0 -17 6l18 131h-4zM490 1177.5q8 38.5 42 66.5t72.5 28t60 -28t13.5 -66.5t-42 -66.5t-72 -28t-60 28t-14 66.5zM834 1187.5q8 38.5 42 66.5t72.5 28t60.5 -28
t13.5 -66.5t-42.5 -66t-72 -27.5t-60 27.5t-14 66z" />
    <glyph glyph-name="yacute" unicode="&#xfd;" horiz-adv-x="995" 
d="M808 1366q13 4 29 4q63 0 103 -47l1 -23l-283 -223q-47 -39 -69 -39q-11 0 -18.5 8t-4.5 19q4 21 35 57zM225 885q27 -6 105 -6q74 0 102 6q24 -207 124 -706h4q199 292 419 706q19 -6 78 -6q68 0 89 6q-126 -180 -462.5 -692.5t-422.5 -677.5q-32 10 -98 10
q-38 0 -74 -10q179 221 324 446q-15 91 -52.5 281t-75.5 370t-60 273z" />
    <glyph glyph-name="thorn" unicode="&#xfe;" horiz-adv-x="1034" 
d="M467 627l-102 -480q54 -88 156 -88q45 0 84 11.5t69 30.5t55.5 47t43.5 58.5t33.5 69t25.5 74t18 76.5q20 112 17 183.5t-32.5 112.5t-61.5 57t-70 16q-56 0 -121.5 -45t-114.5 -123zM320 -66q-28 -132 -45 -230t-22 -179l-5 -6q-1 0 -3.5 0.5t-10.5 1.5t-18.5 2
t-27.5 1.5t-37 0.5l-102 -6v6q48 129 107 409l224 1053q59 279 63 395l6 7q99 7 191 41q18 0 14 -21q-55 -164 -102 -385l-48 -221l-16 -68q136 164 291 164q97 0 170 -59t102.5 -156t7.5 -203q-47 -223 -204.5 -362t-340.5 -139q-101 0 -175 45z" />
    <glyph glyph-name="ydieresis" unicode="&#xff;" horiz-adv-x="995" 
d="M225 885q27 -6 105 -6q74 0 102 6q24 -207 124 -706h4q199 292 419 706q19 -6 78 -6q68 0 89 6q-126 -180 -462.5 -692.5t-422.5 -677.5q-32 10 -98 10q-38 0 -74 -10q179 221 324 446q-15 91 -52.5 281t-75.5 370t-60 273zM488 1177.5q8 38.5 42 66.5t72.5 28t60 -28
t13.5 -66.5t-42 -66.5t-72 -28t-60 28t-14 66.5zM832 1187.5q8 38.5 42 66.5t72.5 28t60 -28t13.5 -66.5t-42 -66t-72 -27.5t-60 27.5t-14 66z" />
    <glyph glyph-name="Amacron" unicode="&#x100;" horiz-adv-x="1296" 
d="M1225 1487h-499q-27 0 -20 31q4 19 22.5 39t34.5 20h502q29 0 23 -29q-4 -20 -24 -40.5t-39 -20.5zM470 468q-191 -308 -271 -474q-23 6 -90 6q-47 0 -73 -6q508 759 892 1354h57q34 -166 94.5 -483.5t107 -548.5t71.5 -322q-34 6 -121 6q-68 0 -104 -6q-12 183 -59 474
q-145 3 -239 3q-117 0 -265 -3zM958 564q-41 236 -100 505h-4q-263 -409 -323 -504q24 0 102 -2t111 -2q87 0 214 3z" />
    <glyph glyph-name="amacron" unicode="&#x101;" horiz-adv-x="970" 
d="M941 1104h-499q-27 0 -21 31q1 6 4.5 12.5t8 13t10 13t11.5 11t12.5 7t11.5 2.5h502q29 0 22 -29q-4 -20 -23.5 -40.5t-38.5 -20.5zM723 449q23 57 41 142t24 141l7 56q-51 20 -127 21q-88 0 -178.5 -89t-144.5 -214t-54 -234q0 -174 96 -174q51 0 156.5 109t179.5 242z
M836 283q-16 -70 -17 -131q0 -66 60 -66q45 0 98 14l4 -6v-53q-121 -61 -195 -61q-53 0 -90 26.5t-37 81.5q0 39 15 96l26 107l-4 4q-111 -166 -188.5 -240.5t-175.5 -74.5q-117 0 -163 76.5t-46 183.5q0 152 94 308.5t220 250.5t225 94q109 0 163 -6q23 -4 86.5 1t69.5 5z
" />
    <glyph glyph-name="Abreve" unicode="&#x102;" horiz-adv-x="1296" 
d="M1304 1647q-31 -105 -126 -168.5t-201 -63.5q-114 0 -179.5 63t-50.5 169h58q0 -58 55 -91.5t139 -33.5q80 0 153 33.5t95 91.5h57zM470 468q-191 -308 -271 -474q-23 6 -90 6q-47 0 -73 -6q508 759 892 1354h57q34 -166 94.5 -483.5t107 -548.5t71.5 -322q-34 6 -121 6
q-68 0 -104 -6q-12 183 -59 474q-145 3 -239 3q-117 0 -265 -3zM958 564q-41 236 -100 505h-4q-263 -409 -323 -504q24 0 102 -2t111 -2q87 0 214 3z" />
    <glyph glyph-name="abreve" unicode="&#x103;" horiz-adv-x="970" 
d="M495 1325q0 -40 13 -74.5t36.5 -58.5t57.5 -37.5t75 -13.5q83 0 155 49t105 135l50 -25q-44 -126 -141.5 -201t-193.5 -75q-108 0 -166 73t-52 203zM723 449q23 57 41 142t24 141l7 56q-51 20 -127 21q-88 0 -178.5 -89t-144.5 -214t-54 -234q0 -174 96 -174
q51 0 156.5 109t179.5 242zM836 283q-16 -70 -17 -131q0 -66 60 -66q45 0 98 14l4 -6v-53q-121 -61 -195 -61q-53 0 -90 26.5t-37 81.5q0 39 15 96l26 107l-4 4q-111 -166 -188.5 -240.5t-175.5 -74.5q-117 0 -163 76.5t-46 183.5q0 152 94 308.5t220 250.5t225 94
q109 0 163 -6q23 -4 86.5 1t69.5 5z" />
    <glyph glyph-name="Aogonek" unicode="&#x104;" horiz-adv-x="1296" 
d="M1045 -330q-53 -52 -114.5 -83t-112.5 -31q-75 0 -109.5 41.5t-19.5 113.5q36 169 339 346q-16 182 -54 415q-145 3 -239 3q-117 0 -265 -3q-90 -145 -159 -265t-112 -209q-23 6 -90 6q-47 0 -73 -6q508 759 892 1354h57q34 -166 94.5 -483.5t107 -548.5t71.5 -322
q-34 6 -121 6q-68 0 -104 -6q-95 -78 -142 -136.5t-62 -127.5q-7 -34 11.5 -61t56.5 -27q51 0 121 61l6 -2zM958 568q-41 236 -100 505h-4q-263 -409 -323 -504q24 0 102 -2t111 -2q87 0 214 3z" />
    <glyph glyph-name="aogonek" unicode="&#x105;" horiz-adv-x="903" 
d="M682 180l33 111l-4 4q-215 -319 -353 -320q-199 0 -198 281q0 233 173 441t343 208q59 0 170 -12q41 -10 143 -10l-139 -641q-25 -94 -25 -125q0 -16 9.5 -22.5t17.5 -6.5q6 0 14 4l17 10q29 18 94 99l39 -23q-76 -100 -125 -143q-215 -190 -215 -287q0 -37 28.5 -63.5
t77.5 -26.5q43 0 74 17.5t78 56.5l29 -15q-115 -139 -242 -139q-76 0 -123 37t-47 102q0 121 164 265q-49 18 -49 86q0 57 16 112zM737 449q23 57 42.5 146t27.5 148l8 60q-61 39 -133 39q-133 0 -245.5 -188.5t-112.5 -364.5q0 -201 90 -201q49 0 148 111t175 250z" />
    <glyph glyph-name="Cacute" unicode="&#x106;" horiz-adv-x="1331" 
d="M1159 1677q79 -41 105 -106l-320 -119q-63 -25 -92 -25q-13 0 -20 9.5t-4 21.5q5 22 40 43zM1034 1348q111 0 217.5 -23t158.5 -47l51 -23l3 -6q-8 -19 -23 -51t-20.5 -43.5t-14.5 -35t-16 -45t-16 -52.5l-20 -2q-67 231 -369 231q-53 0 -113.5 -18.5t-128.5 -62
t-127 -106.5t-109 -162t-75 -218q-20 -92 -22 -177.5t17 -163t58.5 -134.5t108.5 -91t161 -34q100 0 180 17t165.5 62t172.5 124l41 -31q-131 -134 -289 -205t-310 -71q-128 0 -228 37.5t-159 101.5t-95.5 149.5t-36.5 181t17 195.5q42 196 172 359t303 253.5t346 90.5z" />
    <glyph glyph-name="cacute" unicode="&#x107;" horiz-adv-x="894" 
d="M841 1374q13 4 30 4q63 0 102 -47l1 -22l-282 -224q-18 -15 -31.5 -23.5t-22.5 -11.5t-16 -3q-11 0 -18 8t-5 18q4 21 30 51q4 4 5 6zM704 807q-112 0 -217 -89t-139 -247q-37 -172 32 -276.5t194 -104.5q136 0 253 129h8l34 -33q-29 -41 -63.5 -75t-71 -58t-76 -41
t-77.5 -24.5t-75 -7.5q-194 0 -289 124t-53 322q30 139 123 250t209.5 167t229.5 56q147 0 260 -65l3 -7l-83 -168l-27 -2q-55 150 -175 150z" />
    <glyph glyph-name="Ccircumflex" unicode="&#x108;" horiz-adv-x="1331" 
d="M1125 1651q62 -100 166 -193l-42 -43q-114 58 -190 127q-118 -75 -246 -127l-20 43q102 67 244 193h88zM1034 1348q111 0 217.5 -23t158.5 -47l51 -23l3 -6q-8 -19 -23 -51t-20.5 -43.5t-14.5 -35t-16 -45t-16 -52.5l-20 -2q-67 231 -369 231q-53 0 -113.5 -18.5
t-128.5 -62t-127 -106.5t-109 -162t-75 -218q-20 -92 -22 -177.5t17 -163t58.5 -134.5t108.5 -91t161 -34q100 0 180 17t165.5 62t172.5 124l41 -31q-131 -134 -289 -205t-310 -71q-128 0 -228 37.5t-159 101.5t-95.5 149.5t-36.5 181t17 195.5q42 196 172 359t303 253.5
t346 90.5z" />
    <glyph glyph-name="ccircumflex" unicode="&#x109;" horiz-adv-x="808" 
d="M729 1323q44 -109 151 -264l-49 -29q-42 37 -66 59.5t-55.5 56.5t-56.5 68q-23 -19 -45 -36.5t-43.5 -33.5t-42 -30t-42 -28.5t-42 -27.5t-44.5 -28l-34 29q183 164 267 264h102zM643 817q-55 0 -107.5 -35.5t-94.5 -101.5t-72 -162t-30 -192q0 -116 51 -180t134 -64
q113 0 217 86h7l26 -43q-133 -145 -301 -145q-142 0 -229 91t-87 247q0 243 168 418q74 77 164 120t175 43q145 0 231 -57l4 -6l-80 -168l-22 -2q-48 151 -154 151z" />
    <glyph glyph-name="Cdotaccent" unicode="&#x10a;" horiz-adv-x="1331" 
d="M952.5 1533.5q8.5 41.5 47 73t80 31.5t66 -31.5t16 -73t-46.5 -72.5t-79.5 -31t-66.5 31t-16.5 72.5zM1034 1348q111 0 217.5 -23t158.5 -47l51 -23l3 -6q-8 -19 -23 -51t-20.5 -43.5t-14.5 -35t-16 -45t-16 -52.5l-20 -2q-67 231 -369 231q-53 0 -113.5 -18.5
t-128.5 -62t-127 -106.5t-109 -162t-75 -218q-20 -92 -22 -177.5t17 -163t58.5 -134.5t108.5 -91t161 -34q100 0 180 17t165.5 62t172.5 124l41 -31q-131 -134 -289 -205t-310 -71q-128 0 -228 37.5t-159 101.5t-95.5 149.5t-36.5 181t17 195.5q42 196 172 359t303 253.5
t346 90.5z" />
    <glyph glyph-name="cdotaccent" unicode="&#x10b;" horiz-adv-x="808" 
d="M539 1229q0 41 31.5 72.5t72.5 31.5t73 -31.5t32 -72.5t-32 -73t-73 -32t-72.5 32t-31.5 73zM643 817q-55 0 -107.5 -35.5t-94.5 -101.5t-72 -162t-30 -192q0 -116 51 -180t134 -64q113 0 217 86h7l26 -43q-133 -145 -301 -145q-142 0 -229 91t-87 247q0 243 168 418
q74 77 164 120t175 43q145 0 231 -57l4 -6l-80 -168l-22 -2q-48 151 -154 151z" />
    <glyph glyph-name="Ccaron" unicode="&#x10c;" horiz-adv-x="1331" 
d="M985 1427q-54 90 -165 195l41 41q111 -53 191 -125q133 81 246 125l22 -41q-117 -77 -246 -195h-89zM1034 1348q111 0 217.5 -23t158.5 -47l51 -23l3 -6q-8 -19 -23 -51t-20.5 -43.5t-14.5 -35t-16 -45t-16 -52.5l-20 -2q-67 231 -369 231q-53 0 -113.5 -18.5t-128.5 -62
t-127 -106.5t-109 -162t-75 -218q-20 -92 -22 -177.5t17 -163t58.5 -134.5t108.5 -91t161 -34q100 0 180 17t165.5 62t172.5 124l41 -31q-131 -134 -289 -205t-310 -71q-128 0 -228 37.5t-159 101.5t-95.5 149.5t-36.5 181t17 195.5q42 196 172 359t303 253.5t346 90.5z" />
    <glyph glyph-name="ccaron" unicode="&#x10d;" horiz-adv-x="808" 
d="M578 1028q-51 126 -151 266l47 27q122 -108 178 -184q94 79 260 184l34 -27q-170 -153 -266 -266h-102zM643 817q-55 0 -107.5 -35.5t-94.5 -101.5t-72 -162t-30 -192q0 -116 51 -180t134 -64q113 0 217 86h7l26 -43q-133 -145 -301 -145q-142 0 -229 91t-87 247
q0 243 168 418q74 77 164 120t175 43q145 0 231 -57l4 -6l-80 -168l-22 -2q-48 151 -154 151z" />
    <glyph glyph-name="Dcaron" unicode="&#x10e;" horiz-adv-x="1429" 
d="M899 1427q-54 90 -165 195l41 41q111 -53 191 -125q133 81 246 125l22 -41q-117 -77 -246 -195h-89zM419 168q-8 -35 3 -51t56 -23.5t146 -7.5q77 0 141.5 8t130.5 28t119 57t100.5 90t82.5 132.5t56 180.5q21 100 23.5 189.5t-21 176.5t-74 149.5t-143.5 101t-221 38.5
q-57 0 -92 -5t-62.5 -24t-34.5 -53zM576 1321q66 0 169.5 3t169.5 3q193 0 336.5 -94t203.5 -254.5t21 -347.5q-26 -122 -76.5 -222t-117 -167.5t-141.5 -117t-159 -76.5t-160 -39.5t-153 -12.5q-114 0 -212 2t-162 2l-108 -6l-1 6q50 139 108 410l107 501q56 265 66 410
l5 6q35 -6 104 -6z" />
    <glyph glyph-name="dcaron" unicode="&#x10f;" horiz-adv-x="1081" 
d="M1314 1430q56 0 80 -45.5t11 -104.5q-14 -67 -84.5 -136.5t-170.5 -80.5l-3 35q62 13 106.5 56.5t52.5 84.5q9 43 -19 43q-94 0 -78 78q6 27 34 48.5t71 21.5zM749 236l95 450q-27 64 -64 94.5t-105 30.5q-134 0 -222 -113q-21 -27 -41.5 -69t-38 -93t-28.5 -110.5
t-11 -113.5q0 -112 48.5 -167t131.5 -55q24 0 50.5 9.5t56 28t61 45t67.5 63.5zM726 131q-150 -152 -288 -151q-124 0 -206 91.5t-82 236.5q0 144 62.5 263t162.5 202q73 61 160.5 93.5t181.5 32.5q33 0 83 -13t80 -32l28 133q62 290 66 397l5 7q96 7 183 39q18 0 14 -21
q-44 -138 -96 -385l-134 -631q-50 -238 -51 -342q0 -14 1 -27t3 -24l-5 -6q-39 6 -90 6q-18 0 -68 -6q-14 0 -13 6q3 79 9 131h-6z" />
    <glyph glyph-name="Dcroat" unicode="&#x110;" horiz-adv-x="1429" 
d="M419 168q-8 -35 3 -51t56 -23.5t146 -7.5q77 0 141.5 8t130.5 28t119 57t100.5 90t82.5 132.5t56 180.5q21 100 23.5 189.5t-21 176.5t-74 149.5t-143.5 101t-221 38.5q-57 0 -92 -5t-62.5 -24t-34.5 -53l-104 -485h322l-18 -82h-321zM576 1321q66 0 169.5 3t169.5 3
q193 0 336.5 -94t203.5 -254.5t21 -347.5q-26 -122 -76.5 -222t-117 -167.5t-141.5 -117t-159 -76.5t-160 -39.5t-153 -12.5q-114 0 -212 2t-162 2l-108 -6l-1 6q50 139 108 410l38 178h-172l17 82h172l52 241q56 265 66 410l5 6q35 -6 104 -6z" />
    <glyph glyph-name="dcroat" unicode="&#x111;" horiz-adv-x="1052" 
d="M1349 1171l-15 -79h-198q-8 -36 -15 -68l-134 -631q-23 -106 -35 -211.5t-14 -181.5l-5 -6q-39 6 -90 6q-22 0 -72 -6q-18 0 -17 6l17 131h-4q-28 -28 -60.5 -52t-66 -42.5t-68 -31t-67.5 -19t-63 -6.5q-164 0 -238 122.5t-34 313.5q17 82 58 157t98.5 133.5t126.5 102.5
t147.5 67t157.5 23q33 0 83 -13t80 -32l28 133q12 56 22 105h-245l17 79h242q23 128 25 201l6 6q17 1 33.5 3.5t32 6t28 7t27 8.5t24 8.5t25 9.5t23.5 9q18 0 14 -21q-38 -114 -69 -238h195zM787 223l98 463q-26 63 -63 92t-106 29q-35 0 -70 -7t-81.5 -30t-85 -59.5
t-73.5 -103.5t-54 -154q-37 -176 17.5 -266.5t150.5 -90.5q67 0 133 29.5t134 97.5z" />
    <glyph glyph-name="Emacron" unicode="&#x112;" horiz-adv-x="1069" 
d="M1108 1501h-500q-27 0 -20 31q4 19 22.5 39t35.5 20h501q29 0 23 -28q-4 -20 -23.5 -41t-38.5 -21zM460 410q-52 -243 -47 -299q122 0 267 6t230 12l85 6l3 -8q-11 -33 -19 -68q0 -2 -8 -59l-6 -6q-48 6 -121 6h-559l-108 -6l-1 6q50 139 108 410l106 501q56 265 67 410
l5 6q34 -6 103 -6h539q33 0 66.5 1.5t57.5 4.5l3 -6q-2 -7 -4.5 -16t-4 -14.5t-3.5 -11.5t-3.5 -11.5t-2.5 -10.5q-4 -20 -7 -53l-6 -8q-278 25 -551 25q-11 -22 -31 -96t-32.5 -127.5t-19.5 -86.5l-35 -168q215 0 461 21l5 -6q-6 -14 -11 -28.5t-8 -29.5q-6 -31 -6 -57
l-7 -6q-94 10 -228.5 15t-224.5 5z" />
    <glyph glyph-name="emacron" unicode="&#x113;" horiz-adv-x="874" 
d="M908 1102h-499q-27 0 -20 31q2 7 6 15t10 16t13 14t14.5 10t13.5 4h502q29 0 23 -29q-4 -20 -24 -40.5t-39 -20.5zM756 745q0 81 -102 80q-215 0 -299 -329q401 17 401 249zM345 425q-2 -18 -4 -45.5t-2 -39.5q0 -87 24 -148t62 -87.5t85 -26.5q73 0 163.5 59.5
t134.5 136.5l12 -2q1 -8 3.5 -24t4.5 -29.5t5.5 -28t6.5 -22.5q-61 -86 -169.5 -137t-236.5 -51q-83 0 -147 43.5t-96.5 114t-32.5 154.5q0 79 21 162.5t66.5 163.5t108 142.5t153 100.5t194.5 38q108 0 158 -43t50 -114q0 -32 -7 -62t-40.5 -76.5t-89.5 -81t-166.5 -63
t-260.5 -34.5z" />
    <glyph glyph-name="Ebreve" unicode="&#x114;" horiz-adv-x="1069" 
d="M1202 1645q-16 -53 -50.5 -97.5t-79.5 -73.5t-96 -45t-102 -16q-114 0 -179 63t-50 169h57q0 -58 55 -91.5t139 -33.5q80 0 153 33.5t95 91.5h58zM460 410q-52 -243 -47 -299q122 0 267 6t230 12l85 6l3 -8q-11 -33 -19 -68q0 -2 -8 -59l-6 -6q-48 6 -121 6h-559l-108 -6
l-1 6q50 139 108 410l106 501q56 265 67 410l5 6q34 -6 103 -6h539q33 0 66.5 1.5t57.5 4.5l3 -6q-2 -7 -4.5 -16t-4 -14.5t-3.5 -11.5t-3.5 -11.5t-2.5 -10.5q-4 -20 -7 -53l-6 -8q-278 25 -551 25q-11 -22 -31 -96t-32.5 -127.5t-19.5 -86.5l-35 -168q215 0 461 21l5 -6
q-6 -14 -11 -28.5t-8 -29.5q-6 -31 -6 -57l-7 -6q-94 10 -228.5 15t-224.5 5z" />
    <glyph glyph-name="ebreve" unicode="&#x115;" horiz-adv-x="874" 
d="M515 1327q0 -54 22.5 -95.5t64 -65t96.5 -23.5q83 0 155 49t105 135l50 -24q-44 -126 -141.5 -201.5t-193.5 -75.5q-108 0 -166 73t-52 204zM756 745q0 81 -102 80q-215 0 -299 -329q401 17 401 249zM345 425q-2 -18 -4 -45.5t-2 -39.5q0 -87 24 -148t62 -87.5t85 -26.5
q73 0 163.5 59.5t134.5 136.5l12 -2q1 -8 3.5 -24t4.5 -29.5t5.5 -28t6.5 -22.5q-61 -86 -169.5 -137t-236.5 -51q-83 0 -147 43.5t-96.5 114t-32.5 154.5q0 79 21 162.5t66.5 163.5t108 142.5t153 100.5t194.5 38q108 0 158 -43t50 -114q0 -32 -7 -62t-40.5 -76.5
t-89.5 -81t-166.5 -63t-260.5 -34.5z" />
    <glyph glyph-name="Edotaccent" unicode="&#x116;" horiz-adv-x="1069" 
d="M791 1515.5q9 41.5 47 73t79.5 31.5t66.5 -31.5t16 -73t-47 -73t-79.5 -31.5t-66.5 31.5t-16 73zM460 410q-52 -243 -47 -299q122 0 267 6t230 12l85 6l3 -8q-11 -33 -19 -68q0 -2 -8 -59l-6 -6q-48 6 -121 6h-559l-108 -6l-1 6q50 139 108 410l106 501q56 265 67 410
l5 6q34 -6 103 -6h539q33 0 66.5 1.5t57.5 4.5l3 -6q-2 -7 -4.5 -16t-4 -14.5t-3.5 -11.5t-3.5 -11.5t-2.5 -10.5q-4 -20 -7 -53l-6 -8q-278 25 -551 25q-11 -22 -31 -96t-32.5 -127.5t-19.5 -86.5l-35 -168q215 0 461 21l5 -6q-6 -14 -11 -28.5t-8 -29.5q-6 -31 -6 -57
l-7 -6q-94 10 -228.5 15t-224.5 5z" />
    <glyph glyph-name="edotaccent" unicode="&#x117;" horiz-adv-x="874" 
d="M557 1087.5q0 40.5 32 72.5t72.5 32t72.5 -32t32 -72.5t-32 -72.5t-72.5 -32t-72.5 32t-32 72.5zM756 745q0 81 -102 80q-215 0 -299 -329q401 17 401 249zM345 425q-2 -18 -4 -45.5t-2 -39.5q0 -87 24 -148t62 -87.5t85 -26.5q73 0 163.5 59.5t134.5 136.5l12 -2
q1 -8 3.5 -24t4.5 -29.5t5.5 -28t6.5 -22.5q-61 -86 -169.5 -137t-236.5 -51q-83 0 -147 43.5t-96.5 114t-32.5 154.5q0 79 21 162.5t66.5 163.5t108 142.5t153 100.5t194.5 38q108 0 158 -43t50 -114q0 -32 -7 -62t-40.5 -76.5t-89.5 -81t-166.5 -63t-260.5 -34.5z" />
    <glyph glyph-name="Eogonek" unicode="&#x118;" horiz-adv-x="1069" 
d="M607 -459q-84 0 -127.5 46.5t-25.5 127.5q16 74 89.5 154t175.5 131h-434l-108 -6l-1 6q50 139 108 410l106 501q56 265 67 410l5 6q34 -6 103 -6h539q33 0 66.5 1.5t57.5 4.5l3 -6q-2 -7 -4.5 -16t-4 -14.5t-3.5 -11.5t-3.5 -11.5t-2.5 -10.5q-4 -20 -7 -53l-6 -8
q-278 25 -551 25q-11 -22 -31 -96t-32.5 -127.5t-19.5 -86.5l-35 -168q215 0 461 21l5 -6q-6 -14 -11 -28.5t-8 -29.5q-6 -31 -6 -57l-7 -6q-94 10 -228.5 15t-224.5 5l-52 -247q-52 -243 -47 -299q122 0 267 6t230 12l85 6l3 -8q-11 -33 -19 -68q0 -2 -8 -59l-6 -6
q-14 2 -32.5 3t-40.5 2q-56 -4 -110.5 -31t-95 -64.5t-68.5 -80.5t-36 -81q-7 -33 1.5 -60.5t32 -44t59.5 -16.5q73 0 159 74l27 -17q-49 -67 -120.5 -102t-133.5 -35z" />
    <glyph glyph-name="eogonek" unicode="&#x119;" horiz-adv-x="894" 
d="M336 432q68 6 142.5 26.5t154.5 56.5t131 100.5t51 144.5q0 82 -123 82q-96 0 -202.5 -100.5t-153.5 -309.5zM958 758q0 -29 -11 -62.5t-51 -84t-104.5 -92.5t-185.5 -81t-280 -59q-2 -16 -2 -41q0 -129 61 -196.5t141 -67.5q135 0 297 176l45 -33q-76 -106 -168 -168
q-225 -174 -225 -305q0 -37 28.5 -64.5t78.5 -27.5q68 0 151 74l29 -15q-113 -137 -242 -137q-76 0 -123 35t-47 100q0 127 172 271q-45 -4 -69 -5q-150 0 -224.5 88.5t-74.5 227.5q0 135 70.5 274.5t208.5 239.5t304 100q115 0 168 -43t53 -104z" />
    <glyph glyph-name="Ecaron" unicode="&#x11a;" horiz-adv-x="1069" 
d="M852 1427q-54 90 -165 195l41 41q111 -53 191 -125q133 81 245 125l22 -41q-117 -77 -246 -195h-88zM460 410q-52 -243 -47 -299q122 0 267 6t230 12l85 6l3 -8q-11 -33 -19 -68q0 -2 -8 -59l-6 -6q-48 6 -121 6h-559l-108 -6l-1 6q50 139 108 410l106 501q56 265 67 410
l5 6q34 -6 103 -6h539q33 0 66.5 1.5t57.5 4.5l3 -6q-2 -7 -4.5 -16t-4 -14.5t-3.5 -11.5t-3.5 -11.5t-2.5 -10.5q-4 -20 -7 -53l-6 -8q-278 25 -551 25q-11 -22 -31 -96t-32.5 -127.5t-19.5 -86.5l-35 -168q215 0 461 21l5 -6q-6 -14 -11 -28.5t-8 -29.5q-6 -31 -6 -57
l-7 -6q-94 10 -228.5 15t-224.5 5z" />
    <glyph glyph-name="ecaron" unicode="&#x11b;" horiz-adv-x="874" 
d="M598 1026q-51 126 -150 266l47 27q122 -108 178 -184q94 79 260 184l33 -27q-170 -153 -265 -266h-103zM756 745q0 81 -102 80q-215 0 -299 -329q401 17 401 249zM345 425q-2 -18 -4 -45.5t-2 -39.5q0 -87 24 -148t62 -87.5t85 -26.5q73 0 163.5 59.5t134.5 136.5l12 -2
q1 -8 3.5 -24t4.5 -29.5t5.5 -28t6.5 -22.5q-61 -86 -169.5 -137t-236.5 -51q-83 0 -147 43.5t-96.5 114t-32.5 154.5q0 79 21 162.5t66.5 163.5t108 142.5t153 100.5t194.5 38q108 0 158 -43t50 -114q0 -32 -7 -62t-40.5 -76.5t-89.5 -81t-166.5 -63t-260.5 -34.5z" />
    <glyph glyph-name="Gcircumflex" unicode="&#x11c;" horiz-adv-x="1431" 
d="M1139 1649q62 -100 166 -193l-42 -43q-114 58 -190 127q-118 -75 -246 -127l-20 43q102 67 244 193h88zM1169 240q55 282 62 389l6 6q34 -6 103 -6l108 6l1 -6q-50 -137 -95 -348l-3 -13q-15 -73 0 -98l-1 -6q-259 -184 -584 -184q-201 0 -345 88t-201.5 236.5
t-20.5 324.5q35 163 126.5 301t212 228t258.5 140t271 50q111 0 217.5 -23t157.5 -47l52 -23l2 -6q-8 -19 -23 -51t-20 -43.5t-14 -35t-16 -45t-16 -52.5l-21 -2q-67 231 -368 231q-210 0 -376.5 -158t-222.5 -423q-14 -83 -14 -166t30 -160.5t78 -137.5t131 -96t189 -36
q218 0 317 78z" />
    <glyph glyph-name="gcircumflex" unicode="&#x11d;" horiz-adv-x="937" 
d="M752 1403q44 -109 150 -264l-49 -29q-25 22 -39.5 35.5t-36 33.5t-36.5 36t-32.5 37t-33.5 42q-34 -28 -66 -53t-64.5 -47.5t-62 -42t-65.5 -41.5l-35 29q183 164 267 264h103zM305 -10q-80 -57 -94 -76q-59 -72 -59 -162q0 -74 72.5 -112.5t137.5 -38.5q260 0 357 59
q49 31 49 92q0 82 -68 127q-102 68 -356 109h-19.5t-19.5 2zM565 283q-123 0 -172 47q-98 -74 -98 -127q0 -61 129 -92q16 -4 85 -18.5t96.5 -22t76.5 -20.5t81 -27.5t54 -30.5q86 -59 86 -187q0 -143 -135 -219q-133 -74 -453 -73q-127 0 -220 49t-93 131q0 123 80 215
q41 47 143 104q-63 39 -63 131q0 68 50 125.5t126 93.5q-90 80 -90 220q0 143 106.5 230t251.5 87q33 0 94.5 -8t77.5 -8q57 0 95 24.5t38 75.5q0 29 -22 53l2 8q43 14 47 17q37 18 51 31l8 -2q33 -49 33 -119q0 -57 -40 -96t-105 -39h-43l-6 -5q92 -92 92 -208
q0 -158 -108 -249t-255 -91zM768 610q0 94 -47 151.5t-129 57.5q-88 0 -136 -67.5t-48 -161.5q0 -92 46 -160t130 -68q72 0 128 66.5t56 181.5z" />
    <glyph glyph-name="Gbreve" unicode="&#x11e;" horiz-adv-x="1431" 
d="M1391 1651q-31 -105 -126 -168.5t-201 -63.5q-114 0 -179.5 63t-50.5 169h57q0 -58 55.5 -91.5t139.5 -33.5q80 0 152.5 34t95.5 91h57zM1169 240q55 282 62 389l6 6q34 -6 103 -6l108 6l1 -6q-50 -137 -95 -348l-3 -13q-15 -73 0 -98l-1 -6q-259 -184 -584 -184
q-201 0 -345 88t-201.5 236.5t-20.5 324.5q35 163 126.5 301t212 228t258.5 140t271 50q111 0 217.5 -23t157.5 -47l52 -23l2 -6q-8 -19 -23 -51t-20 -43.5t-14 -35t-16 -45t-16 -52.5l-21 -2q-67 231 -368 231q-210 0 -376.5 -158t-222.5 -423q-14 -83 -14 -166t30 -160.5
t78 -137.5t131 -96t189 -36q218 0 317 78z" />
    <glyph glyph-name="gbreve" unicode="&#x11f;" horiz-adv-x="937" 
d="M475 1319q0 -40 12.5 -74.5t36 -58.5t58 -37.5t75.5 -13.5q54 0 104 20.5t92 63t64 100.5l50 -25q-44 -126 -141.5 -201t-193.5 -75q-108 0 -166 73t-52 203zM305 -10q-80 -57 -94 -76q-59 -72 -59 -162q0 -74 72.5 -112.5t137.5 -38.5q260 0 357 59q49 31 49 92
q0 82 -68 127q-102 68 -356 109h-19.5t-19.5 2zM565 283q-123 0 -172 47q-98 -74 -98 -127q0 -61 129 -92q16 -4 85 -18.5t96.5 -22t76.5 -20.5t81 -27.5t54 -30.5q86 -59 86 -187q0 -143 -135 -219q-133 -74 -453 -73q-127 0 -220 49t-93 131q0 123 80 215q41 47 143 104
q-63 39 -63 131q0 68 50 125.5t126 93.5q-90 80 -90 220q0 143 106.5 230t251.5 87q33 0 94.5 -8t77.5 -8q57 0 95 24.5t38 75.5q0 29 -22 53l2 8q43 14 47 17q37 18 51 31l8 -2q33 -49 33 -119q0 -57 -40 -96t-105 -39h-43l-6 -5q92 -92 92 -208q0 -158 -108 -249t-255 -91
zM768 610q0 94 -47 151.5t-129 57.5q-88 0 -136 -67.5t-48 -161.5q0 -92 46 -160t130 -68q72 0 128 66.5t56 181.5z" />
    <glyph glyph-name="Gdotaccent" unicode="&#x120;" horiz-adv-x="1431" 
d="M991 1542q4 20 17 39.5t30.5 33.5t38.5 23t41 9q41 0 66 -31.5t16 -73.5q-6 -27 -25.5 -51t-46.5 -38.5t-54 -14.5q-41 0 -66.5 31.5t-16.5 72.5zM1169 240q55 282 62 389l6 6q34 -6 103 -6l108 6l1 -6q-50 -137 -95 -348l-3 -13q-15 -73 0 -98l-1 -6
q-259 -184 -584 -184q-201 0 -345 88t-201.5 236.5t-20.5 324.5q35 163 126.5 301t212 228t258.5 140t271 50q111 0 217.5 -23t157.5 -47l52 -23l2 -6q-8 -19 -23 -51t-20 -43.5t-14 -35t-16 -45t-16 -52.5l-21 -2q-67 231 -368 231q-210 0 -376.5 -158t-222.5 -423
q-14 -83 -14 -166t30 -160.5t78 -137.5t131 -96t189 -36q218 0 317 78z" />
    <glyph glyph-name="gdotaccent" unicode="&#x121;" horiz-adv-x="937" 
d="M538 1164.5q0 41.5 31.5 73t73 31.5t73 -31.5t31.5 -73t-31.5 -73t-73 -31.5t-73 31.5t-31.5 73zM305 -10q-80 -57 -94 -76q-59 -72 -59 -162q0 -74 72.5 -112.5t137.5 -38.5q260 0 357 59q49 31 49 92q0 82 -68 127q-102 68 -356 109h-19.5t-19.5 2zM565 283
q-123 0 -172 47q-98 -74 -98 -127q0 -61 129 -92q16 -4 85 -18.5t96.5 -22t76.5 -20.5t81 -27.5t54 -30.5q86 -59 86 -187q0 -143 -135 -219q-133 -74 -453 -73q-127 0 -220 49t-93 131q0 123 80 215q41 47 143 104q-63 39 -63 131q0 68 50 125.5t126 93.5q-90 80 -90 220
q0 143 106.5 230t251.5 87q33 0 94.5 -8t77.5 -8q57 0 95 24.5t38 75.5q0 29 -22 53l2 8q43 14 47 17q37 18 51 31l8 -2q33 -49 33 -119q0 -57 -40 -96t-105 -39h-43l-6 -5q92 -92 92 -208q0 -158 -108 -249t-255 -91zM768 610q0 94 -47 151.5t-129 57.5q-88 0 -136 -67.5
t-48 -161.5q0 -92 46 -160t130 -68q72 0 128 66.5t56 181.5z" />
    <glyph glyph-name="Gcommaaccent" unicode="&#x122;" horiz-adv-x="1394" 
d="M750 -127q58 0 82.5 -48t7.5 -128q-37 -168 -260 -203q-13 16 -6 49q50 11 90 30t61 39.5t25 39.5q6 28 -7.5 39t-44.5 14q-83 15 -69 80q5 24 22.5 44.5t43.5 32t55 11.5zM1128 240q55 282 63 389l5 6q34 -6 103 -6l108 6l1 -6q-50 -137 -95 -348l-3 -13q-15 -73 0 -98
l-1 -6q-130 -93 -261.5 -138.5t-302.5 -45.5q-199 0 -334 94t-182 245t-9 330q70 330 297.5 514.5t528.5 184.5q111 0 213 -23t148 -47l46 -23l3 -6q-8 -19 -23.5 -51t-20.5 -43.5t-14 -35t-16 -45t-16 -52.5l-21 -2q-36 125 -112 178t-215 53q-210 0 -366 -148t-213 -413
q-9 -41 -13.5 -83t-4.5 -85t5 -84.5t15 -81t27 -75.5t39 -68t53 -57.5t68 -43.5t84 -28t100 -10q198 0 297 78z" />
    <glyph glyph-name="gcommaaccent" unicode="&#x123;" horiz-adv-x="937" 
d="M642 1047q-56 0 -81.5 45t-13.5 104q16 76 76 135q34 34 82.5 57.5t105.5 30.5q8 -10 2 -41q-57 -12 -99.5 -36t-62 -49.5t-25.5 -51.5q-2 -10 -2 -15.5t1 -9t6.5 -4t10.5 0t16.5 1t21.5 0.5q55 0 73 -25.5t11 -58.5q-6 -29 -39.5 -56t-82.5 -27zM305 -10
q-80 -57 -94 -76q-59 -72 -59 -162q0 -74 72.5 -112.5t137.5 -38.5q260 0 357 59q49 31 49 92q0 82 -68 127q-102 68 -356 109h-19.5t-19.5 2zM565 283q-123 0 -172 47q-98 -74 -98 -127q0 -61 129 -92q16 -4 85 -18.5t96.5 -22t76.5 -20.5t81 -27.5t54 -30.5
q86 -59 86 -187q0 -143 -135 -219q-133 -74 -453 -73q-127 0 -220 49t-93 131q0 123 80 215q41 47 143 104q-63 39 -63 131q0 68 50 125.5t126 93.5q-90 80 -90 220q0 143 106.5 230t251.5 87q33 0 94.5 -8t77.5 -8q57 0 95 24.5t38 75.5q0 29 -22 53l2 8q43 14 47 17
q37 18 51 31l8 -2q33 -49 33 -119q0 -57 -40 -96t-105 -39h-43l-6 -5q92 -92 92 -208q0 -158 -108 -249t-255 -91zM768 610q0 94 -47 151.5t-129 57.5q-88 0 -136 -67.5t-48 -161.5q0 -92 46 -160t130 -68q72 0 128 66.5t56 181.5z" />
    <glyph glyph-name="Hcircumflex" unicode="&#x124;" horiz-adv-x="1413" 
d="M1220 911q56 265 66 410l6 6q1 0 3.5 -0.5t12.5 -1.5t20.5 -2t28.5 -1.5t38 -0.5q32 0 59 1.5t38 3.5l11 1v-6q-50 -136 -107 -410l-107 -501q-56 -265 -66 -410l-6 -6q-34 6 -103 6l-108 -6v6q50 139 107 410l53 247h-639l-53 -247q-56 -265 -66 -410l-6 -6
q-4 1 -11.5 2t-34 2.5t-57.5 1.5l-108 -6l-1 6q50 139 108 410l107 501q56 265 66 410l6 6q34 -6 103 -6l108 6v-6q-50 -136 -107 -410l-36 -168h639zM1075 1645q62 -100 166 -193l-42 -43q-114 58 -190 127q-118 -75 -246 -127l-20 43q102 67 244 193h88z" />
    <glyph glyph-name="hcircumflex" unicode="&#x125;" horiz-adv-x="1052" 
d="M858 1704q62 -100 166 -193l-42 -43q-114 58 -190 127q-118 -75 -246 -127l-20 43q102 67 244 193h88zM799 369l46 215q21 81 12 125t-36 58.5t-87 14.5q-93 0 -278 -149l-56 -264q-49 -232 -58 -369l-5 -6q-3 1 -9.5 2t-31.5 2.5t-56 1.5l-102 -6l-1 6q20 53 37 112
t31 116.5t31 140.5l131 616q62 293 66 399l5 7q96 7 183 39q19 0 14 -21q-49 -165 -96 -383l-61 -289q196 162 373 162q225 0 157 -317l-45 -213q-27 -126 -40 -206t-18 -163l-5 -6q-27 6 -97 6l-102 -6l-1 6q48 130 99 369z" />
    <glyph glyph-name="Hbar" unicode="&#x126;" horiz-adv-x="1433" 
d="M1186 657h-659l-53 -247q-56 -265 -66 -410l-6 -6q-4 1 -11.5 2t-34 2.5t-57.5 1.5l-108 -6l-1 6q50 139 108 410l107 501q15 69 27 138h-125l15 69h123q20 117 26 203l6 6q34 -6 103 -6l108 6v-6q-29 -80 -60 -203h653q10 57 16.5 107.5t9.5 95.5l5 6q2 0 5 -0.5t6.5 -1
t9 -1t11.5 -1t14 -1t16.5 -1t19 -0.5h21.5q32 0 59 1.5t38 3.5l11 1l1 -6q-29 -80 -60 -203h117l-15 -69h-119q-8 -34 -15.5 -68.5t-15.5 -69.5l-106 -501q-56 -265 -67 -410l-5 -6q-34 6 -103 6l-108 -6l-1 6q50 139 108 410zM1205 743l35 168q15 69 28 138h-657
q-16 -70 -30 -138l-36 -168h660z" />
    <glyph glyph-name="hbar" unicode="&#x127;" horiz-adv-x="1064" 
d="M812 369l45 215q21 81 12.5 125t-36 58.5t-87.5 14.5q-93 0 -278 -149l-56 -264q-49 -232 -58 -369l-5 -6q-3 1 -9.5 2t-31.5 2.5t-56 1.5l-102 -6v6q29 77 50.5 160.5t47.5 208.5l131 616q16 77 21 100h-116l17 80h114q24 134 26 207l6 6q20 1 40 4.5t34.5 7t33 9.5
t28.5 9.5t29.5 11t27.5 10.5q18 0 14 -21q-40 -119 -71 -244h363l-17 -80h-364q-1 -4 -2 -7t-1.5 -7t-1.5 -7.5t-1.5 -7t-1.5 -7.5t-2 -7.5t-1.5 -7.5t-1.5 -8l-62 -289q196 162 373 162q225 0 158 -317l-46 -213q-27 -126 -39.5 -206t-17.5 -163l-6 -6q-27 6 -97 6l-101 -6
l-1 6q48 130 99 369z" />
    <glyph glyph-name="Itilde" unicode="&#x128;" horiz-adv-x="600" 
d="M759 1518q36 0 63.5 22t61.5 84l46 -12q-76 -184 -217 -185q-51 0 -120 54q-64 45 -101 45q-20 0 -36.5 -6t-31 -18.5t-27 -30.5t-26.5 -44l-47 11q42 93 90 137.5t113 44.5q66 0 135 -57q24 -21 47 -33t50 -12zM411 911q56 265 66 410l6 6q34 -6 103 -6l108 6v-6
q-50 -136 -107 -410l-107 -501q-56 -265 -66 -410l-6 -6q-4 1 -11 2t-34 2.5t-58 1.5l-108 -6v6q50 139 107 410z" />
    <glyph glyph-name="itilde" unicode="&#x129;" horiz-adv-x="548" 
d="M648 1167q32 0 57.5 22.5t56.5 84.5l42 -12q-24 -61 -54 -102.5t-66.5 -62t-78.5 -20.5q-28 0 -53 14t-54 39q-18 14 -30 22.5t-28.5 16t-31.5 7.5q-24 0 -43 -11t-35 -32t-33 -56l-42 10q16 37 31.5 65.5t33 51t36.5 37t40 22t45 7.5q59 0 120 -58q6 -6 11 -10.5t11 -9
t11.5 -8t12 -7t13 -5.5t14 -3.5t14.5 -1.5zM295 481q53 252 56 361l5 6q15 1 30 3t27.5 4.5t26 6t23.5 6.5t23 7.5t21.5 7.5t21.5 8t20 8q19 0 15 -20q-54 -156 -98 -365l-31 -145q-47 -223 -58 -369l-5 -6q-3 1 -10 2t-32 2.5t-56 1.5l-101 -6l-1 6q50 139 99 369z" />
    <glyph glyph-name="Imacron" unicode="&#x12a;" horiz-adv-x="600" 
d="M862 1501h-500q-27 0 -20 31q4 19 22.5 39t35.5 20h502q29 0 22 -28q-4 -20 -23.5 -41t-38.5 -21zM411 911q56 265 66 410l6 6q34 -6 103 -6l108 6v-6q-50 -136 -107 -410l-107 -501q-56 -265 -66 -410l-6 -6q-4 1 -11 2t-34 2.5t-58 1.5l-108 -6v6q50 139 107 410z" />
    <glyph glyph-name="imacron" unicode="&#x12b;" horiz-adv-x="548" 
d="M726 1102h-450q-24 0 -18 31q4 19 21.5 39t32.5 20h451q26 0 20 -29q-2 -9 -8 -19.5t-14 -20t-17 -15.5t-18 -6zM295 481q53 252 56 361l5 6q15 1 30 3t27.5 4.5t26 6t23.5 6.5t23 7.5t21.5 7.5t21.5 8t20 8q19 0 15 -20q-54 -156 -98 -365l-31 -145q-47 -223 -58 -369
l-5 -6q-3 1 -10 2t-32 2.5t-56 1.5l-101 -6l-1 6q50 139 99 369z" />
    <glyph glyph-name="Ibreve" unicode="&#x12c;" horiz-adv-x="600" 
d="M934 1649q-31 -105 -126 -168.5t-202 -63.5q-114 0 -179 63t-50 169h57q0 -58 55.5 -91.5t139.5 -33.5q51 0 101.5 14t91 43t55.5 68h57zM411 911q56 265 66 410l6 6q34 -6 103 -6l108 6v-6q-50 -136 -107 -410l-107 -501q-56 -265 -66 -410l-6 -6q-4 1 -11 2t-34 2.5
t-58 1.5l-108 -6v6q50 139 107 410z" />
    <glyph glyph-name="ibreve" unicode="&#x12d;" horiz-adv-x="548" 
d="M343 1331q0 -82 45 -133t119 -51t139 49t95 135l45 -24q-27 -85 -78.5 -149.5t-109.5 -96t-113 -31.5q-97 0 -149.5 73.5t-46.5 203.5zM295 481q55 261 58 371l5 6q98 7 189 41q19 0 15 -20q-49 -146 -96 -365l-31 -145q-47 -223 -58 -369l-5 -6q-3 1 -10 2t-32 2.5
t-56 1.5l-101 -6l-1 6q50 139 99 369z" />
    <glyph glyph-name="Iogonek" unicode="&#x12e;" horiz-adv-x="600" 
d="M91 -461q-84 0 -127.5 46.5t-26.5 127.5q16 73 88 152t172 130v5q50 139 107 410l107 501q56 265 66 410l6 6q34 -6 103 -6l108 6v-6q-50 -136 -107 -410l-107 -501q-56 -265 -66 -410l-6 -6q-10 2 -30 3q-110 -8 -202.5 -91t-109.5 -166q-10 -51 14 -86t79 -35
q76 0 159 74l27 -17q-49 -67 -120.5 -102t-133.5 -35z" />
    <glyph glyph-name="iogonek" unicode="&#x12f;" horiz-adv-x="548" 
d="M45 -461q-85 0 -127.5 46.5t-25.5 127.5q16 77 95 160.5t187 132.5q49 137 97 363l24 112q53 252 56 361l5 6q15 1 30 3t27.5 4.5t26 6t23.5 6.5t23 7.5t21.5 7.5t21.5 8t20 8q19 0 15 -20q-54 -156 -98 -365l-31 -145q-47 -223 -58 -369l-5 -6l-32 4
q-75 -3 -147.5 -46.5t-116.5 -101t-56 -110.5q-10 -51 14.5 -86t79.5 -35q74 0 157 74l29 -17q-48 -67 -121 -102t-134 -35zM418 1167q6 27 25.5 51.5t47 39t54.5 14.5q41 0 66 -31.5t16 -73t-47 -73t-79.5 -31.5t-66.5 31.5t-16 72.5z" />
    <glyph glyph-name="Idotaccent" unicode="&#x130;" horiz-adv-x="600" 
d="M521 1536q3 16 12 32t22 29t28 22.5t32 15t33 5.5q41 0 66 -31.5t16 -72.5q-6 -27 -25.5 -51.5t-47 -38.5t-54.5 -14q-41 0 -66 31.5t-16 72.5zM411 911q56 265 66 410l6 6q34 -6 103 -6l108 6v-6q-50 -136 -107 -410l-107 -501q-56 -265 -66 -410l-6 -6q-4 1 -11 2
t-34 2.5t-58 1.5l-108 -6v6q50 139 107 410z" />
    <glyph glyph-name="dotlessi" unicode="&#x131;" horiz-adv-x="548" 
d="M295 481q55 261 58 371l5 6q98 7 189 41q19 0 15 -20q-49 -146 -96 -365l-31 -145q-47 -223 -58 -369l-5 -6q-3 1 -10 2t-32 2.5t-56 1.5l-101 -6l-1 6q50 139 99 369z" />
    <glyph glyph-name="IJ" unicode="&#x132;" horiz-adv-x="1204" 
d="M887 195l153 716q56 265 66 410l5 6q1 0 4 -0.5t12.5 -1.5t20.5 -2t29 -1.5t38 -0.5q32 0 58.5 1.5t37.5 3.5l11 1l1 -6q-50 -136 -107 -410l-143 -671q-37 -174 -77 -251.5t-145 -185.5q-154 -156 -357 -155q-63 0 -88 18v6q35 44 92 168l23 2q24 -72 104 -71
q34 0 63.5 14.5t52.5 37t43.5 58.5t34.5 70.5t28 81t22 81.5t18 81zM411 911q56 265 66 410l6 6q34 -6 103 -6l108 6v-6q-50 -136 -107 -410l-107 -501q-56 -265 -66 -410l-6 -6q-4 1 -11 2t-34 2.5t-58 1.5l-108 -6v6q50 139 107 410z" />
    <glyph glyph-name="ij" unicode="&#x133;" horiz-adv-x="1097" 
d="M763 131h-4q-174 -152 -325 -151q-68 0 -113.5 24t-62 63.5t-20.5 89.5t9 101l48 223q55 261 58 371l5 6q98 7 189 41q19 0 15 -20q-50 -147 -97 -369l-43 -203q-23 -89 -13.5 -136.5t34.5 -63t78 -15.5q101 0 262 152l51 237q55 261 58 371l5 6q98 7 189 41q19 0 14 -20
q-30 -89 -50.5 -167.5t-46.5 -201.5l-24 -117q-8 -39 -81 -397q-22 -109 -50 -164.5t-96 -126.5q-68 -72 -141 -106.5t-161 -34.5q-58 0 -83 16v6q16 21 36 77.5t29 74.5l21 2q8 -25 13 -35t21 -20.5t42 -10.5q143 0 185 197q2 9 7 39t16 88.5t26 132.5zM948 1229
q0 41 32 72.5t73 31.5t72.5 -31.5t31.5 -72.5t-31.5 -73t-72.5 -32t-73 32t-32 73zM412 1229q0 41 31.5 72.5t72.5 31.5t73 -31.5t32 -72.5t-32 -73t-73 -32t-72.5 32t-31.5 73z" />
    <glyph glyph-name="Jcircumflex" unicode="&#x134;" horiz-adv-x="645" 
d="M758 1649q62 -100 166 -193l-42 -43q-114 58 -190 127q-118 -75 -246 -127l-20 43q102 67 244 193h88zM328 195l152 716q56 265 67 410l5 6q34 -6 104 -6l107 6l1 -6q-50 -136 -107 -410l-143 -671q-26 -121 -51 -189t-61.5 -120.5t-109.5 -127.5q-154 -156 -357 -155
q-63 0 -88 18l-1 6q35 44 93 168l23 2q24 -72 104 -71q46 0 85.5 28t65.5 67.5t49 102.5t35.5 111.5t26.5 114.5z" />
    <glyph glyph-name="jcircumflex" unicode="&#x135;" horiz-adv-x="577" 
d="M641 1319q44 -109 151 -264l-50 -29q-122 108 -178 184q-110 -93 -258 -184l-35 29q183 164 267 264h103zM208 -129q2 8 8 44.5t20 109.5t35 172l61 284q53 252 56 361l5 6q20 1 40 4.5t34 6.5t34 9.5t28.5 9.5t29.5 11t27 10q19 0 14 -20q-54 -156 -97 -365l-111 -518
q-12 -58 -23.5 -95.5t-28.5 -71.5t-38 -60.5t-55 -63.5q-135 -141 -303 -141q-58 0 -82 16l-1 6q16 21 36 77.5t29 74.5l21 2q8 -25 13 -35t21 -20.5t42 -10.5q143 0 185 197z" />
    <glyph glyph-name="Kcommaaccent" unicode="&#x136;" horiz-adv-x="1304" 
d="M710 -80q58 0 82.5 -48t7.5 -128q-18 -87 -90 -137.5t-171 -65.5q-13 16 -5 49q50 11 90 30t61 39.5t25 39.5q4 20 -2 31.5t-17.5 15.5t-32.5 6q-83 15 -69 80q5 24 22.5 44.5t43.5 32t55 11.5zM411 911q56 265 66 410l6 6q34 -6 103 -6l108 6v-6q-50 -136 -107 -410
l-42 -199q10 4 18 11q283 208 712 604q17 -4 42.5 -5t56.5 -1h35t34 1.5t37 4.5q-115 -85 -250 -189.5t-277 -220.5t-224 -192v-4l488 -727q-38 6 -125 6q-92 0 -129 -6q-330 551 -419 665q-5 4 -9 7l-55 -256q-56 -265 -66 -410l-6 -6q-4 1 -11 2t-34 2.5t-58 1.5l-108 -6
v6q50 139 107 410z" />
    <glyph glyph-name="kcommaaccent" unicode="&#x137;" horiz-adv-x="974" 
d="M529 -74q58 0 82.5 -48t7.5 -128q-18 -87 -90 -137t-171 -66q-13 16 -6 50q50 11 90.5 29.5t61.5 39t25 39.5q4 20 -2 31.5t-17.5 15.5t-32.5 6q-83 15 -69 80q8 37 42.5 62.5t78.5 25.5zM261 410l123 577q57 270 61 385l6 6q24 2 45 5.5t44.5 10.5t33.5 10t38 13.5
t32 12.5q18 0 14 -21q-55 -164 -102 -385l-114 -537q21 5 57 29q69 46 187 155t207 208q168 0 208 6l3 -6q-54 -39 -126 -98t-127.5 -107.5t-121 -106.5t-91.5 -80q184 -299 323 -487l-6 -6q-29 6 -121 6q-83 0 -137 -6q-29 57 -63 129t-51.5 108t-47 85.5t-66.5 99.5
q-13 14 -39 17l-5 -23q-58 -272 -67 -410l-5 -6q-3 1 -9.5 2t-31.5 2.5t-56 1.5l-102 -6v6q48 130 107 410z" />
    <glyph glyph-name="kgreenlandic" unicode="&#x138;" horiz-adv-x="1015" 
d="M279 481q53 252 56 361l5 6q20 1 40 4.5t34 6.5t33.5 9.5l28.5 9.5t30 11t27 10q19 0 14 -20q-54 -156 -98 -365l-6 -29q43 1 87 31q73 46 198 157t210 206q168 0 208 6l3 -6q-121 -87 -488 -400q65 -105 123 -184t123.5 -160.5t104.5 -134.5l-6 -6q-29 6 -121 6
q-83 0 -137 -6q-36 72 -75.5 136.5t-59 93t-75 101t-69.5 91.5q-16 18 -37 18l-14 -65q-47 -223 -58 -369l-5 -6q-3 1 -9.5 2t-31.5 2.5t-56 1.5l-102 -6v6q20 54 36.5 111.5t30.5 117t32 140.5z" />
    <glyph glyph-name="Lacute" unicode="&#x139;" horiz-adv-x="1077" 
d="M750 1677q79 -41 104 -106l-320 -119q-63 -25 -91 -25q-13 0 -20 9.5t-5 21.5q5 22 40 43zM474 410q-52 -243 -47 -299q122 0 267.5 6t230.5 12l85 6l2 -8q-11 -33 -18 -68q0 -2 -9 -59l-5 -6q-48 6 -122 6h-559l-108 -6l-1 6q50 139 108 410l107 501q53 250 64 410l6 6
q36 -6 105 -6l108 6v-6q-50 -136 -107 -410z" />
    <glyph glyph-name="lacute" unicode="&#x13a;" horiz-adv-x="534" 
d="M360 168q0 -18 2.5 -31.5t9.5 -23t12 -15.5t17.5 -9t19.5 -4t25.5 1t26.5 3t30.5 5t33.5 6l4 -6v-53q-102 -61 -228 -61q-61 0 -94 37.5t-33 107.5q0 21 41 219l133 643q63 305 66 397l6 7q96 6 182 39q16 0 15 -21q-45 -147 -97 -385l-147 -700q-25 -117 -25 -156z
M705 1735q79 -41 104 -107l-320 -119q-63 -25 -91 -24q-13 0 -20 9t-4 22q2 8 5 13.5t11.5 13t23.5 16.5z" />
    <glyph glyph-name="Lcommaaccent" unicode="&#x13b;" horiz-adv-x="1077" 
d="M528 -88q58 0 82.5 -48t7.5 -128q-18 -87 -90 -137.5t-171 -65.5q-13 16 -6 49q75 16 123 47.5t54 61.5q6 28 -7.5 38.5t-44.5 14.5q-83 15 -69 80q8 37 42.5 62.5t78.5 25.5zM474 410q-52 -243 -47 -299q122 0 267.5 6t230.5 12l85 6l2 -8q-11 -33 -18 -68q0 -2 -9 -59
l-5 -6q-48 6 -122 6h-559l-108 -6l-1 6q50 139 108 410l107 501q53 250 64 410l6 6q36 -6 105 -6l108 6v-6q-50 -136 -107 -410z" />
    <glyph glyph-name="lcommaaccent" unicode="&#x13c;" horiz-adv-x="534" 
d="M360 168q0 -18 2.5 -31.5t9.5 -23t12 -15.5t17.5 -9t19.5 -4t25.5 1t26.5 3t30.5 5t33.5 6l4 -6v-53q-102 -61 -228 -61q-61 0 -94 37.5t-33 107.5q0 21 41 219l133 643q63 305 66 397l6 7q96 6 182 39q16 0 15 -21q-45 -147 -97 -385l-147 -700q-25 -117 -25 -156z
M320 -102q58 0 82.5 -48t7.5 -129q-37 -168 -260 -202q-13 16 -6 49q75 16 122.5 47.5t53.5 60.5q6 28 -7.5 39t-44.5 15q-83 15 -69 80q8 37 42.5 62.5t78.5 25.5z" />
    <glyph glyph-name="Lcaron" unicode="&#x13d;" horiz-adv-x="1077" 
d="M1123 1430q56 0 80 -45.5t11 -104.5q-9 -40 -39.5 -85t-88.5 -84.5t-127 -47.5l-3 35q22 4 42.5 13t37 21t30.5 25.5t24 28t16.5 28t8.5 25.5q9 43 -19 43q-94 0 -78 78q4 17 16.5 32.5t36 26.5t52.5 11zM474 410q-52 -243 -47 -299q122 0 267.5 6t230.5 12l85 6l2 -8
q-11 -33 -18 -68q0 -2 -9 -59l-5 -6q-48 6 -122 6h-559l-108 -6l-1 6q50 139 108 410l107 501q53 250 64 410l6 6q36 -6 105 -6l108 6v-6q-50 -136 -107 -410z" />
    <glyph glyph-name="lcaron" unicode="&#x13e;" horiz-adv-x="593" 
d="M827 1430q56 0 79.5 -45.5t11.5 -104.5q-14 -67 -84.5 -136.5t-170.5 -80.5l-3 35q62 13 106 56.5t53 84.5q9 43 -20 43q-94 0 -77 78q6 27 34 48.5t71 21.5zM360 168q0 -18 2.5 -31.5t9.5 -23t12 -15.5t17.5 -9t19.5 -4t25.5 1t26.5 3t30.5 5t33.5 6l4 -6v-53
q-102 -61 -228 -61q-61 0 -94 37.5t-33 107.5q0 21 41 219l133 643q63 305 66 397l6 7q96 6 182 39q16 0 15 -21q-45 -147 -97 -385l-147 -700q-25 -117 -25 -156z" />
    <glyph glyph-name="Ldot" unicode="&#x13f;" horiz-adv-x="1077" 
d="M821 578q-49 0 -73 32.5t-14 77.5q9 43 49.5 77t84.5 34q43 0 70 -33t17.5 -78t-48.5 -77.5t-86 -32.5zM474 410q-52 -243 -47 -299q122 0 267.5 6t230.5 12l85 6l2 -8q-11 -33 -18 -68q0 -2 -9 -59l-5 -6q-48 6 -122 6h-559l-108 -6l-1 6q50 139 108 410l107 501
q53 250 64 410l6 6q36 -6 105 -6l108 6v-6q-50 -136 -107 -410z" />
    <glyph glyph-name="ldot" unicode="&#x140;" horiz-adv-x="653" 
d="M555 737q0 39 29.5 70t68.5 31q37 0 68 -30t31 -71q0 -39 -29 -67.5t-70 -28.5q-43 0 -70.5 28.5t-27.5 67.5zM360 168q0 -18 2.5 -31.5t9.5 -23t12 -15.5t17.5 -9t19.5 -4t25.5 1t26.5 3t30.5 5t33.5 6l4 -6v-53q-102 -61 -228 -61q-61 0 -94 37.5t-33 107.5
q0 21 41 219l133 643q63 305 66 397l6 7q96 6 182 39q16 0 15 -21q-45 -147 -97 -385l-147 -700q-25 -117 -25 -156z" />
    <glyph glyph-name="Lslash" unicode="&#x141;" horiz-adv-x="1077" 
d="M830 920l24 -62l-319 -163l-61 -285q-52 -243 -47 -299q122 0 267.5 6t230.5 12l85 6l2 -8q-11 -33 -18 -68q0 -2 -9 -59l-5 -6q-48 6 -122 6h-559l-108 -6l-1 6q50 139 108 410l39 184l-184 -94l-23 63l225 115l50 233q53 250 64 410l6 6q36 -6 105 -6l108 6v-6
q-50 -136 -107 -410l-28 -133z" />
    <glyph glyph-name="lslash" unicode="&#x142;" horiz-adv-x="534" 
d="M657 897l19 -61l-207 -114l-84 -398q-25 -117 -25 -156q0 -18 2.5 -31.5t9.5 -23t12 -15.5t17.5 -9t19.5 -4t25.5 1t26.5 3t30.5 5t33.5 6l4 -6v-53q-102 -61 -228 -61q-61 0 -94 37.5t-33 107.5q0 21 41 219l57 277l-124 -68l-19 59l160 88l59 287q63 305 66 397l6 7
q96 6 182 39q16 0 15 -21q-45 -147 -97 -385l-46 -222z" />
    <glyph glyph-name="Nacute" unicode="&#x143;" horiz-adv-x="1331" 
d="M1135 1679q79 -41 104 -106l-320 -119q-63 -25 -91 -24q-13 0 -20 9t-4 21q5 22 40 43zM401 911q52 242 66 410l5 6q34 -6 63 -6l50 4l447 -909q65 -131 88 -79q5 10 8 28l96 444q78 361 136 512l5 6q1 0 3 -0.5t8 -1.5t13.5 -2t20 -1.5t26.5 -0.5q20 0 38.5 1.5
t26.5 3.5l8 1l1 -6q-116 -226 -178 -512l-164 -766q-14 -63 -56 -63q-52 0 -78 49l-461 903q-4 8 -11 21q-18 36 -24 42.5t-10 -1t-11 -44.5q-6 -31 -11 -51l-91 -428q-35 -162 -64 -277.5t-56 -193.5l-5 -6q-21 6 -71 6l-73 -6l-1 6q101 193 161 471z" />
    <glyph glyph-name="nacute" unicode="&#x144;" horiz-adv-x="1032" 
d="M912 1374q13 4 30 4q63 0 102 -47l2 -22l-283 -224q-47 -39 -70 -38q-11 0 -18 8t-5 18q4 21 36 57zM965 369q-51 -240 -60 -369l-4 -6q-37 6 -98 6l-101 -6v6q41 113 97 369l43 200q25 125 5 166t-93 41q-55 0 -137 -41t-166 -127l-52 -239q-51 -240 -59 -369l-6 -6
q-33 6 -96 6l-101 -6l-2 6q49 141 98 369l23 112q49 233 29 365l4 6q84 8 168 43h8t5 -2t3 -6v-13q4 -66 -4 -153l4 -6q180 184 361 184q248 0 180 -324q-8 -33 -25.5 -103t-23.5 -103z" />
    <glyph glyph-name="Ncommaaccent" unicode="&#x145;" horiz-adv-x="1331" 
d="M820 -78q58 0 82 -48t7 -128q-37 -168 -260 -203q-13 16 -6 49q50 11 90 30t61.5 39.5t25.5 39.5q2 16 1 25t-10 15t-18.5 9t-24.5 4q-83 15 -69 80q8 37 42.5 62.5t78.5 25.5zM401 911q52 242 66 410l5 6q34 -6 63 -6l50 4l447 -909q65 -131 88 -79q5 10 8 28l96 444
q78 361 136 512l5 6q1 0 3 -0.5t8 -1.5t13.5 -2t20 -1.5t26.5 -0.5q20 0 38.5 1.5t26.5 3.5l8 1l1 -6q-116 -226 -178 -512l-164 -766q-14 -63 -56 -63q-52 0 -78 49l-461 903q-4 8 -11 21q-18 36 -24 42.5t-10 -1t-11 -44.5q-6 -31 -11 -51l-91 -428q-35 -162 -64 -277.5
t-56 -193.5l-5 -6q-21 6 -71 6l-73 -6l-1 6q101 193 161 471z" />
    <glyph glyph-name="ncommaaccent" unicode="&#x146;" horiz-adv-x="1032" 
d="M527 -84q58 0 82.5 -48t6.5 -128q-37 -168 -260 -203q-13 16 -6 49q75 16 123 47.5t54 61.5q6 28 -7.5 39t-44.5 14q-83 15 -69 80q8 37 42.5 62.5t78.5 25.5zM965 369q-51 -240 -60 -369l-4 -6q-37 6 -98 6l-101 -6v6q41 113 97 369l43 200q25 125 5 166t-93 41
q-55 0 -137 -41t-166 -127l-52 -239q-51 -240 -59 -369l-6 -6q-33 6 -96 6l-101 -6l-2 6q49 141 98 369l23 112q49 233 29 365l4 6q84 8 168 43h8t5 -2t3 -6v-13q4 -66 -4 -153l4 -6q180 184 361 184q248 0 180 -324q-8 -33 -25.5 -103t-23.5 -103z" />
    <glyph glyph-name="Ncaron" unicode="&#x147;" horiz-adv-x="1423" 
d="M981 1427q-54 90 -165 195l41 41q111 -53 191 -125q133 81 246 125l21 -41q-117 -77 -246 -195h-88zM401 911q56 265 66 410l5 6q34 -6 104 -6l29 4l509 -909q7 -13 14 -25.5t15 -28.5q14 -27 20.5 -37t14 -19.5t12 -3t9.5 20t11 42.5l116 546q56 265 67 410l5 6
q1 0 2.5 -0.5t8 -1.5t14 -2t20 -1.5t26.5 -0.5q20 0 38 1.5t26 3.5l9 1v-6q-50 -136 -107 -410l-185 -868q-13 -63 -56 -63q-52 0 -78 49l-523 903q-18 32 -28 46t-18 21t-14.5 -6.5t-11.5 -32t-15 -61.5l-104 -489q-56 -265 -66 -410l-5 -6q-2 1 -7 2t-23.5 2.5t-40.5 1.5
l-73 -6l-1 6q50 136 108 410z" />
    <glyph glyph-name="ncaron" unicode="&#x148;" horiz-adv-x="1032" 
d="M965 369q-51 -240 -60 -369l-4 -6q-37 6 -98 6l-101 -6v6q41 113 97 369l43 200q25 125 5 166t-93 41q-55 0 -137 -41t-166 -127l-52 -239q-51 -240 -59 -369l-6 -6q-33 6 -96 6l-101 -6l-2 6q49 141 98 369l23 112q49 233 29 365l4 6q84 8 168 43h8t5 -2t3 -6v-13
q4 -66 -4 -153l4 -6q180 184 361 184q248 0 180 -324q-8 -33 -25.5 -103t-23.5 -103zM680 1030q-11 28 -25 57t-28.5 56t-31 54t-32.5 51t-33 48l47 27q122 -108 177 -184q94 79 261 184l33 -27q-170 -153 -265 -266h-103z" />
    <glyph glyph-name="napostrophe" unicode="&#x149;" horiz-adv-x="1103" 
d="M991 369q-51 -240 -59 -369l-4 -6q-37 6 -99 6l-100 -6v6q41 113 96 369l43 200q25 125 5.5 166t-93.5 41q-55 0 -137 -41t-166 -127l-51 -239q-51 -240 -59 -369l-7 -6q-33 6 -96 6l-100 -6l-2 6q49 141 98 369l23 112q49 233 28 365l4 6q84 8 168 43h8.5t5.5 -2t3 -6
v-13q4 -66 -4 -153l4 -6q180 184 360 184q248 0 180 -324q-6 -33 -23.5 -103t-25.5 -103zM431 1430q56 0 80 -45.5t11 -104.5q-14 -67 -84.5 -136.5t-170.5 -80.5l-2 35q62 13 106 56.5t53 84.5q9 43 -20 43q-94 0 -78 78q6 27 34 48.5t71 21.5z" />
    <glyph glyph-name="Eng" unicode="&#x14a;" horiz-adv-x="1423" 
d="M401 911q56 265 66 410l5 6q34 -6 104 -6l29 4l509 -909q7 -13 14 -25.5t15 -28.5q14 -27 20.5 -37t14 -19.5t12 -3t9.5 20t11 42.5l116 546q56 265 67 410l5 6q1 0 2.5 -0.5t8 -1.5t14 -2t20 -1.5t26.5 -0.5q20 0 38 1.5t26 3.5l9 1v-6q-50 -136 -107 -410l-143 -671
q-19 -92 -35.5 -148t-43 -106.5t-57.5 -89t-86 -95.5q-53 -55 -112 -89.5t-119 -50t-126 -15.5q-19 0 -37 2.5t-31 6.5t-20 9l-1 6q35 44 93 168l23 2q24 -72 104 -71q158 0 250 298l-501 865q-18 32 -28 46t-18 21t-14.5 -6.5t-11.5 -32t-15 -61.5l-104 -489
q-56 -265 -66 -410l-5 -6q-2 1 -7 2t-23.5 2.5t-40.5 1.5l-73 -6l-1 6q50 136 108 410z" />
    <glyph glyph-name="eng" unicode="&#x14b;" horiz-adv-x="1032" 
d="M844 569q20 81 13.5 127t-30.5 63t-73 17q-55 0 -137 -41t-166 -127l-52 -239q-51 -240 -59 -369l-6 -6q-33 6 -96 6l-101 -6l-2 6q49 141 98 369l23 112q49 233 29 365l4 6q84 8 168 43h8t5 -2t3 -6v-13q4 -66 -4 -153l4 -6q180 184 361 184q124 0 170.5 -82t12.5 -242
l-123 -579q-23 -111 -51 -166t-95 -125q-68 -72 -141 -106.5t-161 -34.5q-58 0 -83 16v6q16 21 36 77.5t29 74.5l21 2q8 -25 13 -35t21 -20.5t42 -10.5q143 0 185 197q2 8 6 44.5t16 109.5t33 172z" />
    <glyph glyph-name="Omacron" unicode="&#x14c;" horiz-adv-x="1415" 
d="M943 1257q-77 0 -149.5 -32t-141 -99t-124.5 -184t-89 -272q-30 -147 -19.5 -259.5t56.5 -188t118.5 -114t165.5 -38.5q117 0 214 64.5t169 191.5t110 309q132 622 -310 622zM1472 674q-66 -312 -274 -503t-498 -191q-269 0 -405.5 179t-73.5 476q65 305 280.5 509
t487.5 204q278 0 412.5 -185.5t70.5 -488.5zM1189 1501h-500q-27 0 -20 31q4 19 23 39t35 20h502q29 0 22 -28q-4 -20 -23.5 -41t-38.5 -21z" />
    <glyph glyph-name="omacron" unicode="&#x14d;" horiz-adv-x="1003" 
d="M958 1102h-500q-27 0 -20 31q2 7 6 15t10 16t13 14t14.5 10t13.5 4h502q29 0 23 -29q-4 -20 -23.5 -40.5t-38.5 -20.5zM299 709q74 86 177.5 138t220.5 52q91 0 158.5 -27.5t106 -76t56.5 -107t18 -126.5q0 -140 -67.5 -276t-180.5 -218q-121 -88 -291 -88
q-166 0 -255.5 96t-89.5 243q0 221 147 390zM669 815q-111 0 -196 -102.5t-116 -245.5q-15 -71 -15 -139q0 -265 192 -265q116 0 200 107q119 150 119 409q0 236 -184 236z" />
    <glyph glyph-name="Obreve" unicode="&#x14e;" horiz-adv-x="1476" 
d="M1364 1649q-31 -105 -126 -168.5t-202 -63.5q-114 0 -179 63t-50 169h57q0 -58 55.5 -91.5t139.5 -33.5q30 0 61 5t60.5 15.5t54.5 25.5t44 35t28 44h57zM974 1257q-78 0 -155 -32t-151 -99t-135 -184.5t-94 -271.5q-30 -147 -14.5 -259.5t67.5 -188t128.5 -114
t170.5 -38.5q58 0 114.5 16.5t108 48t98 80t85 110.5t68.5 141t50 169q66 311 -26 466.5t-315 155.5zM1534 674q-65 -308 -288 -501t-515 -193q-132 0 -240.5 45.5t-179 130.5t-96.5 206.5t6 272.5q64 301 294 507t505 206q281 0 429.5 -187.5t84.5 -486.5z" />
    <glyph glyph-name="obreve" unicode="&#x14f;" horiz-adv-x="1003" 
d="M503 1321q0 -54 22.5 -96t64 -65t95.5 -23t104.5 20.5t92 63t64.5 100.5l50 -25q-44 -126 -141.5 -201t-194.5 -75q-108 0 -166 73t-51 203zM299 709q74 86 177.5 138t220.5 52q91 0 158.5 -27.5t106 -76t56.5 -107t18 -126.5q0 -140 -67.5 -276t-180.5 -218
q-121 -88 -291 -88q-166 0 -255.5 96t-89.5 243q0 221 147 390zM669 815q-111 0 -196 -102.5t-116 -245.5q-15 -71 -15 -139q0 -265 192 -265q116 0 200 107q119 150 119 409q0 236 -184 236z" />
    <glyph glyph-name="Ohungarumlaut" unicode="&#x150;" horiz-adv-x="1476" 
d="M1385 1622q-6 -27 -23 -41l-239 -172q-7 -6 -18 -6q-9 0 -16 7.5t-5 19.5q2 9 12 22l169 223q21 25 53 25q41 0 57 -24.5t10 -53.5zM1119 1632q-6 -28 -23 -39l-215 -165q-20 -15 -32 -15q-11 0 -17 7t-4 18q0 2 1 4t2 5.5t3 6.5l4 6l159 226q21 25 61 24
q27 0 47.5 -22.5t13.5 -55.5zM974 1257q-78 0 -155 -32t-151 -99t-135 -184.5t-94 -271.5q-30 -147 -14.5 -259.5t67.5 -188t128.5 -114t170.5 -38.5q58 0 114.5 16.5t108 48t98 80t85 110.5t68.5 141t50 169q66 311 -26 466.5t-315 155.5zM1534 674q-65 -308 -288 -501
t-515 -193q-132 0 -240.5 45.5t-179 130.5t-96.5 206.5t6 272.5q64 301 294 507t505 206q281 0 429.5 -187.5t84.5 -486.5z" />
    <glyph glyph-name="ohungarumlaut" unicode="&#x151;" horiz-adv-x="1003" 
d="M1024 1251q-5 -25 -23 -39l-281 -225q-5 -4 -13 -4q-9 0 -17.5 7.5t-5.5 19.5l3 8l221 285q19 25 54 24q32 0 50 -23.5t12 -52.5zM756 1264q-4 -20 -17 -33l-262 -248q-2 -2 -5 -3.5t-6 -2t-6 -0.5q-10 0 -18 7.5t-5 19.5q2 5 3 6l194 299q19 29 60 28q32 0 50.5 -21
t11.5 -52zM299 709q74 86 177.5 138t220.5 52q91 0 158.5 -27.5t106 -76t56.5 -107t18 -126.5q0 -140 -67.5 -276t-180.5 -218q-121 -88 -291 -88q-166 0 -255.5 96t-89.5 243q0 221 147 390zM669 815q-111 0 -196 -102.5t-116 -245.5q-15 -71 -15 -139q0 -265 192 -265
q116 0 200 107q119 150 119 409q0 236 -184 236z" />
    <glyph glyph-name="OE" unicode="&#x152;" horiz-adv-x="1716" 
d="M729 76h27q60 0 86 18.5t35 63.5l214 1007q3 24 3 39t-12.5 23t-30 11t-48.5 3h-72q-79 0 -148.5 -28.5t-136 -91.5t-120 -178t-87.5 -273q-31 -159 -22.5 -272t54.5 -184.5t111 -104.5t147 -33zM932 0q-216 -1 -216 -4q-188 1 -314.5 88t-171.5 235t-6 332
q66 309 292 500q203 172 459 172q145 -2 238 -2h538q33 0 66.5 1.5t57.5 4.5l3 -6q-2 -8 -5.5 -19.5t-5 -17.5t-3.5 -13.5t-3 -13.5q-4 -20 -8 -53l-5 -8q-278 25 -552 25q-29 -57 -82 -310l-36 -168q215 0 461 21l5 -6q-12 -28 -19 -58q-6 -31 -6 -57l-7 -6
q-197 20 -452 20l-53 -247q-52 -243 -47 -299q122 0 267.5 6t230.5 12l84 6l3 -8q-11 -33 -18 -68q0 -2 -9 -59l-5 -6q-48 6 -122 6h-559z" />
    <glyph glyph-name="oe" unicode="&#x153;" horiz-adv-x="1587" 
d="M1067 588h371q29 0 35 28q22 105 -18 153t-106 48q-26 0 -54.5 -6.5t-72.5 -27t-85.5 -71t-69.5 -124.5zM1543 215l29 -53q-79 -83 -180.5 -132.5t-207.5 -49.5q-242 0 -323 172q-155 -173 -380 -172q-191 0 -277 124t-45 318q48 227 202.5 352t337.5 125q97 0 161.5 -28
t91 -63.5t48.5 -92.5q80 87 178.5 135.5t188.5 48.5q97 0 161.5 -33t88.5 -85.5t31 -118t-11 -130.5q-7 -35 -44 -34h-551q-20 -114 -11 -191t47.5 -122.5t81.5 -65t90 -19.5q163 0 293 115zM357 485q-22 -117 -19 -211t51.5 -153.5t137.5 -59.5q41 0 81.5 14.5t86 49.5
t83.5 107.5t60 175.5q22 118 16.5 197t-36.5 126.5t-66 67.5t-72 20q-120 0 -208.5 -105.5t-114.5 -228.5z" />
    <glyph glyph-name="Racute" unicode="&#x154;" horiz-adv-x="1185" 
d="M996 1679q79 -41 104 -106l-320 -119q-63 -25 -91 -24q-13 0 -20 9t-4 21q5 22 40 43zM824 1255q-103 0 -141 -20.5t-48 -69.5l-104 -489h98q81 0 140 11.5t113 43t90.5 93.5t56.5 155q9 60 11 104t-13.5 75t-33.5 50t-48.5 29.5t-58 14t-62.5 3.5zM512 586l-38 -176
q-56 -265 -66 -410l-6 -6q-4 1 -11.5 2t-34 2.5t-57.5 1.5l-108 -6l-1 6q50 139 108 410l107 501q56 265 66 410l6 6q34 -6 103 -6q32 0 133.5 7t125.5 7q122 0 202 -18t133 -80q87 -102 54 -256q-25 -118 -99.5 -201t-174.5 -129q-51 -23 -107 -37q32 -58 153 -303
t165 -311l-5 -6q-40 6 -105 6q-100 0 -141 -6q-11 96 -141 366q-74 151 -127 229q-20 -1 -41.5 -2t-44.5 -1h-48z" />
    <glyph glyph-name="racute" unicode="&#x155;" horiz-adv-x="727" 
d="M786 1374q13 4 29 4q63 0 103 -47l1 -22l-283 -224q-18 -15 -31.5 -23.5t-22 -11.5t-16.5 -3q-11 0 -18 8t-4 18q4 21 30 51q4 4 5 6zM510 725q37 42 85.5 80.5t105.5 66t102 27.5q35 0 81 -14l7 -8l-73 -152l-18 -4q-31 29 -112 29q-59 0 -135 -58q-60 -49 -78 -135
l-40 -188q-47 -223 -58 -369l-5 -6q-3 1 -10 2t-32 2.5t-56 1.5l-101 -6l-1 6q50 139 99 369l24 112q42 197 46 361l5 6q30 2 58 8t43 11.5t43 16.5t39 15q19 0 14 -20l-37 -154h4z" />
    <glyph glyph-name="Rcommaaccent" unicode="&#x156;" horiz-adv-x="1185" 
d="M575 -88q58 0 82.5 -48t7.5 -128q-18 -87 -90 -137.5t-171 -65.5q-13 16 -5 49q38 8 70.5 21t54.5 28t35 30.5t16 29.5q9 44 -40 51l-12 2q-83 15 -69 80q8 37 42.5 62.5t78.5 25.5zM824 1255q-103 0 -141 -20.5t-48 -69.5l-104 -489h98q81 0 140 11.5t113 43t90.5 93.5
t56.5 155q9 60 11 104t-13.5 75t-33.5 50t-48.5 29.5t-58 14t-62.5 3.5zM512 586l-38 -176q-56 -265 -66 -410l-6 -6q-4 1 -11.5 2t-34 2.5t-57.5 1.5l-108 -6l-1 6q50 139 108 410l107 501q56 265 66 410l6 6q34 -6 103 -6q32 0 133.5 7t125.5 7q122 0 202 -18t133 -80
q87 -102 54 -256q-25 -118 -99.5 -201t-174.5 -129q-51 -23 -107 -37q32 -58 153 -303t165 -311l-5 -6q-40 6 -105 6q-100 0 -141 -6q-11 96 -141 366q-74 151 -127 229q-20 -1 -41.5 -2t-44.5 -1h-48z" />
    <glyph glyph-name="rcommaaccent" unicode="&#x157;" horiz-adv-x="727" 
d="M242 -84q58 0 82.5 -48t7.5 -128q-37 -168 -260 -203q-13 16 -6 49q75 16 122.5 47.5t53.5 61.5q6 28 -7 39t-45 14q-83 15 -69 80q8 37 42.5 62.5t78.5 25.5zM510 725q37 42 85.5 80.5t105.5 66t102 27.5q35 0 81 -14l7 -8l-73 -152l-18 -4q-31 29 -112 29
q-59 0 -135 -58q-60 -49 -78 -135l-40 -188q-47 -223 -58 -369l-5 -6q-3 1 -10 2t-32 2.5t-56 1.5l-101 -6l-1 6q50 139 99 369l24 112q42 197 46 361l5 6q30 2 58 8t43 11.5t43 16.5t39 15q19 0 14 -20l-37 -154h4z" />
    <glyph glyph-name="Rcaron" unicode="&#x158;" horiz-adv-x="1185" 
d="M728 1427q-54 91 -166 195l42 41q37 -18 69 -36.5t62.5 -41t58.5 -47.5q68 42 126.5 71.5t119.5 53.5l22 -41q-118 -77 -246 -195h-88zM814 1255q-102 0 -135.5 -20t-43.5 -70l-104 -489h88q81 0 139.5 11.5t113 43t91 93.5t56.5 155q9 60 11 104t-13.5 75t-34 50
t-49 29.5t-57.5 14t-62 3.5zM512 586l-38 -176q-56 -265 -66 -410l-6 -6q-4 1 -11.5 2t-34 2.5t-57.5 1.5l-108 -6l-1 6q50 139 108 410l107 501q56 265 66 410l6 6q34 -6 103 -6q32 0 128 7t121 7q122 0 202 -18t133 -80q87 -102 54 -256q-25 -118 -99.5 -201t-175.5 -129
q-52 -24 -106 -37q13 -23 64.5 -116.5t83 -148.5t78 -133.5t85 -132t69.5 -83.5l-6 -6q-40 6 -105 6q-92 0 -132 -6q-6 11 -83.5 145t-119.5 221q-74 151 -127 229q-29 -2 -62 -2.5t-70 -0.5z" />
    <glyph glyph-name="rcaron" unicode="&#x159;" horiz-adv-x="710" 
d="M522 1030q-51 126 -150 266l47 27q122 -108 178 -184q94 79 260 184l33 -27q-170 -153 -265 -266h-103zM480 725h4q59 67 142.5 120.5t150.5 53.5q35 0 81 -14l6 -8l-73 -162l-17 -4q-31 29 -113 28q-73 0 -135 -47q-16 -13 -29.5 -30.5t-23.5 -36.5t-17 -40l-46 -216
q-49 -233 -60 -369l-6 -6q-33 6 -96 6l-101 -6l-2 6q49 141 99 369l22 112q49 233 29 365l4 6q84 8 168 43h8t5 -2t3 -6v-13q6 -64 -3 -149z" />
    <glyph glyph-name="Sacute" unicode="&#x15a;" horiz-adv-x="983" 
d="M935 1679q79 -41 104 -106l-320 -119q-63 -25 -91 -24q-13 0 -20 9t-5 21q5 22 40 43zM483 68q111 0 197 61.5t111 179.5q8 38 8.5 70t-4 56.5t-16.5 45.5t-25.5 36t-35.5 29t-41.5 24t-46.5 22q-32 13 -57.5 25t-56.5 28t-53.5 31.5t-48 36.5t-41 42t-32 48t-20.5 55
t-7.5 63.5t8.5 71.5q22 103 100.5 186.5t175.5 126t188 42.5q70 0 127 -9.5t88.5 -23t53 -27.5t28.5 -23l7 -10l3 -6l-15.5 -31t-14.5 -30.5t-14 -31.5t-13.5 -33t-13 -34.5t-12.5 -35.5l-21 -2q-16 68 -42.5 113t-76 73.5t-120.5 28.5q-66 0 -122 -28.5t-93 -77.5t-50 -111
q-9 -27 -4.5 -53.5t8 -46.5t18.5 -40t26.5 -34t32 -28.5t35 -24t35.5 -19.5t34 -15t30 -12q70 -27 119.5 -55.5t97.5 -74.5t64.5 -113t-1.5 -152q-33 -157 -195 -279t-339 -122q-111 0 -198.5 23t-120.5 46l-32 23l-3 6q57 118 84 201l21 2q15 -63 54.5 -111.5t99 -75
t132.5 -26.5z" />
    <glyph glyph-name="sacute" unicode="&#x15b;" horiz-adv-x="749" 
d="M128 197l29 2q13 -42 47.5 -74.5t77 -48t84.5 -15.5q74 0 127 41t53 120q0 91 -134 175q-60 37 -99.5 70.5t-59.5 75.5q-17 32 -16 78q0 75 32 131.5t85.5 87t112 45t119.5 14.5q114 0 218 -65l3 -7l-58 -137l-27 -2q-13 51 -56 90t-112 39q-32 0 -60 -7.5t-50.5 -22.5
t-35 -40t-12.5 -57q0 -70 40.5 -115.5t117.5 -85.5q155 -79 155 -223q0 -61 -25 -113.5t-70.5 -91t-113 -60t-148.5 -21.5q-144 0 -281 55zM675 1374q13 4 29 4q63 0 103 -47l1 -22l-283 -224q-47 -39 -69 -38q-11 0 -18.5 8t-4.5 18q4 21 35 57z" />
    <glyph glyph-name="Scircumflex" unicode="&#x15c;" horiz-adv-x="983" 
d="M865 1663q62 -100 166 -193l-41 -43q-114 58 -191 127q-118 -75 -246 -127l-19 43q102 67 243 193h88zM483 68q111 0 197 61.5t111 179.5q8 38 8.5 70t-4 56.5t-16.5 45.5t-25.5 36t-35.5 29t-41.5 24t-46.5 22q-32 13 -57.5 25t-56.5 28t-53.5 31.5t-48 36.5t-41 42
t-32 48t-20.5 55t-7.5 63.5t8.5 71.5q22 103 100.5 186.5t175.5 126t188 42.5q70 0 127 -9.5t88.5 -23t53 -27.5t28.5 -23l7 -10l3 -6l-15.5 -31t-14.5 -30.5t-14 -31.5t-13.5 -33t-13 -34.5t-12.5 -35.5l-21 -2q-16 68 -42.5 113t-76 73.5t-120.5 28.5q-66 0 -122 -28.5
t-93 -77.5t-50 -111q-9 -27 -4.5 -53.5t8 -46.5t18.5 -40t26.5 -34t32 -28.5t35 -24t35.5 -19.5t34 -15t30 -12q70 -27 119.5 -55.5t97.5 -74.5t64.5 -113t-1.5 -152q-33 -157 -195 -279t-339 -122q-111 0 -198.5 23t-120.5 46l-32 23l-3 6q57 118 84 201l21 2
q15 -63 54.5 -111.5t99 -75t132.5 -26.5z" />
    <glyph glyph-name="scircumflex" unicode="&#x15d;" horiz-adv-x="749" 
d="M128 197l29 2q13 -42 47.5 -74.5t77 -48t84.5 -15.5q74 0 127 41t53 120q0 91 -134 175q-60 37 -99.5 70.5t-59.5 75.5q-17 32 -16 78q0 75 32 131.5t85.5 87t112 45t119.5 14.5q114 0 218 -65l3 -7l-58 -137l-27 -2q-13 51 -56 90t-112 39q-32 0 -60 -7.5t-50.5 -22.5
t-35 -40t-12.5 -57q0 -70 40.5 -115.5t117.5 -85.5q155 -79 155 -223q0 -61 -25 -113.5t-70.5 -91t-113 -60t-148.5 -21.5q-144 0 -281 55zM672 1323q44 -109 150 -264l-49 -29q-21 18 -33.5 29.5t-30 28t-30.5 30t-28 29.5t-29 32.5t-27 34.5q-44 -37 -88.5 -70
t-82.5 -58.5t-87 -55.5l-35 29q183 164 267 264h103z" />
    <glyph glyph-name="Scedilla" unicode="&#x15e;" horiz-adv-x="983" 
d="M446 -223q-30 0 -49.5 -2.5t-45.5 -10.5l-9 13l123 196h70l-80 -137q13 3 26.5 4.5t27.5 1.5q63 0 97 -34.5t22 -92.5q-14 -66 -86 -108.5t-166 -42.5q-72 0 -144 35q7 33 32 53q71 -29 113 -29q47 0 80 21.5t41 60.5q16 72 -52 72zM483 68q111 0 197 61.5t111 179.5
q8 38 8.5 70t-4 56.5t-16.5 45.5t-25.5 36t-35.5 29t-41.5 24t-46.5 22q-32 13 -57.5 25t-56.5 28t-53.5 31.5t-48 36.5t-41 42t-32 48t-20.5 55t-7.5 63.5t8.5 71.5q22 103 100.5 186.5t175.5 126t188 42.5q70 0 127 -9.5t88.5 -23t53 -27.5t28.5 -23l7 -10l3 -6l-15.5 -31
t-14.5 -30.5t-14 -31.5t-13.5 -33t-13 -34.5t-12.5 -35.5l-21 -2q-16 68 -42.5 113t-76 73.5t-120.5 28.5q-66 0 -122 -28.5t-93 -77.5t-50 -111q-9 -27 -4.5 -53.5t8 -46.5t18.5 -40t26.5 -34t32 -28.5t35 -24t35.5 -19.5t34 -15t30 -12q70 -27 119.5 -55.5t97.5 -74.5
t64.5 -113t-1.5 -152q-33 -157 -195 -279t-339 -122q-111 0 -198.5 23t-120.5 46l-32 23l-3 6q57 118 84 201l21 2q15 -63 54.5 -111.5t99 -75t132.5 -26.5z" />
    <glyph glyph-name="scedilla" unicode="&#x15f;" horiz-adv-x="749" 
d="M128 197l29 2q13 -42 47.5 -74.5t77 -48t84.5 -15.5q74 0 127 41t53 120q0 91 -134 175q-60 37 -99.5 70.5t-59.5 75.5q-17 32 -16 78q0 75 32 131.5t85.5 87t112 45t119.5 14.5q114 0 218 -65l3 -7l-58 -137l-27 -2q-13 51 -56 90t-112 39q-32 0 -60 -7.5t-50.5 -22.5
t-35 -40t-12.5 -57q0 -70 40.5 -115.5t117.5 -85.5q155 -79 155 -223q0 -61 -25 -113.5t-70.5 -91t-113 -60t-148.5 -21.5q-144 0 -281 55zM356 -217q-21 0 -35 -1t-28.5 -3.5t-31.5 -7.5l-10 12l124 197h69l-80 -138q9 2 18 3.5t18 2t19 0.5q63 0 96.5 -34.5t21.5 -92.5
q-7 -32 -29.5 -60.5t-56 -48t-76.5 -31t-89 -11.5q-72 0 -144 35q7 33 31 53q71 -29 113 -29q47 0 80.5 21.5t41.5 60.5q4 16 2.5 29.5t-7.5 23t-18 14.5t-29 5z" />
    <glyph glyph-name="Scaron" unicode="&#x160;" horiz-adv-x="993" 
d="M668 1427q-54 91 -165 195l41 41q37 -18 69.5 -36.5t63 -41t58.5 -47.5q68 42 126 71.5t120 53.5l22 -41q-118 -77 -246 -195h-89zM483 68q90 0 187 64t121 177q8 38 8.5 70t-4 56.5t-16.5 45.5t-25.5 36t-35.5 29t-41.5 24t-46.5 22q-32 13 -57.5 25t-57 28t-54 31.5
t-49.5 36.5t-42.5 42t-33 48.5t-21 55t-7.5 63t8 71.5q25 116 105.5 199.5t175 119.5t189.5 36q70 0 127 -9.5t88.5 -23t53 -27.5t28.5 -23l7 -10l3 -6l-15.5 -31t-14.5 -30.5t-14 -31.5t-13.5 -33t-13 -34.5t-12.5 -35.5l-21 -2q-16 68 -42.5 113t-76 73.5t-120.5 28.5
q-53 0 -109 -28t-99.5 -78.5t-56.5 -110.5q-9 -27 -4.5 -53.5t8 -46.5t18.5 -40t26.5 -34t32 -28.5t35 -24t35.5 -19.5t34 -15t30 -12q71 -27 120.5 -55.5t99 -74.5t67 -113t-0.5 -152q-38 -179 -196.5 -290t-343.5 -111q-111 0 -198.5 23t-120.5 46l-32 23l-3 6
q57 118 84 201l21 2q15 -63 54.5 -111.5t99 -75t132.5 -26.5z" />
    <glyph glyph-name="scaron" unicode="&#x161;" horiz-adv-x="749" 
d="M138 197l29 2q20 -65 74.5 -104.5t124.5 -39.5q51 0 94.5 21.5t73.5 61.5t41 93q17 81 -58 123q-19 11 -97 43q-35 15 -52 23t-44 23.5t-43.5 33t-27.5 39.5q-28 53 -11 133q25 119 134.5 184.5t230.5 65.5q124 0 228 -65l2 -7l-68 -137l-27 -2q-14 54 -52.5 95.5
t-106.5 41.5q-65 0 -120.5 -38t-68.5 -99q-8 -36 1.5 -63.5t37.5 -46.5t46 -27.5t55 -22.5q28 -11 47.5 -19t44 -19.5t40 -23.5t32.5 -27.5t26 -33t16 -39.5t6.5 -48.5t-7.5 -57.5q-8 -37 -23.5 -72.5t-46.5 -74.5t-72.5 -67.5t-105 -47t-139.5 -18.5q-144 0 -281 55z
M565 1028q-51 126 -151 266l47 27q122 -108 178 -184q94 79 260 184l33 -27q-170 -153 -265 -266h-102z" />
    <glyph glyph-name="Tcedilla" unicode="&#x162;" horiz-adv-x="1105" 
d="M550 -188q-53 0 -95 -13l-10 13l119 188h-11h-23t-20 -0.5t-17 -1t-14.5 -1t-12 -1t-9.5 -1t-6.5 -1t-3.5 -0.5h-2l-1 6q50 139 108 410l107 501q49 233 45 289q-122 0 -227 -6t-149 -12l-43 -6l-3 8q16 47 30 137l5 6q48 -6 121 -6h791q22 0 44 0.5t43 2t37 3.5l3 -6
q-25 -88 -29 -137l-6 -8q-15 3 -45 6.5t-135.5 10.5t-227.5 7q-29 -57 -78 -289l-107 -501q-56 -265 -66 -410l-6 -6q-1 0 -2.5 0.5t-8 1t-13.5 1.5l-74 -126q26 6 55 6q63 0 97 -35t21 -92q-9 -43 -45 -78t-90 -54t-116 -19q-72 0 -144 34q7 33 32 54q71 -29 112 -29
q105 0 122 82q16 72 -52 72z" />
    <glyph glyph-name="tcedilla" unicode="&#x163;" horiz-adv-x="618" 
d="M298 -217q-15 0 -26 -0.5t-22.5 -2t-22.5 -4t-24 -5.5l-9 12l123 197h10q-71 0 -105.5 44.5t-19.5 116.5q5 23 33.5 143t43.5 189l67 315h-129q-8 0 -7 9l16 73q2 8 8 9h131q21 100 28.5 144t9.5 103l6 7q38 3 64.5 9t66.5 23t46 19q18 0 13 -21q-38 -132 -70 -284h219
q8 0 11.5 -3.5t2.5 -9.5l-11 -51q-6 -27 -55 -27h-186l-63 -292q-11 -53 -24 -106.5t-23 -95t-15 -65.5q-4 -19 -6.5 -33.5t-3.5 -28t0.5 -23.5t5 -18t9.5 -13t14.5 -8t20.5 -3q77 0 148 37l14 -57q-70 -54 -132 -78t-128 -24h60l-81 -138q26 6 55 6q63 0 97 -34.5t21 -92.5
q-14 -66 -85.5 -108.5t-165.5 -42.5q-72 0 -144 35q7 33 32 53q71 -29 112 -29q105 0 122 82q15 72 -52 72z" />
    <glyph glyph-name="Tcaron" unicode="&#x164;" horiz-adv-x="1105" 
d="M822 1427q-54 90 -166 195l42 41q111 -53 190 -125q133 81 246 125l22 -41q-117 -77 -246 -195h-88zM659 911q49 233 45 289q-122 0 -227 -6t-149 -12l-43 -6l-3 8q16 47 30 137l5 6q48 -6 121 -6h791q22 0 44 0.5t43 2t37 3.5l3 -6q-25 -88 -29 -137l-6 -8
q-15 3 -45 6.5t-135.5 10.5t-227.5 7q-29 -57 -78 -289l-107 -501q-56 -265 -66 -410l-6 -6q-4 1 -11.5 2t-34 2.5t-57.5 1.5h-23t-20 -0.5t-17 -1t-14.5 -1t-12 -1t-9.5 -1t-6.5 -1t-3.5 -0.5h-2l-1 6q50 139 108 410z" />
    <glyph glyph-name="tcaron" unicode="&#x165;" horiz-adv-x="641" 
d="M827 1430q56 0 79.5 -45.5t11.5 -104.5q-14 -67 -84.5 -136.5t-170.5 -80.5l-3 35q62 13 106 56.5t53 84.5q9 43 -20 43q-94 0 -77 78q6 27 34 48.5t71 21.5zM367 879q9 42 25 125t28 129l5 6q30 2 53.5 7t35.5 9.5t33.5 14t35.5 14.5q18 0 14 -21q-38 -132 -70 -284h221
q8 0 11.5 -3.5t2.5 -9.5l-11 -51q-6 -27 -55 -27h-189l-62 -292q-15 -69 -35.5 -156.5t-24.5 -110.5q-29 -137 40 -137q89 0 148 30l14 -56q-36 -27 -82.5 -47t-93 -29.5t-90.5 -9.5q-68 0 -97.5 52.5t-15.5 129.5q6 34 32.5 146.5t38.5 164.5l69 315h-131q-8 0 -7 9l16 73
q2 8 8 9h133z" />
    <glyph glyph-name="Tbar" unicode="&#x166;" horiz-adv-x="1105" 
d="M350 674l17 80h258l34 157q49 233 45 289q-122 0 -227 -6t-149 -12l-43 -6l-3 8q16 47 30 137l5 6q48 -6 121 -6h791q22 0 44 0.5t43 2t37 3.5l3 -6q-25 -88 -29 -137l-6 -8q-15 3 -45 6.5t-135.5 10.5t-227.5 7q-29 -57 -78 -289l-34 -157h277l-17 -80h-277l-56 -264
q-56 -265 -66 -410l-6 -6q-34 6 -103 6h-23t-20 -0.5t-17 -1t-14.5 -1t-12 -1t-9.5 -1t-6.5 -1t-3.5 -0.5h-2l-1 6q50 139 108 410l56 264h-258z" />
    <glyph glyph-name="tbar" unicode="&#x167;" horiz-adv-x="618" 
d="M367 879q9 42 25 125t28 129l5 6q30 2 53.5 7t35.5 9.5t33.5 14t35.5 14.5q18 0 14 -21q-38 -132 -70 -284h221q8 0 11.5 -3.5t2.5 -9.5l-11 -51q-6 -27 -55 -27h-189l-43 -206h208q27 0 20 -27q-4 -18 -20.5 -35.5t-34.5 -17.5h-190l-2 -6q-15 -69 -35.5 -156.5
t-24.5 -110.5q-29 -137 40 -137q89 0 148 30l14 -56q-36 -27 -82.5 -47t-93 -29.5t-90.5 -9.5q-68 0 -97.5 52.5t-15.5 129.5q6 34 32.5 146.5t38.5 164.5l6 29h-117q-20 0 -16 28q4 16 19 34t30 18h101l46 206h-131q-8 0 -7 9l16 73q2 8 8 9h133z" />
    <glyph glyph-name="Utilde" unicode="&#x168;" horiz-adv-x="1353" 
d="M1169 1520q36 0 63.5 22t61.5 84l46 -12q-76 -184 -217 -184q-51 0 -120 53q-64 45 -101 45q-20 0 -36.5 -6t-31 -18.5t-27 -30t-26.5 -43.5l-47 10q42 93 90 137.5t113 44.5q66 0 135 -57q50 -45 97 -45zM1261 911q56 265 66 410l6 6q2 -1 5 -1.5t6.5 -1t10 -1l13 -1
t16 -1t19.5 -0.5q20 0 38.5 1.5t26.5 3.5l8 1l1 -6q-50 -136 -108 -410l-65 -307q-31 -146 -76.5 -253t-119.5 -194.5t-188 -132t-267 -44.5q-50 0 -97.5 8t-101 29t-91 57.5t-68 92.5t-32.5 134t16 182l91 428q56 265 66 410l6 6q34 -6 103 -6l108 6l1 -6
q-50 -136 -108 -410l-77 -360q-99 -467 249 -467q100 0 177.5 30t123.5 72.5t82 113.5t52.5 127.5t34.5 139.5z" />
    <glyph glyph-name="utilde" unicode="&#x169;" horiz-adv-x="1067" 
d="M930 1167q36 0 63.5 22.5t61.5 84.5l47 -12q-76 -184 -218 -185q-51 0 -119 53q-20 14 -33.5 22.5t-32.5 16t-35 7.5q-26 0 -47.5 -11t-39 -32t-35.5 -56l-47 10q42 93 90 138t113 45q66 0 135 -58q50 -45 97 -45zM745 131q-68 -59 -126 -93.5t-101 -46t-88 -11.5
q-73 0 -121.5 23.5t-67.5 62.5t-23.5 89t9.5 103l53 252q28 130 41 208.5t17 160.5l6 6q28 -6 97 -6l101 6l1 -6q-47 -121 -99 -369l-43 -203q-26 -122 9.5 -168.5t96.5 -46.5q101 0 262 152l56 266q51 239 58 369l5 6q28 -6 97 -6l102 6l1 -6q-47 -121 -99 -369l-25 -117
q-23 -106 -35 -211.5t-14 -181.5l-5 -6q-39 6 -90 6q-22 0 -72 -6q-18 0 -17 6l18 131h-4z" />
    <glyph glyph-name="Umacron" unicode="&#x16a;" horiz-adv-x="1353" 
d="M1267 1499h-500q-27 0 -20 31q3 12 12 26t22 23.5t24 9.5h501q14 0 19.5 -9t3.5 -19q-2 -7 -6 -16t-10.5 -17t-14 -14.5t-15.5 -10.5t-16 -4zM1261 911q56 265 66 410l6 6q2 -1 5 -1.5t6.5 -1t10 -1l13 -1t16 -1t19.5 -0.5q20 0 38.5 1.5t26.5 3.5l8 1l1 -6
q-50 -136 -108 -410l-65 -307q-31 -146 -76.5 -253t-119.5 -194.5t-188 -132t-267 -44.5q-50 0 -97.5 8t-101 29t-91 57.5t-68 92.5t-32.5 134t16 182l91 428q56 265 66 410l6 6q34 -6 103 -6l108 6l1 -6q-50 -136 -108 -410l-77 -360q-99 -467 249 -467q100 0 177.5 30
t123.5 72.5t82 113.5t52.5 127.5t34.5 139.5z" />
    <glyph glyph-name="umacron" unicode="&#x16b;" horiz-adv-x="1067" 
d="M1023 1102h-500q-27 0 -20 31q3 12 12 25.5t22 23.5t24 10h501q29 0 23 -29q-4 -20 -23.5 -40.5t-38.5 -20.5zM745 131q-68 -59 -126 -93.5t-101 -46t-88 -11.5q-73 0 -121.5 23.5t-67.5 62.5t-23.5 89t9.5 103l53 252q28 130 41 208.5t17 160.5l6 6q28 -6 97 -6l101 6
l1 -6q-47 -121 -99 -369l-43 -203q-26 -122 9.5 -168.5t96.5 -46.5q101 0 262 152l56 266q51 239 58 369l5 6q28 -6 97 -6l102 6l1 -6q-47 -121 -99 -369l-25 -117q-23 -106 -35 -211.5t-14 -181.5l-5 -6q-39 6 -90 6q-22 0 -72 -6q-18 0 -17 6l18 131h-4z" />
    <glyph glyph-name="Ubreve" unicode="&#x16c;" horiz-adv-x="1353" 
d="M1341 1647q-31 -105 -126 -168.5t-201 -63.5q-114 0 -179.5 63t-50.5 169h58q0 -58 55 -91.5t139 -33.5q30 0 61 5t60.5 15.5t54.5 25.5t44 35t28 44h57zM1261 911q56 265 66 410l6 6q2 -1 5 -1.5t6.5 -1t10 -1l13 -1t16 -1t19.5 -0.5q20 0 38.5 1.5t26.5 3.5l8 1l1 -6
q-50 -136 -108 -410l-65 -307q-31 -146 -76.5 -253t-119.5 -194.5t-188 -132t-267 -44.5q-50 0 -97.5 8t-101 29t-91 57.5t-68 92.5t-32.5 134t16 182l91 428q56 265 66 410l6 6q34 -6 103 -6l108 6l1 -6q-50 -136 -108 -410l-77 -360q-99 -467 249 -467q100 0 177.5 30
t123.5 72.5t82 113.5t52.5 127.5t34.5 139.5z" />
    <glyph glyph-name="ubreve" unicode="&#x16d;" horiz-adv-x="1067" 
d="M589 1323q0 -40 12.5 -74.5t36 -58.5t58 -37.5t74.5 -13.5q83 0 155.5 49t105.5 135l50 -25q-44 -126 -141.5 -201t-193.5 -75q-108 0 -166 73t-52 203zM745 131q-68 -59 -126 -93.5t-101 -46t-88 -11.5q-73 0 -121.5 23.5t-67.5 62.5t-23.5 89t9.5 103l53 252
q28 130 41 208.5t17 160.5l6 6q28 -6 97 -6l101 6l1 -6q-47 -121 -99 -369l-43 -203q-26 -122 9.5 -168.5t96.5 -46.5q101 0 262 152l56 266q51 239 58 369l5 6q28 -6 97 -6l102 6l1 -6q-47 -121 -99 -369l-25 -117q-23 -106 -35 -211.5t-14 -181.5l-5 -6q-39 6 -90 6
q-22 0 -72 -6q-18 0 -17 6l18 131h-4z" />
    <glyph glyph-name="Uring" unicode="&#x16e;" horiz-adv-x="1353" 
d="M1050 1595q-31 0 -58 -15.5t-44.5 -41.5t-24.5 -57q-10 -45 11 -80t67 -35t81.5 34.5t45.5 80.5q6 24 2.5 44.5t-13.5 36t-27 24.5t-40 9zM847 1481q15 70 79 120t135.5 50t114.5 -49.5t28 -120.5q-10 -45 -42 -84.5t-78.5 -62.5t-94.5 -23q-71 0 -114 50t-28 120z
M1261 911q56 265 66 410l6 6q2 -1 5 -1.5t6.5 -1t10 -1l13 -1t16 -1t19.5 -0.5q20 0 38.5 1.5t26.5 3.5l8 1l1 -6q-50 -136 -108 -410l-65 -307q-31 -146 -76.5 -253t-119.5 -194.5t-188 -132t-267 -44.5q-50 0 -97.5 8t-101 29t-91 57.5t-68 92.5t-32.5 134t16 182l91 428
q56 265 66 410l6 6q34 -6 103 -6l108 6l1 -6q-50 -136 -108 -410l-77 -360q-99 -467 249 -467q100 0 177.5 30t123.5 72.5t82 113.5t52.5 127.5t34.5 139.5z" />
    <glyph glyph-name="uring" unicode="&#x16f;" horiz-adv-x="1067" 
d="M792 1309q-46 0 -81 -33.5t-46 -81.5q-6 -29 0.5 -55t27 -43t50.5 -17q46 0 81.5 34.5t45.5 80.5q6 24 2.5 45t-13 36.5t-27 24.5t-40.5 9zM590 1194q15 70 79 120t135.5 50t114 -49.5t27.5 -120.5q-10 -45 -42 -84.5t-78 -62.5t-94 -23q-71 0 -114 50t-28 120zM745 131
q-68 -59 -126 -93.5t-101 -46t-88 -11.5q-73 0 -121.5 23.5t-67.5 62.5t-23.5 89t9.5 103l53 252q28 130 41 208.5t17 160.5l6 6q28 -6 97 -6l101 6l1 -6q-47 -121 -99 -369l-43 -203q-26 -122 9.5 -168.5t96.5 -46.5q101 0 262 152l56 266q51 239 58 369l5 6q28 -6 97 -6
l102 6l1 -6q-47 -121 -99 -369l-25 -117q-23 -106 -35 -211.5t-14 -181.5l-5 -6q-39 6 -90 6q-22 0 -72 -6q-18 0 -17 6l18 131h-4z" />
    <glyph glyph-name="Uhungarumlaut" unicode="&#x170;" horiz-adv-x="1353" 
d="M1397 1622q-6 -27 -23 -41l-239 -172q-7 -6 -18 -6q-9 0 -16 7.5t-5 19.5q2 9 13 22l169 223q21 25 52 25q41 0 57 -24.5t10 -53.5zM1131 1632q-6 -28 -22 -39l-215 -165q-20 -15 -32 -15q-11 0 -17.5 7t-4.5 18q0 2 1.5 5.5t3.5 8.5t5 8l159 226q21 25 61 24
q27 0 47.5 -22.5t13.5 -55.5zM1261 911q56 265 66 410l6 6q2 -1 5 -1.5t6.5 -1t10 -1l13 -1t16 -1t19.5 -0.5q20 0 38.5 1.5t26.5 3.5l8 1l1 -6q-50 -136 -108 -410l-65 -307q-31 -146 -76.5 -253t-119.5 -194.5t-188 -132t-267 -44.5q-50 0 -97.5 8t-101 29t-91 57.5
t-68 92.5t-32.5 134t16 182l91 428q56 265 66 410l6 6q34 -6 103 -6l108 6l1 -6q-50 -136 -108 -410l-77 -360q-99 -467 249 -467q100 0 177.5 30t123.5 72.5t82 113.5t52.5 127.5t34.5 139.5z" />
    <glyph glyph-name="uhungarumlaut" unicode="&#x171;" horiz-adv-x="1067" 
d="M1151 1251q-2 -7 -4 -12.5t-7 -13t-12 -13.5l-281 -225q-5 -4 -13 -4q-9 0 -17.5 7.5t-5.5 19.5l3 8l221 285q19 25 54 24q32 0 50 -23.5t12 -52.5zM883 1264q-1 -4 -2.5 -8t-3.5 -8.5t-5 -8.5l-6 -8l-262 -248q-7 -6 -17.5 -6t-18 7.5t-4.5 19.5q1 4 3 6l194 299
q19 29 60 28q21 0 37 -9.5t22.5 -26t2.5 -37.5zM745 131q-68 -59 -126 -93.5t-101 -46t-88 -11.5q-73 0 -121.5 23.5t-67.5 62.5t-23.5 89t9.5 103l53 252q28 130 41 208.5t17 160.5l6 6q28 -6 97 -6l101 6l1 -6q-47 -121 -99 -369l-43 -203q-26 -122 9.5 -168.5t96.5 -46.5
q101 0 262 152l56 266q51 239 58 369l5 6q28 -6 97 -6l102 6l1 -6q-47 -121 -99 -369l-25 -117q-23 -106 -35 -211.5t-14 -181.5l-5 -6q-39 6 -90 6q-22 0 -72 -6q-18 0 -17 6l18 131h-4z" />
    <glyph glyph-name="Uogonek" unicode="&#x172;" horiz-adv-x="1353" 
d="M1020 -260q-53 -52 -114.5 -83.5t-112.5 -31.5q-75 0 -109.5 42t-19.5 114q12 56 50 109t97 104q-72 -14 -158 -14q-50 0 -97.5 8t-101 29t-91 57.5t-68 92.5t-32.5 134t16 182l91 428q56 265 66 410l6 6q34 -6 103 -6l108 6l1 -6q-50 -136 -108 -410l-77 -360
q-99 -467 249 -467q100 0 177.5 30t123.5 72.5t82 113.5t52.5 127.5t34.5 139.5l73 344q56 265 66 410l6 6q2 -1 5 -1.5t6.5 -1t10 -1l13 -1t16 -1t19.5 -0.5q20 0 38.5 1.5t26.5 3.5l8 1l1 -6q-50 -136 -108 -410l-65 -307q-39 -183 -104 -312.5t-172 -206.5
q-106 -87 -157 -147.5t-67 -134.5q-7 -34 11 -61t56 -27q51 0 122 62l6 -2z" />
    <glyph glyph-name="uogonek" unicode="&#x173;" horiz-adv-x="1067" 
d="M620 -426q-56 0 -94.5 17.5t-55.5 55.5t-5 93q10 49 47.5 103t96 104.5t126.5 84.5l14 99h-4q-68 -59 -126 -93.5t-101 -46t-88 -11.5q-73 0 -121.5 23.5t-67.5 62.5t-23.5 89t9.5 103l53 252q28 130 41 208.5t17 160.5l6 6q28 -6 97 -6l101 6l1 -6q-47 -121 -99 -369
l-43 -203q-26 -122 9.5 -168.5t96.5 -46.5q101 0 262 152l56 266q51 239 58 369l5 6q28 -6 97 -6l102 6l1 -6q-47 -121 -99 -369l-25 -117q-23 -106 -35 -211.5t-14 -181.5l-5 -6q-39 6 -90 6q-23 0 -45 -3q-45 -26 -84 -65.5t-63.5 -80.5t-32.5 -76q-6 -25 -1.5 -47t16 -38
t32.5 -25t49 -9q71 0 156 70l27 -15q-49 -67 -120.5 -102t-133.5 -35z" />
    <glyph glyph-name="Wcircumflex" unicode="&#x174;" horiz-adv-x="1849" 
d="M1189 1649q62 -100 166 -193l-41 -43q-114 58 -190 127q-118 -75 -247 -127l-19 43q102 67 243 193h88zM1360 281q77 120 156 259t162 303.5t122.5 246t113.5 237.5q5 -1 12 -2t14.5 -1.5t16.5 -1t16 -1t16.5 -0.5h14h11.5h26t26 1.5t27 4.5q-129 -192 -267.5 -430.5
t-280 -485.5t-260.5 -431h-57q-40 195 -130 704l-448 -704h-57q-34 162 -95.5 480.5t-107.5 547t-72 319.5q34 -6 122 -6q74 0 109 6q35 -472 169 -1075h4q68 105 350 577q-34 190 -57.5 312.5t-41.5 185.5q34 -6 122 -6h40t39 1.5t41 4.5q0 -1 3 -72.5t10 -151.5
t20.5 -201.5t41 -283.5t65.5 -337h4z" />
    <glyph glyph-name="wcircumflex" unicode="&#x175;" horiz-adv-x="1540" 
d="M1084 1321q27 -66 63.5 -128.5t86.5 -135.5l-49 -29q-25 22 -39.5 35.5t-36 33.5t-36.5 36t-32.5 37t-33.5 42q-110 -93 -258 -184l-35 29q183 164 267 264h103zM420 -8q-85 494 -181 891q21 -4 46.5 -5t60.5 -1h34.5t35 1.5t34.5 4.5q43 -418 106 -701h13
q121 178 265 424q-29 142 -62 279q32 -6 107.5 -6t103.5 6q41 -399 109 -700h16q39 57 81 125t86 143.5t80.5 140t85 151t78.5 140.5q17 -6 69 -6q70 0 89 6q-53 -80 -146 -220t-153 -230.5t-137 -213.5t-136 -227q-17 6 -83 6q-53 0 -75 -6q-53 310 -86 479
q-110 -175 -283 -481q-17 6 -89 6h-22.5t-22.5 -1.5t-24 -4.5z" />
    <glyph glyph-name="Ycircumflex" unicode="&#x176;" horiz-adv-x="1210" 
d="M993 1649q62 -100 166 -193l-41 -43q-57 29 -103.5 59.5t-87.5 67.5q-118 -75 -246 -127l-19 43q102 67 243 193h88zM809 585q-92 -451 -110 -591q-32 6 -105 6h-25.5t-25 -0.5t-29.5 -2t-26 -3.5q41 131 135 569q-40 108 -154.5 392.5t-153.5 371.5q34 -6 115.5 -6
t117.5 6q22 -76 52 -162t52.5 -147t61.5 -163.5t59 -157.5q299 352 492 630q6 -1 12.5 -2.5t14.5 -2t14 -1t15.5 -0.5h14.5h14h28.5t28 1.5t30.5 4.5q-72 -83 -176.5 -202.5t-155.5 -178.5t-114.5 -134t-105.5 -127t-76 -100z" />
    <glyph glyph-name="ycircumflex" unicode="&#x177;" horiz-adv-x="995" 
d="M859 1323q18 -45 44.5 -94t50 -86t55.5 -84l-49 -29q-122 108 -178 184q-44 -37 -88.5 -70t-82.5 -58.5t-87 -55.5l-35 29q183 164 267 264h103zM225 885q27 -6 105 -6q74 0 102 6q24 -207 124 -706h4q199 292 419 706q19 -6 78 -6q68 0 89 6q-126 -180 -462.5 -692.5
t-422.5 -677.5q-32 10 -98 10q-38 0 -74 -10q179 221 324 446q-15 91 -52.5 281t-75.5 370t-60 273z" />
    <glyph glyph-name="Ydieresis" unicode="&#x178;" horiz-adv-x="1210" 
d="M693.5 1538q8.5 38 42 66t72 28t60.5 -28t14 -66t-42 -66t-72.5 -28t-60.5 28t-13.5 66zM1021 1538q8 38 42 66t72.5 28t60.5 -28t13.5 -66t-42 -66t-72 -28t-60.5 28t-14 66zM809 585q-92 -451 -110 -591q-32 6 -105 6h-25.5t-25 -0.5t-29.5 -2t-26 -3.5q41 131 135 569
q-40 108 -154.5 392.5t-153.5 371.5q34 -6 115.5 -6t117.5 6q22 -76 52 -162t52.5 -147t61.5 -163.5t59 -157.5q299 352 492 630q6 -1 12.5 -2.5t14.5 -2t14 -1t15.5 -0.5h14.5h14h28.5t28 1.5t30.5 4.5q-72 -83 -176.5 -202.5t-155.5 -178.5t-114.5 -134t-105.5 -127
t-76 -100z" />
    <glyph glyph-name="Zacute" unicode="&#x179;" horiz-adv-x="1236" 
d="M366 111q119 0 325 5.5t352 10.5l146 6l3 -6q-11 -33 -18 -68q0 -2 -9 -59l-5 -6q-48 6 -144 6h-785q-27 0 -71.5 -1.5t-77 -3t-30.5 -1.5l-4 8q6 6 12 12.5t11.5 12.5t10.5 12t10 11.5t9.5 10t8.5 9.5t7 8l1032 1108q6 7 8 12.5t-1 8.5t-8 3q-112 0 -305 -5.5
t-330 -11.5l-138 -5l-2 6q11 33 18 68q0 2 9 59l5 6q48 -6 124 -6h663q166 0 261 12q12 0 9 -12q-5 -25 -85 -111l-993 -1063q-14 -17 -18 -36zM1070 1679q79 -41 104 -106l-320 -119q-63 -25 -91 -24q-13 0 -20 9t-4 21q5 22 39 43z" />
    <glyph glyph-name="zacute" unicode="&#x17a;" horiz-adv-x="851" 
d="M816 1374q13 4 30 4q63 0 103 -47l1 -22l-283 -224q-18 -15 -31.5 -23.5t-22 -11.5t-16.5 -3q-11 0 -18 8t-5 18q4 21 30 51l6 6zM300 102q111 1 240 6.5t203 11.5l74 5l3 -6q-11 -33 -18 -64q-2 -8 -3 -15.5t-2 -18.5t-2 -21l-6 -6q-45 6 -113 6h-463q-58 0 -167 -6
l-4 9q16 15 58 63l632 710q-235 -3 -471 -22l-3 6q11 32 17 63q2 8 3 15.5t2.5 19t2.5 21.5l5 6q45 -6 114 -6h418q20 0 49.5 2t53 4t43 4t22.5 2q6 0 7.5 -3t0.5 -9q-17 -16 -80 -86z" />
    <glyph glyph-name="Zdotaccent" unicode="&#x17b;" horiz-adv-x="1236" 
d="M857 1536q4 20 17 39.5t30 33.5t38 22.5t42 8.5q41 0 66 -31.5t16 -72.5t-47 -72.5t-79.5 -31.5t-66.5 31.5t-16 72.5zM366 111q119 0 325 5.5t352 10.5l146 6l3 -6q-11 -33 -18 -68q0 -2 -9 -59l-5 -6q-48 6 -144 6h-785q-27 0 -71.5 -1.5t-77 -3t-30.5 -1.5l-4 8
q6 6 12 12.5t11.5 12.5t10.5 12t10 11.5t9.5 10t8.5 9.5t7 8l1032 1108q6 7 8 12.5t-1 8.5t-8 3q-112 0 -305 -5.5t-330 -11.5l-138 -5l-2 6q11 33 18 68q0 2 9 59l5 6q48 -6 124 -6h663q166 0 261 12q12 0 9 -12q-5 -25 -85 -111l-993 -1063q-14 -17 -18 -36z" />
    <glyph glyph-name="zdotaccent" unicode="&#x17c;" horiz-adv-x="851" 
d="M584 1169q6 27 25.5 51.5t47 39t54.5 14.5q41 0 66 -31.5t16.5 -73t-47 -73t-80 -31.5t-66.5 31.5t-16 72.5zM300 102q111 1 240 6.5t203 11.5l74 5l3 -6q-11 -33 -18 -64q-2 -8 -3 -15.5t-2 -18.5t-2 -21l-6 -6q-45 6 -113 6h-463q-58 0 -167 -6l-4 9q16 15 58 63
l632 710q-235 -3 -471 -22l-3 6q11 32 17 63q2 8 3 15.5t2.5 19t2.5 21.5l5 6q45 -6 114 -6h418q20 0 49.5 2t53 4t43 4t22.5 2q6 0 7.5 -3t0.5 -9q-17 -16 -80 -86z" />
    <glyph glyph-name="Zcaron" unicode="&#x17d;" horiz-adv-x="1236" 
d="M877 1427q-54 90 -166 195l42 41q111 -53 190 -125q133 81 246 125l22 -41q-117 -77 -246 -195h-88zM366 111q119 0 325 5.5t352 10.5l146 6l3 -6q-11 -33 -18 -68q0 -2 -9 -59l-5 -6q-48 6 -144 6h-785q-27 0 -71.5 -1.5t-77 -3t-30.5 -1.5l-4 8q6 6 12 12.5t11.5 12.5
t10.5 12t10 11.5t9.5 10t8.5 9.5t7 8l1032 1108q6 7 8 12.5t-1 8.5t-8 3q-112 0 -305 -5.5t-330 -11.5l-138 -5l-2 6q11 33 18 68q0 2 9 59l5 6q48 -6 124 -6h663q166 0 261 12q12 0 9 -12q-5 -25 -85 -111l-993 -1063q-14 -17 -18 -36z" />
    <glyph glyph-name="zcaron" unicode="&#x17e;" horiz-adv-x="851" 
d="M603 1026q-51 126 -150 266l47 27q122 -108 177 -184q33 28 65.5 52.5t68.5 49t60.5 40t66.5 42.5l33 -27q-170 -153 -265 -266h-103zM300 102q111 1 240 6.5t203 11.5l74 5l3 -6q-11 -33 -18 -64q-2 -8 -3 -15.5t-2 -18.5t-2 -21l-6 -6q-45 6 -113 6h-463q-58 0 -167 -6
l-4 9q16 15 58 63l632 710q-235 -3 -471 -22l-3 6q11 32 17 63q2 8 3 15.5t2.5 19t2.5 21.5l5 6q45 -6 114 -6h418q20 0 49.5 2t53 4t43 4t22.5 2q6 0 7.5 -3t0.5 -9q-17 -16 -80 -86z" />
    <glyph glyph-name="longs" unicode="&#x17f;" horiz-adv-x="593" 
d="M360 895q19 23 32 82q27 125 49.5 174.5t91.5 122.5q147 156 342 156q63 0 89 -19v-6q-35 -44 -93 -168l-23 -2q-11 33 -36 52.5t-67 19.5q-80 0 -116 -54.5t-58 -156.5q-3 -12 -7 -38l-8 -52t-9 -55t-8 -46l-168 -768q-31 -140 -84.5 -262t-113.5 -192
q-133 -156 -293 -156q-26 0 -47.5 5t-31.5 13l-1 6q31 43 84 168l20 2q22 -72 94 -71q25 0 46 11.5t34.5 26t29.5 47.5t24.5 55.5t25.5 70.5t37 146t47 245.5t44 230.5l57 273q7 33 -18 32h-86q-8 0 -11 2.5t-3 8.5l10 51q6 29 42 29q47 0 83 16z" />
    <glyph glyph-name="uni0180" unicode="&#x180;" horiz-adv-x="1017" 
d="M781 1130l-15 -69h-223q-4 -18 -8 -37l-50 -238q128 113 280 113q143 0 231.5 -112.5t50.5 -290.5q-14 -68 -42 -131t-64.5 -114t-80.5 -95t-91.5 -76t-97.5 -55t-98.5 -34t-93.5 -11q-121 0 -193 75q-45 -34 -84 -80q-47 0 -62 11q21 52 45 159l179 842q4 16 15 74h-137
l15 69h135q30 159 33 242l5 6q24 2 45.5 5.5t45 10.5t33.5 10t38 13.5t31 12.5q18 0 14 -21q-44 -132 -78 -279h222zM353 166q57 -96 133 -96q143 0 242 105t137 284q16 74 10 135t-29.5 104t-61 66.5t-84.5 23.5q-131 0 -233 -86z" />
    <glyph glyph-name="uni0181" unicode="&#x181;" horiz-adv-x="1335" 
d="M770 1241l-102 -477h162q75 0 135.5 16t97.5 39.5t64 56.5t39 62t19 61q16 60 6 104t-30 72t-58 44.5t-78 23t-90 6.5q-101 0 -165 -8zM651 684l-129 -608q77 -10 178 -10q63 0 118.5 9.5t98 26.5t78 41t60.5 50.5t44.5 58t31 61.5t18.5 62q5 36 8 77t-13 82t-42.5 74.5
t-82 54.5t-130.5 21h-238zM232 1044q21 99 127 188t252 89h411q90 0 156.5 -21t99.5 -54.5t53 -75.5t18 -84.5t-7 -81.5q-9 -41 -32 -82t-56 -75t-73 -63t-85 -49q50 -14 90 -35t66.5 -45.5t45 -53.5t28 -57.5t13 -59.5t2 -57.5t-7.5 -51.5q-34 -161 -188 -270t-312 -109
q-88 0 -230.5 2t-180.5 2l-234 -4l9 43q3 16 15 16h64q52 0 68 19.5t27 72.5l219 1029q19 90 -22 90q-65 0 -119.5 -38t-65.5 -93q-3 -16 -3 -50l-3 -43q-8 -37 -33.5 -55t-53.5 -18q-32 0 -48.5 22t-9.5 53z" />
    <glyph glyph-name="uni0182" unicode="&#x182;" horiz-adv-x="1159" 
d="M503 711l-133 -625q95 -16 171 -16q175 0 288.5 73.5t149.5 241.5q7 46 10 91.5t-14.5 88t-48 75t-90.5 52t-142 19.5h-191zM437 1180q12 57 1 71.5t-62 14.5h-62q-10 0 -8 8l10 47h923l-34 -287l-55 -6q-9 127 -53 171t-126 44h-355l-98 -463h117q146 0 247 -18
t174 -61.5t97 -123t-1 -196.5q-38 -180 -183 -280.5t-322 -100.5h-612l9 45q1 7 13 10h61q43 0 66.5 23.5t34.5 75.5z" />
    <glyph glyph-name="uni0183" unicode="&#x183;" horiz-adv-x="987" 
d="M329 111q15 -25 34.5 -39t42.5 -18.5t57 -4.5q141 0 241 113t139 295q33 153 -14 252.5t-143 99.5q-125 0 -227 -86zM689 1409h411l-32 -287l-55 -6q-3 54 -15.5 101t-46.5 84.5t-85 37.5h-276l-118 -553q128 113 274 113q139 0 218.5 -117.5t41.5 -298.5
q-33 -155 -125 -273t-202 -174t-218 -56q-130 0 -198 71q-20 -22 -80 -76l-41 11q16 47 40 159l221 1039q9 43 11.5 71.5t-2 44.5t-14 22.5t-25.5 6.5l-67 -6q-10 0 -8 10l7 51q153 25 384 25z" />
    <glyph glyph-name="uni0184" unicode="&#x184;" horiz-adv-x="1171" 
d="M516 711l-134 -627q69 -14 171 -14q84 0 153.5 16.5t128 52.5t98.5 98t58 148q7 46 10 91.5t-14.5 88t-48 75t-90.5 52t-142 19.5h-190zM400 946q10 50 7.5 87.5t-17 63.5t-35.5 41.5t-49 20.5l15 70q150 27 275 119h55l-121 -568h115q147 0 248.5 -18t174.5 -61.5
t97 -123t-1 -196.5q-38 -180 -183 -280.5t-322 -100.5h-612l10 45q2 8 12 10h61q80 0 101 97z" />
    <glyph glyph-name="uni0185" unicode="&#x185;" horiz-adv-x="993" 
d="M343 113q39 -63 136 -64q94 0 173 55t131 146.5t77 210.5q33 154 -14.5 252t-144.5 98q-125 0 -228 -86zM386 1026q38 177 -98 213l15 70q150 30 275 121h45l-136 -642q125 111 275 111q140 0 220 -115.5t41 -296.5q-49 -230 -213.5 -368.5t-334.5 -138.5q-125 0 -197 73
q-19 -22 -71 -68l-9 -8l-39 11q22 74 41 162z" />
    <glyph glyph-name="uni0186" unicode="&#x186;" horiz-adv-x="1331" 
d="M571 -20q-111 0 -217.5 23t-158.5 46l-51 23l-2 6q7 16 15.5 34.5t13.5 29t11 24.5t10 24t9.5 23.5t9.5 26.5t9 29.5t11 35.5l21 2q67 -231 368 -231q53 0 113.5 18.5t128.5 62t127 106.5t109 162t75 218q20 92 22 177.5t-17 163t-58.5 134.5t-108.5 91t-161 34
q-152 0 -270.5 -44t-247.5 -159l-41 31q131 134 289 205.5t311 71.5q128 0 228 -38t159 -102t95 -149.5t36.5 -181t-17.5 -195.5q-42 -196 -172 -359t-303 -253t-346 -90z" />
    <glyph glyph-name="uni0187" unicode="&#x187;" horiz-adv-x="1331" 
d="M1685 1522q38 0 51 -24.5t7 -49.5q-15 -72 -117 -72q-33 0 -96 -57.5t-80 -57.5l11 -6l3 -6q-7 -15 -19 -41q-8 -16 -11 -23v-5v-4l-4 -1q-18 -39 -29.5 -70.5t-26.5 -82.5l-20 -2q-67 231 -369 231q-53 0 -113.5 -18.5t-128.5 -62t-127 -106.5t-109 -162t-75 -218
q-20 -92 -22 -177.5t17 -163t58.5 -134.5t108.5 -91t161 -34q100 0 180 17t165.5 62t172.5 124l41 -31q-131 -134 -289 -205t-310 -71q-128 0 -228 37.5t-159 101.5t-95.5 149.5t-36.5 181t17 195.5q42 196 172 359t303 253.5t346 90.5q191 0 366 -67q27 76 83.5 134
t109 82.5t92.5 24.5z" />
    <glyph glyph-name="uni0188" unicode="&#x188;" horiz-adv-x="1009" 
d="M1120 877q-16 0 -50.5 9t-51.5 9q-45 0 -85 -36q29 -11 53 -25l3 -7l-83 -168l-27 -2q-13 34 -29 60h-12h-14h-13t-11.5 0.5t-3.5 1.5q7 26 15 46q-46 42 -107 42q-112 0 -217 -89t-139 -247q-37 -172 32 -276.5t194 -104.5q136 0 253 129h8l34 -33q-29 -41 -63.5 -75
t-71 -58t-76 -41t-77.5 -24.5t-75 -7.5q-194 0 -289 124t-53 322q30 139 123 250t209.5 167t229.5 56q73 0 148 -21q38 48 88 82t93 48t80 14q32 0 49.5 -13t21 -28.5t-0.5 -32.5q-7 -33 -30 -52t-55 -19z" />
    <glyph glyph-name="uni0189" unicode="&#x189;" horiz-adv-x="1447" 
d="M419 168q-8 -35 3 -51t56 -23.5t146 -7.5q77 0 141.5 8t130.5 28t119 57t100.5 90t82.5 132.5t56 180.5q21 100 23.5 189.5t-21 176.5t-74 149.5t-143.5 101t-221 38.5q-57 0 -92 -5t-62.5 -24t-34.5 -53l-104 -487h207l-17 -80h-207zM576 1321q66 0 169.5 3t169.5 3
q193 0 336.5 -94t203.5 -254.5t21 -347.5q-26 -122 -76.5 -222t-117 -167.5t-141.5 -117t-159 -76.5t-160 -39.5t-153 -12.5q-114 0 -212 2t-162 2l-108 -6l-1 6q50 139 108 410l38 178h-172l17 80h172l52 243q56 265 66 410l5 6q35 -6 104 -6z" />
    <glyph glyph-name="uni018A" unicode="&#x18a;" horiz-adv-x="1593" 
d="M580 147q-3 -25 -1.5 -40.5t24.5 -24.5t64.5 -12.5t118.5 -3.5q547 0 657 516q17 81 19.5 159t-9.5 154.5t-47 140.5t-88.5 113t-137.5 76.5t-191 27.5q-45 0 -72 -2t-54.5 -9.5t-43 -23.5t-20.5 -42zM371 1042q-7 -32 -30 -50.5t-54 -18.5q-30 0 -49 19t-9 65
q8 36 34 79t70 86.5t114 72t152 28.5q27 0 71.5 -1t73.5 -1q73 0 191 1t145 1q194 0 337 -93t202.5 -252t19.5 -347q-135 -635 -804 -635q-52 0 -115 1t-130 2t-127 1l-263 -4l8 41q4 18 19 18h61q58 0 87 22.5t40 72.5l217 1021q12 48 1 71.5t-55 23.5q-67 0 -128 -31.5
t-74 -91.5q-3 -14 -3 -51q4 -23 -2 -50z" />
    <glyph glyph-name="uni018B" unicode="&#x18b;" horiz-adv-x="1150" 
d="M946 711h-183q-101 0 -179.5 -29t-126.5 -79t-76 -103.5t-41 -114.5q-68 -319 305 -319q72 0 167 18zM1209 1180l-218 -1028q-11 -50 3 -73.5t58 -23.5h61q8 -3 7 -10l-11 -49q-143 4 -232 4q-33 0 -67 -0.5t-61 -1t-57 -1t-56.5 -0.5t-60 -0.5t-66.5 -0.5
q-177 0 -278.5 102t-63.5 283q25 117 82.5 196.5t149 123t200 61.5t255.5 18h107l98 463h-344q-54 0 -95 -15t-87.5 -63.5t-90.5 -136.5l-52 6l95 314q98 -27 226 -27h444q41 0 100 0.5t98 0.5l38 1l-10 -49q-5 -7 -10 -8h-62q-36 0 -53 -6t-28 -23.5t-19 -56.5z" />
    <glyph glyph-name="uni018C" unicode="&#x18c;" horiz-adv-x="1011" 
d="M724 186l110 521q-26 62 -65.5 92t-108.5 30q-28 0 -55.5 -5t-73.5 -30t-84 -69q-82 -88 -121 -272q-39 -186 16.5 -286.5t150.5 -100.5q48 0 99.5 28t131.5 92zM1140 1430l18 -19q-26 -26 -41 -98l-227 -1067q-17 -80 -15 -109q1 -9 7 -16t14.5 -11t17.5 -4q70 0 101 7
l-4 -58q-227 -38 -285 -80h-49l37 146q-168 -141 -292 -141q-163 0 -234 121.5t-30 314.5q49 231 206 360q156 123 333 123q34 0 86.5 -13t81.5 -32l94 438q6 28 -2 37.5t-35 9.5h-250q-72 0 -135.5 -67.5t-104.5 -155.5l-52 6l94 308q88 -20 212 -21h326q96 9 128 21z" />
    <glyph glyph-name="uni018D" unicode="&#x18d;" horiz-adv-x="1003" 
d="M486 49l29 -26l-10 32q307 102 366 383q17 62 12 131t-23.5 127t-66 95.5t-115.5 37.5q-29 0 -57.5 -5.5t-64 -19.5t-67.5 -42.5t-63 -69t-57 -104t-43 -144.5q-17 -82 12 -180t97 -164zM533 4l31 -31q158 -150 138 -243q-23 -109 -114 -160t-211 -51q-139 0 -222.5 64.5
t-71.5 123.5q8 40 37 58t57 18q21 0 45.5 -20.5t39.5 -69.5q33 -106 131 -107q172 0 198 123q11 50 -132 185l-121 114q-116 108 -160.5 198.5t-18.5 215.5q25 120 85.5 214.5t138.5 150t163 84t169 28.5q185 0 273 -121t48 -305q-17 -79 -56.5 -148t-88.5 -117.5
t-113 -89.5t-122 -67t-123 -47z" />
    <glyph glyph-name="uni018E" unicode="&#x18e;" horiz-adv-x="1146" 
d="M861 410l53 247q-255 0 -461 -20l-5 6q12 28 18 57q6 30 6 58l8 6q237 -20 452 -21l36 168q54 254 49 310q-274 0 -562 -25l-2 8q11 33 15 53q1 4 1.5 8.5t1.5 9t1.5 10t1.5 10.5t1.5 12.5t1.5 13.5l6 6q48 -6 121 -6h539q31 0 57.5 1.5t37.5 3.5l11 1l3 -6
q-52 -147 -108 -410l-107 -501q-58 -272 -66 -410l-4 -6q-34 6 -105 6h-559q-74 0 -124 -6l-3 6q16 57 17 59q7 35 10 68l6 8q299 -25 572 -24q29 57 80 299z" />
    <glyph glyph-name="uni018F" unicode="&#x18f;" horiz-adv-x="1318" 
d="M426 1071l-36 49q164 128 269.5 178t261.5 50q81 0 149.5 -16t120 -45t92 -68.5t66 -88.5t41.5 -104t20.5 -115t0 -120.5t-17.5 -122.5q-66 -309 -264.5 -501t-486.5 -192q-114 0 -200.5 30t-136.5 82.5t-80 123t-32.5 152t6.5 169.5h979q3 11 6.5 25.5t5.5 22t6 28.5
q32 143 22.5 265.5t-49.5 212.5t-116.5 141t-178.5 51q-68 0 -129 -15.5t-120.5 -50t-97 -62t-101.5 -79.5zM344 442q5 -197 89.5 -297t237.5 -100t278.5 115t191.5 282h-797z" />
    <glyph glyph-name="uni0190" unicode="&#x190;" horiz-adv-x="1058" 
d="M891 1348q82 0 162.5 -29t118.5 -33l-23 -293l-66 -10q-1 47 -3.5 79.5t-10 69.5t-23 60.5t-39.5 44.5t-61 31t-87 10q-84 0 -153.5 -27.5t-120.5 -85.5t-68 -141q-6 -28 -6.5 -56.5t5 -60.5t23 -60t43.5 -50.5t70 -35.5t101 -13h139q35 0 26 -41q-8 -39 -43 -39h-199
q-78 0 -140.5 -25.5t-102 -69t-63.5 -91t-35 -101.5q-28 -122 -0.5 -196.5t83.5 -107t140 -32.5q121 0 240.5 74.5t186.5 228.5l61 -6l-98 -295q-22 -3 -155.5 -37.5t-230.5 -34.5q-57 0 -108.5 6.5t-106 22.5t-94 42.5t-71.5 67t-38 96.5t6 130q32 153 140 249t236 130
q-21 8 -42 21t-49.5 37.5t-44.5 55.5t-26.5 76t4.5 99q23 110 109 189.5t193.5 115t220.5 35.5z" />
    <glyph glyph-name="uni0191" unicode="&#x191;" horiz-adv-x="1036" 
d="M554 670l-124 -584q-24 -113 -65.5 -202t-87.5 -142t-99.5 -87.5t-98 -47.5t-85.5 -13q-30 0 -62 6.5t-64.5 20.5t-49.5 42t-9 67q13 61 77 61q60 0 63 -80q0 -16 2 -25.5t15.5 -18.5t40.5 -9q78 0 148.5 120t119.5 349l223 1049q6 30 2.5 49.5t-25.5 30t-65 10.5h-61
q-16 0 -14 14l9 41l9 2l255 -2l152 2h498q-11 -77 -17 -163t-7 -154l-62 -11q-6 53 -10.5 81.5t-16.5 65t-30 55t-49.5 31.5t-76.5 13h-240q-38 0 -59 -15t-28 -50l-93 -437h260q35 0 58 11.5t36.5 29.5t26.5 49l28 62q3 7 8.5 11.5t11.5 4.5h45q6 0 4 -8q-43 -125 -58 -194
q-14 -68 -25 -197l-5 -6h-47q-13 0 -16 14l1 64q2 47 -15.5 68.5t-67.5 21.5h-260z" />
    <glyph glyph-name="florin" unicode="&#x192;" horiz-adv-x="921" 
d="M972 1430q112 0 155.5 -43t31.5 -97q-6 -33 -28.5 -54.5t-53.5 -21.5q-33 0 -51 12t-18 40q1 22 -1.5 42.5t-15 41t-34.5 20.5t-46.5 -18.5t-61.5 -80.5t-73 -163l-77 -227h215l-27 -80h-217l-12 -35q-222 -681 -299 -864q-130 -306 -262 -362q-38 -15 -77 -15
q-40 0 -69 12.5t-41 31.5t-16.5 37t-1 33.5t14.5 31t28 26t36 10.5q48 0 58 -43q5 -13 2 -27t2.5 -25t25.5 -11q49 0 94 61t85 175.5t72 226t72.5 265.5t68.5 240l73 232h-169l29 80h74q98 0 135 108q73 215 178 328t201 113z" />
    <glyph glyph-name="uni0193" unicode="&#x193;" horiz-adv-x="1476" 
d="M1720 1522q38 0 51 -24.5t7 -49.5q-15 -72 -117 -72q-8 0 -22 1t-19 1q-12 0 -17 -2q-80 -13 -118 -116l9 -5l2 -6q-18 -39 -26 -58q0 -3 -0.5 -8t-1.5 -7l-6 -1q-31 -69 -55 -153l-21 -2q-67 231 -368 231q-210 0 -376.5 -158t-222.5 -423q-14 -83 -14 -166t30 -160.5
t78 -137.5t131 -96t189 -36q218 0 317 78l19 88q55 282 62 389l6 6q34 -6 103 -6l108 6l1 -6q-50 -137 -95 -348l-3 -13q-15 -73 0 -98l-1 -6q-259 -184 -584 -184q-201 0 -345 88t-201.5 236.5t-20.5 324.5q35 163 126.5 301t212 228t258.5 140t271 50q191 0 368 -67
q27 76 83 133.5t109 82.5t93 25z" />
    <glyph glyph-name="uni0194" unicode="&#x194;" horiz-adv-x="1263" 
d="M587 -41q-38 -43 -75.5 -101.5t-59.5 -102.5t-26 -62q-4 -21 -3.5 -34.5t7 -21.5t15.5 -11t24 -3q26 0 48.5 28.5t33 57.5t16.5 58q22 105 20 192zM1249 1176q21 34 26 55q2 11 -3.5 18t-20.5 10.5t-33.5 5t-47.5 1.5h-37q-17 0 -13 16l9 39l4 2h8.5t22.5 -0.5t34 -0.5
h40.5t43.5 -0.5t42 -0.5h38q32 0 76.5 0.5t73.5 0.5l29 1l3 -2l-8 -39q-4 -16 -20 -16q-65 0 -101.5 -19t-66.5 -71l-617 -1051q3 -45 4 -98.5t-1 -98t-5 -80t-6 -51.5q-15 -68 -50 -126t-93 -97t-128 -39q-77 0 -108.5 40.5t-19.5 96.5q17 81 245 402l-154 1097
q-8 57 -39.5 76t-90.5 19q-17 0 -12 16l8 39l4 2q159 -2 239 -2q32 0 96 0.5t111 0.5l48 1l4 -2l-9 -39q-4 -16 -20 -16h-55q-98 0 -110 -54q-2 -8 0 -41l101 -729l26 -178l100 172z" />
    <glyph glyph-name="uni0195" unicode="&#x195;" horiz-adv-x="1462" 
d="M425 1153q19 100 12.5 130t-39.5 30l-65 4q-12 1 -10 10l6 49q41 3 98.5 12t110 20.5t79.5 21.5q14 0 19.5 -5t2.5 -16q-3 -9 -7.5 -26.5t-18 -73.5t-25.5 -115l-98 -459q199 164 373 164q221 0 154 -317l-68 -316q-41 -195 113 -194q111 0 213.5 128t136.5 285
q51 241 -69 263q-85 7 -70 75q6 30 33.5 53t66.5 23q201 0 118 -389q-29 -135 -80.5 -240.5t-113.5 -168t-127 -94.5t-129 -32q-304 0 -244 297l71 332q25 119 -1.5 159t-116.5 40q-99 0 -276 -144l-109 -512q-6 -30 -2.5 -49.5t21 -30t50.5 -10.5h39q17 0 13 -16l-8 -39
l-5 -4q-139 4 -219 4q-21 0 -50 -0.5t-56.5 -1t-51.5 -1t-39 -1.5h-14l-4 4l9 39q4 16 18 16h38q50 0 74 21.5t34 68.5z" />
    <glyph glyph-name="uni0196" unicode="&#x196;" horiz-adv-x="593" 
d="M429 1153q19 100 12.5 130t-39.5 30l-65 4q-12 1 -10 10l6 49q64 5 155.5 21.5t132.5 32.5q14 0 19.5 -5t2.5 -16q0 -2 -1 -5t-4 -14t-6 -23.5t-8 -32t-10 -39.5t-11 -47t-11 -54l-195 -918q-22 -95 -17 -141.5t44 -46.5q38 0 69.5 12.5t80.5 44.5l29 -34
q-149 -135 -275 -136q-149 0 -106 203z" />
    <glyph glyph-name="uni0197" unicode="&#x197;" horiz-adv-x="600" 
d="M721 754l-14 -70h-168l-59 -274q-56 -265 -66 -410l-6 -6q-4 1 -11 2t-34 2.5t-58 1.5l-108 -6v6q50 139 107 410l58 274h-178l15 70h178l34 157q56 265 66 410l6 6q34 -6 103 -6l108 6v-6q-50 -136 -107 -410l-34 -157h168z" />
    <glyph glyph-name="uni0198" unicode="&#x198;" horiz-adv-x="1304" 
d="M1360 1348q90 0 142 -45t40 -99q-4 -20 -18.5 -37t-33.5 -27t-37 -10q-29 0 -43 23.5t-16.5 51t-20 50.5t-51.5 23q-15 0 -39 -16t-59 -48t-66 -63.5t-80 -80.5l-81 -81q-45 -44 -118.5 -108.5t-103 -95.5t-33.5 -52q-2 -11 2.5 -23t14.5 -28l377 -532q60 -92 140 -93h14
q7 0 12 -4.5t3 -11.5l-8 -39l-7 -4q-153 4 -233 4q-33 0 -63.5 -1t-45.5 -2l-15 -1l-3 4l3 12q19 90 -12 136l-287 405q-46 64 -107 75l-47 -220q-56 -265 -66 -410l-6 -6q-4 1 -11 2t-34 2.5t-58 1.5l-108 -6v6q50 139 107 410l107 501q56 265 66 410l6 6q34 -6 103 -6
l108 6v-6q-50 -136 -107 -410l-42 -198q53 16 131 78q160 132 293 262q24 23 53.5 53.5t51 53t47.5 49t47.5 45.5t46 37.5t47 30t48 19t50.5 7.5z" />
    <glyph glyph-name="uni0199" unicode="&#x199;" horiz-adv-x="980" 
d="M396 1016q17 82 49 153.5t78.5 131t113 94.5t144.5 35q43 0 84 -13t67 -38t19 -54q-8 -37 -31.5 -58.5t-50.5 -21.5q-34 0 -50 26.5t-17 63.5q-2 33 -26 33q-34 0 -65.5 -19t-59.5 -55.5t-50.5 -91.5t-37.5 -125l-134 -630l8 38q83 18 316 226q50 41 58 80q3 15 -8 23.5
t-44 8.5h-9q-17 0 -13 17l9 39l7 4q98 -4 169 -4l191 4l8 -4l-9 -39q-4 -16 -26 -17h-14q-16 0 -37.5 -5t-45 -14t-47.5 -21t-46.5 -27t-41.5 -31l-192 -172q-10 -8 -12 -21q-3 -15 4 -28l164 -354q19 -41 57 -67t77 -26h15q19 0 15 -16l-9 -39l-5 -4q-104 4 -183 4l-128 -4
l-5 4l8 39q5 17 0.5 41.5t-24.5 67.5l-105 210q-14 30 -28.5 46t-32 22t-44.5 6l-61 -287q-6 -30 -2.5 -49.5t21 -30t50.5 -10.5h4q17 0 13 -16l-8 -39l-5 -4q-104 4 -184 4q-21 0 -50 -0.5t-56.5 -1t-51.5 -1t-39 -1.5h-14l-4 4l9 39q4 16 18 16h38q50 0 74 21.5t34 68.5z
" />
    <glyph glyph-name="uni019A" unicode="&#x19a;" horiz-adv-x="532" 
d="M682 705l-15 -70h-184l-48 -225q-58 -272 -66 -410l-6 -6q-3 1 -9 2t-31.5 2.5t-56.5 1.5l-101 -6l-1 6q48 129 107 410l48 225h-176l15 70h176l60 282q57 270 61 385l6 6q20 1 40 4.5t34.5 7t33.5 9.5t28.5 9.5t29.5 11t27 10.5q18 0 14 -21q-55 -164 -102 -385
l-68 -319h184z" />
    <glyph glyph-name="uni019B" unicode="&#x19b;" horiz-adv-x="1087" 
d="M981 1262l22 -62l-232 -120l57 -642q9 -114 15.5 -169t17.5 -99t25.5 -57t40.5 -13q38 0 64.5 10.5t64.5 47.5l37 -35q-27 -40 -62.5 -73.5t-72.5 -54t-66 -20.5q-50 0 -80.5 33t-45 90.5t-23.5 159.5l-42 485l-451 -743q-110 -8 -159 -25l-46 25l642 891l-8 88
q-2 26 -5 50l-217 -114l-22 62l229 119q-11 64 -27 107.5t-35.5 64t-36.5 29t-38 8.5q-77 0 -156 -52l-28 35q127 141 229 142q169 0 192 -265l1 -16z" />
    <glyph glyph-name="uni019C" unicode="&#x19c;" horiz-adv-x="1753" 
d="M623 1176l-195 -916q-20 -96 11 -141t99 -45q139 0 318 147q1 13 3 28t4.5 26t6.5 30l185 871q10 45 -7 67.5t-68 22.5h-43q-19 0 -15 16l8 39l5 2q151 -2 237 -2q35 0 91.5 0.5t96.5 0.5l39 1l6 -2l-8 -39q-4 -16 -22 -16h-41q-54 0 -80 -22.5t-35 -67.5l-194 -912
q-20 -96 11.5 -143t99.5 -47q119 0 309 151l202 951q6 29 2 48.5t-23 30.5t-54 11h-43q-19 0 -15 16l8 39l4 2q17 0 44.5 -0.5t91 -1t102.5 -0.5q35 0 92 0.5t96 0.5l39 1l6 -2l-8 -39q-4 -16 -22 -16h-41q-37 0 -60.5 -11t-35 -30t-18.5 -49l-202 -953q-12 -56 -11.5 -84.5
t8.5 -35.5t25 -7q43 0 95 10l-2 -55q-107 -17 -150 -27.5t-92 -31.5q-40 -16 -59 -17h-33l44 177h-6q-104 -83 -201 -130t-193 -47q-88 0 -138 51.5t-46 125.5q-220 -176 -414 -177q-92 0 -137 45.5t-45 119.5t17 167l185 869q6 29 2 48.5t-23 30.5t-54 11h-43q-19 0 -15 16
l8 39l4 2q151 -2 238 -2q35 0 92.5 0.5t97.5 0.5l39 1l4 -2l-8 -39q-4 -16 -20 -16h-43q-53 0 -78 -22t-35 -68z" />
    <glyph glyph-name="uni019D" unicode="&#x19d;" horiz-adv-x="1423" 
d="M251 180l201 946q1 18 -7 47.5t-37.5 61t-74.5 31.5q-9 0 -16 4.5t-5 11.5l7 37l7 4h266l523 -903q11 -20 23 -42.5t18.5 -37.5t13.5 -28t12.5 -19t11.5 -6q10 0 26 78l165 776q6 21 4 43t-9.5 40t-28 30t-50.5 12h-53q-9 0 -18 4.5t-7 11.5l8 39l11 2q17 0 44 -0.5
t87.5 -1t93.5 -0.5q35 0 92 0.5t96 0.5l39 1l4 -2l-8 -39q-4 -16 -20 -16h-55q-38 0 -68 -19t-46.5 -46t-23.5 -60l-233 -1098q-13 -59 -56 -59q-51 3 -72 45l-523 903q-38 68 -55 67q-21 0 -42 -100l-152 -717q-16 -75 -26 -119t-29 -111.5t-36.5 -108t-45 -89t-57.5 -75
t-71 -44.5t-89 -18q-67 0 -107 33t-33 67q15 72 81 72q5 0 10 -2t9.5 -5t8.5 -8t7.5 -10.5t6.5 -12.5t5 -14t3.5 -14.5t1.5 -15.5q3 -29 35 -29q126 0 233 502z" />
    <glyph glyph-name="uni019E" unicode="&#x19e;" horiz-adv-x="1071" 
d="M531 899l-45 -182h6q114 107 199.5 144.5t173.5 37.5q67 0 107.5 -24t54.5 -70.5t12 -101t-18 -128.5l-192 -903q-9 -44 6 -63.5t62 -24.5l38 -4q18 -2 15 -16l-9 -39l-4 -4q-134 4 -221 4l-201 -4l-4 4l9 39q3 14 19 16l30 4q51 7 74 25.5t33 62.5l195 918
q26 108 8 159.5t-96 51.5q-47 0 -91 -13.5t-97.5 -49t-117.5 -95.5l-106 -496q-9 -44 5.5 -62t64.5 -26l27 -4q16 -2 13 -16l-8 -39l-5 -4q-127 4 -208 4q-83 0 -214 -4l-3 4l8 39q3 15 20 16l40 4q52 5 74.5 24.5t32.5 63.5l108 510q11 50 11.5 78t-6.5 38t-23 11l-86 9
l6 49q205 31 296 63q6 -3 7 -6z" />
    <glyph glyph-name="uni019F" unicode="&#x19f;" horiz-adv-x="1476" 
d="M1534 674q-65 -308 -288 -501t-515 -193q-132 0 -240.5 45.5t-179 130.5t-96.5 206.5t6 272.5q64 301 294 507t505 206q281 0 429.5 -187.5t84.5 -486.5zM1329 713q42 272 -52.5 408t-302.5 136q-75 0 -149.5 -30t-146.5 -92t-133 -170.5t-96 -251.5h880zM1314 633h-882
q-46 -264 61.5 -413.5t297.5 -149.5q180 0 323 148t200 415z" />
    <glyph glyph-name="Ohorn" unicode="&#x1a0;" horiz-adv-x="1476" 
d="M974 1257q-78 0 -155 -32t-151 -99t-135 -184.5t-94 -271.5q-30 -147 -14.5 -259.5t67.5 -188t128.5 -114t170.5 -38.5q58 0 114.5 16.5t108 48t98 80t85 110.5t68.5 141t50 169q66 311 -26 466.5t-315 155.5zM1534 674q-65 -308 -288 -501t-515 -193q-132 0 -240.5 45.5
t-179 130.5t-96.5 206.5t6 272.5q64 301 294 507t505 206q89 0 167.5 -21t142.5 -60q20 -3 46 -3q16 0 41 6t54.5 27t36.5 53q2 10 -2 19t-12 15.5t-18.5 11t-20.5 5.5q-47 6 -65 33.5t-11 62.5q17 80 111 80q58 0 88 -56t14 -130q-17 -78 -62.5 -126.5t-121.5 -58.5
q94 -90 127 -224t-1 -308z" />
    <glyph glyph-name="ohorn" unicode="&#x1a1;" horiz-adv-x="1021" 
d="M163 420q9 42 23 81.5t32 76t40.5 69.5t48 62.5t55.5 55t62 46.5t67 37.5t71.5 27.5t76 17t78.5 6q122 0 206 -47q23 -4 52 -4q17 0 40 5t51 25t35 52q4 19 -10.5 31.5t-37.5 15.5q-48 4 -67 31t-11 61q8 37 37.5 58.5t73.5 21.5q57 0 82.5 -53t10 -127.5t-63 -121.5
t-116.5 -58q38 -44 57.5 -104t19.5 -121t-12 -126q-18 -84 -64.5 -164.5t-115.5 -146.5t-164.5 -106.5t-201.5 -40.5q-136 0 -227 63.5t-121.5 162.5t-6.5 214zM685 815q-124 0 -210.5 -101t-117.5 -247q-17 -59 -11.5 -129.5t23 -131.5t69 -102t126.5 -41q39 0 80 15.5
t85.5 49t82 99.5t56.5 156q91 432 -183 432z" />
    <glyph glyph-name="uni01A2" unicode="&#x1a2;" horiz-adv-x="1806" 
d="M956 1278q-77 0 -157 -35.5t-157.5 -106t-141 -191.5t-96.5 -275q-61 -286 44 -455.5t313 -169.5q62 0 123 20.5t117 59.5l221 1040q-100 113 -266 113zM1589 1233q-28 0 -58 1t-53.5 3t-43.5 4l-30 3l-11 1l-238 -1122q-201 -147 -448 -148q-271 0 -416 182t-82 478
q64 303 289.5 508t498.5 205q159 0 278 -72q46 15 88 47h47q160 -14 218 -14q68 0 103 2.5t66 10.5t77 26h45l-317 -1491q-10 -45 5.5 -67.5t63.5 -22.5h49q17 0 13 -17l-9 -39l-4 -4q-17 0 -44 1t-88.5 2t-96.5 1q-20 0 -50.5 -0.5t-59 -1t-54.5 -1t-42 -0.5l-16 -1l-3 4
l8 39q2 8 7 12.5t13 4.5h49q25 0 43.5 5.5t31 17.5t20 28t12.5 39l263 1235q8 36 10.5 58.5t-2 39t-11 24.5t-26.5 12.5t-39 5.5t-56 1z" />
    <glyph glyph-name="uni01A3" unicode="&#x1a3;" horiz-adv-x="1413" 
d="M838 688q-55 141 -180 141q-120 0 -207.5 -100t-122.5 -264q-20 -116 -11 -192.5t49 -121.5t84 -63t93 -18q105 0 174 45zM1180 -324q-8 -29 -2.5 -47t22 -27.5t49.5 -15.5l38 -6q16 -3 13 -16l-8 -39l-5 -4q-139 4 -219 4q-21 0 -50 -0.5t-56.5 -1t-52.5 -1t-39 -1.5
h-15l-4 4l9 39q3 14 19 16l41 6q52 8 74.5 27t32.5 63l211 994q9 42 -10.5 63t-42.5 24t-69 3q-50 0 -114 -25l-134 -631q-40 -24 -90 -46t-102 -39.5t-105.5 -28t-95.5 -10.5q-85 0 -149.5 27.5t-99 73.5t-55.5 104.5t-18.5 119.5t11.5 119q44 205 188 340t329 135
q120 0 184 -39q56 -33 259 -33q64 0 126 19.5t103.5 39t57.5 19.5h31z" />
    <glyph glyph-name="uni01A4" unicode="&#x1a4;" horiz-adv-x="1196" 
d="M788 1241l-124 -586q35 -10 143 -10q315 0 382 313q66 311 -227 312q-30 0 -86.5 -9.5t-87.5 -19.5zM389 143l220 1035q11 58 4.5 73t-35.5 15q-68 -2 -130.5 -32.5t-75.5 -90.5q-6 -29 -3 -51q0 -37 -2 -50q-7 -31 -31.5 -50t-54.5 -19q-29 0 -47.5 19t-8.5 65
q8 37 34 79.5t69 85t112.5 71.5t151.5 30h2.5h2.5l111 6q180 10 285 10q91 0 161 -16.5t111.5 -45.5t68 -64t35 -75.5t9 -74.5t-6.5 -68q-15 -72 -53 -140t-103 -133t-171.5 -104.5t-238.5 -39.5q-90 0 -154 20l-96 -455q-10 -47 11.5 -67.5t82.5 -20.5h53q17 0 13 -16
l-8 -39l-5 -4q-178 4 -258 4l-265 -4l-3 4l8 39q4 16 20 16h55q41 0 68.5 10.5t41.5 29t20 48.5z" />
    <glyph glyph-name="uni01A5" unicode="&#x1a5;" horiz-adv-x="980" 
d="M443 637l-107 -500q56 -88 152 -88q78 0 140.5 33t102.5 90.5t64.5 119t40.5 134.5q26 124 13.5 208.5t-53.5 127.5t-105 43q-56 0 -128 -45.5t-120 -122.5zM536 1077l-42 -196l-37 -146h6q143 164 304 164q144 0 210 -124.5t31 -293.5q-9 -41 -21.5 -79.5t-28 -73.5
t-34.5 -67t-41.5 -61.5t-47.5 -55.5t-53 -50q-139 -115 -297 -114q-99 0 -172 45l-75 -349q-9 -44 5.5 -63t61.5 -27l38 -6q18 -3 15 -16l-8 -39l-5 -4q-141 4 -221 4l-211 -4l-4 4l8 39q3 14 20 16l41 6q53 8 75 27t32 63l284 1340q17 82 49 153.5t78.5 131t113 94.5
t144.5 35q68 0 123 -30.5t46 -74.5q-8 -37 -31.5 -58.5t-51.5 -21.5q-32 0 -48 26t-19 64q1 33 -23 33q-70 0 -127 -75.5t-87 -215.5z" />
    <glyph glyph-name="uni01A6" unicode="&#x1a6;" horiz-adv-x="1155" 
d="M1187 795q-17 -80 -82.5 -149.5t-133 -105.5t-125.5 -48l109 -490q51 -158 159 -158l-3 -41q-39 -14 -89 -14q-87 0 -144.5 49t-84.5 127l-109 477q-3 12 -7.5 17.5t-26.5 9.5t-57.5 5t-108.5 1l-71 -332q-10 -47 11.5 -67.5t82.5 -20.5h54q17 0 12 -16l-8 -39l-5 -4
q-175 4 -257 4q-71 0 -263 -4l-3 4l8 39q1 5 4 8.5t6.5 5.5t7.5 2h55q61 0 90.5 21.5t39.5 66.5l219 1033q5 23 2.5 40t-13.5 28t-30.5 16.5t-49.5 5.5h-56q-17 0 -13 16l9 39l4 2q178 -2 258 -2q33 0 99 0.5t116 0.5l49 1l4 -2l-8 -39q-4 -16 -20 -16h-53q-113 0 -132 -90
l-11 -52q43 2 156 2q98 0 176 -16t140.5 -52t87.5 -103t5 -160zM1021 793q16 74 -0.5 127.5t-55.5 81.5t-84 40.5t-96 12.5q-53 0 -97 -4.5t-84 -12.5l-105 -491h103q46 0 83.5 2.5t78 9.5t73 18.5t63 30.5t53.5 44.5t41 61t27 79.5z" />
    <glyph glyph-name="uni01A7" unicode="&#x1a7;" horiz-adv-x="980" 
d="M473 1292q27 4 113.5 30t197.5 26q144 0 243.5 -100.5t66.5 -254.5q-11 -50 -35.5 -95t-54.5 -78.5t-73 -65.5t-79.5 -53.5t-85.5 -43.5t-80.5 -34t-75.5 -27q-123 -45 -192.5 -104.5t-96.5 -186.5q-17 -81 7 -139.5t79 -87.5t134 -29q88 0 163 41t128 109.5t95 165.5
l61 -7q-5 -13 -22 -61.5t-21 -61t-16.5 -49t-17.5 -52t-13.5 -43t-14 -48.5t-11.5 -43q-17 0 -43.5 5t-48.5 5q-16 0 -47.5 -8.5t-93 -17.5t-149.5 -9q-173 0 -263.5 120.5t-56.5 281.5q15 71 50 130t75 97.5t100.5 72.5t107 52.5t113.5 40.5q51 17 91.5 34.5t101 51
t102 83.5t53.5 110q20 96 -28.5 162.5t-147.5 66.5q-58 0 -109.5 -20t-86.5 -48t-70 -74t-54 -80t-44 -85l-60 10q71 180 109 311z" />
    <glyph glyph-name="uni01A8" unicode="&#x1a8;" horiz-adv-x="759" 
d="M733 287l-76 -287q-18 4 -46 4q-25 0 -40 -4q-28 -7 -58 -11.5t-62 -6.5t-68 -2q-32 0 -68 7t-76 25.5t-69 46.5t-42.5 74.5t-1.5 104.5q24 112 115.5 178.5t249.5 120.5q90 31 130.5 66.5t53.5 96.5q6 42 1 69t-27 42t-46 21t-56 6q-29 0 -68 -13.5t-94.5 -62.5
t-91.5 -125l-49 2q23 95 65 209q113 51 251 51q123 0 189 -63.5t45 -165.5q-10 -45 -27.5 -80.5t-38.5 -59.5t-57.5 -46.5t-69 -37.5t-88.5 -38q-131 -51 -188 -100.5t-71 -117.5q-15 -69 34 -111t111 -42q101 0 172 59q76 66 115 193z" />
    <glyph glyph-name="uni01A9" unicode="&#x1a9;" horiz-adv-x="1212" 
d="M533 1321h690q33 0 66.5 1.5t57.5 4.5l3 -6q-16 -57 -17 -59q-7 -35 -10 -68l-6 -8q-349 18 -572 24l-157 -3l257 -529l-589 -580q179 7 294 13l583 24l2 -8q-11 -33 -18 -68q0 -2 -9 -59l-5 -6q-48 6 -122 6h-793q-57 0 -144 -4l-3 4l10 49l6 6q27 23 48 43l546 535l4 2
l-263 545l-6 12q-17 35 -23 44.5t-26 28.5v1l-4 4l11 51l5 2z" />
    <glyph glyph-name="uni01AA" unicode="&#x1aa;" horiz-adv-x="624" 
d="M266 1231q19 90 93 144.5t168 54.5q77 0 117.5 -32.5t53.5 -116t-22 -228.5l-218 -1026q-25 -119 -34.5 -195t-7.5 -105t11 -49q18 -53 65 -53q28 0 60 53q12 18 20.5 28.5t24 21t31.5 10.5q63 0 48 -72q-2 -11 -10 -23t-21 -23t-31.5 -21t-40 -17.5t-47.5 -11.5t-53 -4
q-20 0 -47.5 8t-56.5 24.5t-47 36.5q-29 33 -41.5 77.5t-6.5 112t14.5 117t29.5 148.5l168 789q24 114 60 188q-59 -33 -105 -33q-100 0 -147 55t-28 142zM618 1231q7 35 0 66.5t-34 54t-71 22.5q-63 0 -108 -42.5t-57 -100.5t15.5 -99.5t89.5 -41.5q40 0 76 20.5t58.5 52.5
t30.5 68z" />
    <glyph glyph-name="uni01AB" unicode="&#x1ab;" horiz-adv-x="618" 
d="M273 -297q-33 0 -48.5 23t-9 55t30 48.5t49.5 19t59.5 7.5t52.5 15q62 32 81 121q3 15 5 28q-17 -9 -33.5 -15.5t-33 -11t-33 -8t-33 -4.5t-33.5 -1q-71 0 -105.5 44.5t-19.5 116.5q5 23 33.5 143t43.5 189l67 315h-129q-8 0 -7 9l16 73q2 8 8 9h131q21 100 28.5 144
t9.5 103l6 7q38 3 64.5 9t66.5 23t46 19q18 0 13 -21q-38 -132 -70 -284h219q8 0 11.5 -3.5t2.5 -9.5l-11 -51q-6 -27 -55 -27h-186l-63 -292q-11 -53 -24 -106.5t-23 -95t-15 -65.5q-4 -19 -6.5 -33.5t-3.5 -28t0.5 -23.5t5 -18t9.5 -13t14.5 -8t20.5 -3q77 0 148 37
l14 -57q-18 -14 -35 -26q-1 -37 -9 -76q-26 -123 -118 -200t-152 -77z" />
    <glyph glyph-name="uni01AC" unicode="&#x1ac;" horiz-adv-x="1204" 
d="M1344 1321q43 0 53 47l54 6q-35 -206 -36 -313l-63 -10q-5 126 -24.5 157t-101.5 31h-135q-57 0 -81.5 -17.5t-35.5 -68.5l-214 -1008q-10 -48 12 -69t81 -21h56q17 0 13 -16l-9 -39l-5 -4q-180 4 -259 4l-263 -4l-3 4l8 39q4 16 20 16h53q113 0 132 90l216 1014
q10 47 -7.5 63.5t-74.5 16.5h-137q-180 0 -201 -100q-5 -23 -2 -47q1 -33 -3 -50q-7 -32 -31 -50.5t-55 -18.5q-30 0 -48 19t-8 65q4 20 13.5 42.5t26.5 48t38.5 50t51.5 47t64.5 39.5t79.5 27t94 10h731z" />
    <glyph glyph-name="uni01AD" unicode="&#x1ad;" horiz-adv-x="622" 
d="M506 799l-111 -523q-22 -95 -17.5 -141.5t44.5 -46.5q73 0 160 57l29 -34q-149 -135 -285 -136q-149 0 -106 203l132 621h-133q-8 0 -7 8l14 63q2 8 8 9q43 0 75.5 15.5t49.5 40.5t25 43.5t12 37.5l2 6q38 173 135.5 290.5t247.5 117.5q43 0 84 -13t67 -38t19 -54
q-8 -37 -31.5 -58.5t-50.5 -21.5q-34 0 -50 26.5t-17 63.5q-2 33 -26 33q-20 0 -39.5 -7t-38 -20t-36 -33t-32.5 -45.5t-28.5 -58t-24.5 -70.5l-54 -255h225q8 0 11.5 -3.5t2.5 -9.5l-9 -41q-3 -13 -20 -19.5t-35 -6.5h-192z" />
    <glyph glyph-name="uni01AE" unicode="&#x1ae;" horiz-adv-x="1167" 
d="M775 1159q8 31 1 49t-26 24.5t-59 6.5h-172q-59 0 -91.5 -13.5t-61 -51.5t-67.5 -123l-59 10q58 133 112 315l53 -8q-10 -47 33 -47h867q45 0 55 47l54 6q-35 -206 -35 -313l-64 -10q-5 126 -24.5 157t-101.5 31h-135q-57 0 -81.5 -17.5t-35.5 -68.5l-245 -1153
q-37 -209 -12 -275.5t107 -66.5q60 0 81 53q37 80 97 80q63 0 51 -61q-11 -50 -58.5 -82.5t-94 -43t-89.5 -10.5q-42 0 -81 11.5t-80 38.5t-64.5 73.5t-33.5 116.5t13 166z" />
    <glyph glyph-name="Uhorn" unicode="&#x1af;" horiz-adv-x="1413" 
d="M1529 1266q-88 0 -108 -90l-122 -576q-31 -147 -75.5 -253t-118 -194t-187 -133t-266.5 -45q-50 0 -97 8.5t-100 29.5t-89.5 57.5t-66.5 92.5t-31.5 134t16.5 182l148 697q10 48 -11 69t-80 21h-56q-17 0 -12 16l8 39l4 2q178 -2 258 -2q33 0 99 0.5t116 0.5l50 1l3 -2
l-8 -39q-4 -16 -20 -16h-53q-113 0 -132 -90l-134 -629q-14 -67 -19.5 -104t-8.5 -94.5t11 -103t44 -83.5q84 -102 222 -103q100 0 178.5 32t127.5 78.5t86.5 119t56 133t35.5 141.5l130 613q5 24 3 40.5t-13.5 27.5t-31 16.5t-49.5 5.5h-56q-17 0 -12 16l8 39l4 2
q16 0 42.5 -0.5t87 -1t95.5 -0.5q126 0 166.5 10.5t47.5 42.5q4 21 -9 30t-44 9q-50 0 -68 24.5t-10 59.5q8 37 40 58.5t77 21.5q58 0 86 -49.5t13 -122.5q-14 -65 -61 -102t-114 -37z" />
    <glyph glyph-name="uhorn" unicode="&#x1b0;" horiz-adv-x="1087" 
d="M745 131q-68 -59 -126 -93.5t-101 -46t-88 -11.5q-73 0 -121.5 23.5t-67.5 62.5t-23.5 89t9.5 103l53 252q28 130 41 208.5t17 160.5l6 6q28 -6 97 -6l101 6l1 -6q-47 -121 -99 -369l-43 -203q-26 -122 9.5 -168.5t96.5 -46.5q101 0 262 152l56 266q51 239 58 369l5 6
q28 -6 97 -6h27.5t23.5 0.5t17.5 1t14.5 1.5q15 2 31.5 8t30 13.5t23 17t11.5 17.5q2 12 -1.5 21t-15 15t-29.5 7q-48 1 -67.5 27.5t-12.5 60.5q8 37 37.5 58.5t73.5 21.5q57 0 82 -53t9 -127q-6 -30 -26 -59.5t-58.5 -54t-86.5 -30.5q-21 -63 -39 -134.5t-41 -180.5
l-25 -117q-23 -106 -35 -211.5t-14 -181.5l-5 -6q-39 6 -90 6q-22 0 -72 -6q-18 0 -17 6l18 131h-4z" />
    <glyph glyph-name="uni01B1" unicode="&#x1b1;" horiz-adv-x="1363" 
d="M514 1202q-82 0 -119.5 -21t-62.5 -102h-53l65 242h197q98 0 133 -32.5t22 -94.5q-14 -67 -88.5 -187t-150.5 -246.5t-94 -209.5q-47 -223 37 -364.5t279 -141.5q202 0 343 146t186 358q27 166 3.5 276.5t-54.5 224t-21 162.5q12 55 77 82t209 27h143l-37 -242h-53
q7 32 2 54t-11.5 35.5t-25 21t-40 10t-55.5 2.5q-94 0 -104 -45q-6 -30 23 -96.5t65.5 -137.5t58 -174.5t1.5 -197.5q-22 -105 -82 -205.5t-150 -184t-218.5 -135t-274.5 -51.5q-120 0 -213.5 31t-151 84.5t-93 126t-38 157t14.5 177.5q20 93 85.5 196t133.5 174.5t126 139
t64 96.5q2 9 0.5 16t-6.5 12.5t-14.5 9t-24 5.5t-33.5 2z" />
    <glyph glyph-name="uni01B2" unicode="&#x1b2;" horiz-adv-x="1333" 
d="M278 451l154 725q5 23 2.5 40t-13.5 28t-30.5 16.5t-49.5 5.5h-56q-17 0 -12 16l8 39l4 2q178 -2 258 -2q33 0 99 0.5t116 0.5l50 1l3 -2l-8 -39q-4 -16 -20 -16h-53q-113 0 -132 -90l-142 -666q-18 -83 -24.5 -145t-0.5 -124.5t30.5 -102t75.5 -64.5t129 -25
q97 0 194 44t184.5 126t156.5 213t104 291q7 35 13.5 78.5t14.5 111.5t5.5 128.5t-12.5 116.5t-40 89t-76 33q-59 0 -78 -49q-3 -9 -9 -20.5t-18 -28t-30.5 -27t-40.5 -10.5q-24 0 -42.5 16t-10.5 51q8 38 37.5 66.5t68.5 42.5t74 20.5t66 6.5q82 0 132.5 -47t68 -129.5
t12.5 -185t-31 -224.5q-41 -193 -115 -340.5t-154.5 -229.5t-176 -133.5t-169 -67.5t-144.5 -16q-69 0 -124 8.5t-107 29.5t-84 55.5t-55 87.5t-21 126t19 169z" />
    </font>
</defs>
</svg>
